<mxfile host="app.diagrams.net" modified="2024-05-18T15:20:56.864Z" agent="Mozilla/5.0 (Windows NT 10.0; Win64; x64) AppleWebKit/537.36 (KHTML, like Gecko) Chrome/124.0.0.0 Safari/537.36" etag="Xalx_MOMzjVLsFV_0jdB" version="24.4.4" type="device">
  <diagram name="Page-1" id="DwUia8koJ6FRPaUyvYDs">
    <mxGraphModel dx="3119" dy="1311" grid="1" gridSize="10" guides="1" tooltips="1" connect="1" arrows="1" fold="1" page="1" pageScale="1" pageWidth="850" pageHeight="1100" math="0" shadow="0">
      <root>
        <mxCell id="0" />
        <mxCell id="1" parent="0" />
        <mxCell id="DLSMKTJHFx1a7OPu0qnC-1" value="" style="rounded=0;whiteSpace=wrap;html=1;fontStyle=0;strokeColor=default;glass=0;strokeWidth=10;" vertex="1" parent="1">
          <mxGeometry x="-480" y="490" width="1850" height="940" as="geometry" />
        </mxCell>
        <mxCell id="DLSMKTJHFx1a7OPu0qnC-25" style="edgeStyle=orthogonalEdgeStyle;rounded=0;orthogonalLoop=1;jettySize=auto;html=1;" edge="1" parent="1" source="HbFCfK-qerjDNlyoIxfr-5" target="DLSMKTJHFx1a7OPu0qnC-20">
          <mxGeometry relative="1" as="geometry" />
        </mxCell>
        <mxCell id="HbFCfK-qerjDNlyoIxfr-5" value="" style="html=1;whiteSpace=wrap;" parent="1" vertex="1">
          <mxGeometry x="-250" y="865" width="170" height="330" as="geometry" />
        </mxCell>
        <mxCell id="HbFCfK-qerjDNlyoIxfr-7" value="&lt;font style=&quot;font-size: 20px;&quot;&gt;User Device&lt;/font&gt;" style="text;html=1;align=center;verticalAlign=middle;whiteSpace=wrap;rounded=0;" parent="1" vertex="1">
          <mxGeometry x="-240" y="868.2" width="150" height="30" as="geometry" />
        </mxCell>
        <mxCell id="HbFCfK-qerjDNlyoIxfr-15" value="&lt;font style=&quot;font-size: 15px;&quot;&gt;Terminal 1&lt;/font&gt;" style="rounded=1;whiteSpace=wrap;html=1;" parent="1" vertex="1">
          <mxGeometry x="-225" y="990" width="120" height="60" as="geometry" />
        </mxCell>
        <mxCell id="HbFCfK-qerjDNlyoIxfr-16" value="&lt;font style=&quot;font-size: 15px;&quot;&gt;Terminal 2&lt;/font&gt;" style="rounded=1;whiteSpace=wrap;html=1;" parent="1" vertex="1">
          <mxGeometry x="-225" y="1075" width="120" height="60" as="geometry" />
        </mxCell>
        <mxCell id="DLSMKTJHFx1a7OPu0qnC-2" value="&lt;font style=&quot;font-size: 48px;&quot;&gt;Internet&lt;/font&gt;" style="text;html=1;align=center;verticalAlign=middle;whiteSpace=wrap;rounded=0;" vertex="1" parent="1">
          <mxGeometry x="1080" y="1340" width="390" height="110" as="geometry" />
        </mxCell>
        <mxCell id="DLSMKTJHFx1a7OPu0qnC-19" style="edgeStyle=orthogonalEdgeStyle;rounded=0;orthogonalLoop=1;jettySize=auto;html=1;" edge="1" parent="1" source="DLSMKTJHFx1a7OPu0qnC-7" target="HbFCfK-qerjDNlyoIxfr-5">
          <mxGeometry relative="1" as="geometry" />
        </mxCell>
        <mxCell id="DLSMKTJHFx1a7OPu0qnC-7" value="" style="verticalLabelPosition=bottom;html=1;verticalAlign=top;align=center;strokeColor=none;fillColor=#00BEF2;shape=mxgraph.azure.user;" vertex="1" parent="1">
          <mxGeometry x="-399.71" y="1005" width="47.5" height="50" as="geometry" />
        </mxCell>
        <mxCell id="DLSMKTJHFx1a7OPu0qnC-9" value="" style="rounded=0;whiteSpace=wrap;html=1;fontStyle=0;dashed=1;" vertex="1" parent="1">
          <mxGeometry x="-440" y="580" width="170" height="260" as="geometry" />
        </mxCell>
        <mxCell id="DLSMKTJHFx1a7OPu0qnC-16" style="edgeStyle=orthogonalEdgeStyle;rounded=0;orthogonalLoop=1;jettySize=auto;html=1;" edge="1" parent="1" source="DLSMKTJHFx1a7OPu0qnC-10" target="DLSMKTJHFx1a7OPu0qnC-7">
          <mxGeometry relative="1" as="geometry" />
        </mxCell>
        <mxCell id="DLSMKTJHFx1a7OPu0qnC-10" value="" style="verticalLabelPosition=bottom;html=1;verticalAlign=top;align=center;strokeColor=none;fillColor=#00BEF2;shape=mxgraph.azure.computer;pointerEvents=1;" vertex="1" parent="1">
          <mxGeometry x="-400.96" y="840" width="50" height="45" as="geometry" />
        </mxCell>
        <mxCell id="DLSMKTJHFx1a7OPu0qnC-12" value="" style="shape=image;verticalLabelPosition=bottom;labelBackgroundColor=default;verticalAlign=top;aspect=fixed;imageAspect=0;image=data:image/png,iVBORw0KGgoAAAANSUhEUgAAAJAAAABeCAYAAADMpJ18AAAWfklEQVR4Ae1d51dUybbnf3lz3/tw17wvb6237nriHUBAgiigAiIGVKICpnEccxjTjIkkKubEqIM6JoKBIIogoGQwYSIpOSmh2W/96nSdPud0N6LdMsDUh1qn6a7atWvXr3asbmwGBwdJNCGDr8WAzdcOFOME6IABASChgS2yQAJAAkACQNyc6gYHSafTkW5ggHq7uqm3o2tkW2cX9ff20YBugHSDOos2hq9ptD/HlQYa0OmovbaenmyLo5yZ4ZTjGUz3PUNGrOV4hVJe5GZ6/6ScgRiAHu0AsJS/cQMgaJ6e9k7K8Yug1O/sKe0vapj71r+86X1ZNdOGlm7QaB8/rgD0Mjn1LwWPErQFK7YxUzbaAWApf+MGQBBE2c6Ev0zzKMGD1/e8Q0inGxAmzFKEjuT4sp0HRg2AsryChQkbyc23xlwCQCPvtI8zEyY0kDUO4pfQ+BsByI7SvrNjTvbNfzjQV7f/dKCU7xw+66wLEzYGcxhDmzA7Sv+XJ728mEKtZU+preLFV7Tn1FbxnGozcynTI2hIEAkAjUEAle4wbcJSoXn+w46Kt8bSwMCAhc6tjvoHdPQ6LYvS/svRLIgyPYNpYGD8Z6PHlQkr/+0wpX/vQunfu2qaC6X/92SqTkwiZKu/xMab6osMc8PjMrr1P1M18/B5XSjbdwkDmqnx4+m9cQWgjrf11FxUbtSaisoJravuvYXaxxDlfOrspKYnFdT0WKKtnBdztVS+sApYRzvYxhWAWCHVjIbhn1mrPqXToXBrAJRyozHHwBCfK/uO9dfjCkDv7jygsl0HqfzXw0atdNchqntQYDUN1Paujsr3JhrNg7nLdh2iqpPJwgcaa6ejbMcB5tSioGmqVSecsRqAGopKKP2fk03Og7kRhcFhH2sy/FJ+x5UGGiqMx6ZWJ5w1a3a+VHCNRaV065/OZksnIowfg2H8iAKoUAAIh05ooK88KI0CQMw8CwAJAFnkpwkACQAJAHEHuHRnPCuYomiqbShnVH0TJ9p4Lsyd5SnuA1mETL6pI/mszc6jytgTVBl30qhVxJ6kuvxiq0Vh7bUNVJlw2mgePvfz89dEJnokN98ac/EsM57mmjXmAQ1GX5+J/tZzWYvnb0FnXPlAba9r6cOjYvrwqMSovc8vpo539WzjrSHInvYO+lBQajQPn7u5rFpkoq0h6JGkUbIrgW7iwpeJhvfLWSbadP3qS/msLyyllO9dTc6F+TNwqV5c57COsL90c762/9CJRDsq2RIj3Qey8FujKMy+SZXuA2m/jcH/Fk70V4a3X7v51hj3OQDd/t9p9OzMZWooLKXGovKvbGVUk5JJmW6BZssYAJEoZYwzAGFTUQ/jGuJbPwWAxiGAvjVolPQFgASALNJWAkACQBYBKFN8M3VsRWBwwkt3jZ7vxmd7h4gLZdaIjEaSRs3lVIu0htKHsey1HRWs3Eb94kbi2NJCn7p76N6sKEr7h/TNUVPXWr/9e3Z0+/+mU1Plc6tdnx3JQ/ilc42rUga+89X1oZkq9h+jLL8IyvAMYS3TM4S+dcvwDKZM71Aq/HkXNVX9PcADsI0rAGFB+G1C9hUelBFgQka06edmXy2y/AuMX6oN/or+4w5Af4UQ/85zCgCNwXTFaAKsAJAAkEUXBwWABIAEgEaTSh+1vOh0NDDQT319vdTX18cagg1L+RUa6O+igXQ6upWWQhGLQyhycSitXB5FNTU1AkCWniBrjcf34MtKSyg//yE9yn9I5WWloy6ReD7pDDna27Lm4eZEVZUVAkDWAoCldGAWwkODyMXJjrXIiFCLN8dSnrTjBYBGsbkBgEKDFsgnfHF4EA2a+f0g7caO1N8CQKMcQGECQFLxFN75p0+fqKW5mZqbm+njxx7Jnps5Uax0AI8e/2pJ39ipwq90DQxQR0c7NTc1UXd39xf5BaCFk93S0kLNzU0GPswACf3Bg6rp/wVUT08PNTU1UXt7+7B+aFP6BTId9fb2Mv4NvKsjF77evt5eCg0KNGigsEXStzJMyUXBPx+PeT5+/Ej9/f1qGSr6mtNUoNHT3c3W19LSTL29n0zK+XMaSC4DKWTI+TM3tyoKQ+en1VUUH7ufwkIW0tzZfjRntg+FhgRS9L7dzElEHy2xd+/e0uaN6/RtLeXn5bIFlJYU07atm2jB/NmMTtDCebR/z2/08uVnio26QWr68IHOnTlFURGhNHeOr8RH8AKKjd5Lz589NeIBPF2/fpU2b1zL+Nj96w52AHAIjiYepNDgBRQw24cC5/nTujWrKD/vAQ2a+XYGHGI4mNH7d1N4WBDjP2jhXPr5pxX0e9IZevv2jbxB6Jv8xwXauGENeU5xkQHkOdVV5gWyuXHjmjwGvPb0dFN+3kM6fOgA/fTjMibvkKBAWrI4hHZu30J3bqcTQK+VtfJvgK2oqIB+3bWNghbNp4DZvjQ3wJcWhwXRoYR4evUKUZZhvz4LIJ2OSkqe0OZNfC/XUUz0XnZwlfMqXzMAARRAf9LZ0+Q9zV0vhAmyMBztpddT3SfT0cRDRgurqqpU9f3zSjKlpaXQ1CmTFe9L3r+jnS35TPekzIw7Ji9cgZcnT4ooeOF8E3xINLynuVF6WopqQ7ComP17pTF2tjTTy4NKih9T5JJQYx7sbWmKq6PRpoIGciVXriST91Q3mqSPWHjkwp8zvKfS4YMHqKdb0synTx0nLiPeR/uMidkn81tXV0sRi0PJ1dnB7BzOk36gFcuW0JvXr+RxfOMgo472NoqN2Ucerk5maUz38qDr1/5kWg1jhwSQbpDq6+vYAeO8I1LLzc0xmp/zgScDENTnoYPx5DxpokoQTg4TyckBm8bBNIHw3p7du5ia5ITUALKlrVs20BR3Z2lhjMZEAnBY02+Kp4crPXlcpGIOgnnx/BnN8vGWgYAxzpP+zRpbGOjY25K7iyPdv39PNV4JIGgDaA0uDCd7rE0PYv0TQHz9Wp0LeVxURM6OP8hrxnqxmc5Yh2I8cinQIjCXCNu169OCDycZ64PMYNKDF/EDYmsWAOA3ckkYM7tc1qDR091FWzauJ7YmvTzY2hywRvU6cVjrauvYvOYABJrAwE8rl8kygsyhWfv7h/6ZPhsMvnvnFhMQF7CHuzMdiIumvIe5lPvgPu3b8yt5uDnLxF0c7Sg15YYsEC2AQAeCXxIeQjdvXqeiwgI6d/Y0+fvNkGmgz/KlkdTd3SWrabxesSxC7uPiZE8JcTHMZDQ01FHSudM0TTYTEyhk0Txqb2uTx8sA0m80eMBJv3r1CmVm3KWY6H0ELcrXiU0+knhQpea3bFpPjnbSgfGdAU15l+BXwOwmnTtDgfNmM+1VkJ+nH6ejtrZWOnf2DPnN8JRp+/l4s/4Yg/YoP1+WF2R+/Ggi4RCtWrmUTp44RjdvXKMrl5Npx/atKs0NHpOTL8hjYTJBTwlY7BfWnpFxh1JSbtCmTRvI3WUSAz7oYj4A0ByAYAqPHj0s8w65Yf8BKg5cc08bOIfwTbhQAZTCwkeq/3UFRzg7M4Odet4PgmxuaWYTaAGERW9Yv1pl6rAI+A4B/j7yXDjZACk+Q8u5l8mAx+c4dfyoyszh/29dv3ZF1kZODv+m1FQDkJUAAg8rlkVSR0eHLEDMceP6VZrsZCfzsHxZhOR0653t+QH+sqY8mBAnj4UAMb6zs4P5LlrhokRgFIUN4QA3NX2g2tp3Rg491ohkJDQslwNABvrgAQHFDG8P+bOpU1zYfgFYfJPxGi7CgXjpm7j8fVMAwpru3r1NrpMnyTTXrlnFtCQfN9TT5lF+njwQDMOUAZHaQWAqJkbvY+g1THZWJhOqFkBe09zp7ZvXKuGDHm4MQnNxwcA0HoiLYf0wJxxg/lmA/0xqbW0x4gMRYeD82XI/OKjwW0BfCSCA6+HDB0Y8wHz4zzJowgXzA6i/TxoPYc6b7SfTXrk8klpbW41ooJ9WPiYBZCZqlcYa0+A0QR8OO5cFHH8ui2tXr8jv4/MTx4+a3C/Q0O6jFkCVleX07Fk1+fvqXQZ7WwoLXkCNDQ0qrcz5MvW0AUo5o0D9i+fPzSbA3r55I59+jNm39zemqbQA2rF9ixHzfHJsoJsrP10T6McVUSxlAGDM8p0u87L9l80maUAw8XEGnhcEBlCb3owpAQTz8O7tG6ONxnhkifmaoUn56QaPmzauU/k/y5dG0IMHOdTf32dEi68JT6QbjDTQkACSNBrWDZmjDAI5vn//nmmlBMW++PtNp/eN2NRBYiZWb6I9PVyYk63kY6jXSgBNcXOihw/v09LIxfJ6faZPYzxARkPRUX5ms2b1j7Iw58/1ZypS2UH5GmrbX7HJq35cxpxpLYCS//jdLIJxKsLDguU5FwbOYeqyo72dHJkTLzm6mzasoYy7t02233Ztl8dP95pCSCOATyWAoObr6yTnUbkGvIZm4QBCikEJoJLiJ8x/4J/jiWgJQII/1Pvpk0nhfhGAdINUV1tLsTH7KcDfl/k8OLyIerAehOHBipzSLF9vGUAI9TlveN3Z0WGSH+2a8bcSQK7O9rQkPJgcWZBkS64ukyg311hjm6KjfM8makmYzFB4yELq6uo0yxATUuhCuX/UEkQiPQy1fFF43kpPNUsDpnDtz6tkGnP8fZgT2tjYYBSNSBGQFIHxSAxP5Vw4SS9fvmDzqQDk5cHCUuVipdc6VonmNLQAwul7cD+H/Hy8VPOgP+ZeGhFG1dWVKt8MdIcLINB/+rSaAmbNlE8+aPO14om/4cNxHpUAms3GSZ8tW7pEFQ0br1X9rRolgDhtPBFhXkq+yKLKyspKI5M9FF2bZUyFSQwB0XA6zQ2AkIIUJ2BpZLhJAKWmXDdLAwD6aZXBvs8N8GMm6MOH9yqhoSg5xdXpsw2aRkqYaTTQVwIIa8cmNzU3sQgNkRjfVC70aR6udP9+jgpEwwUQDtzKFVE0SZ8aASg3rF9Dd+6ks3RAZuYdFhHN8jGYcyWA5gT4ysCKighj+Ttz+6V93xSAsLZDCXFMcSCBiQMNB3+4Zsxm4wa942pnS34zvOh9Y6PZzUd5w9tzin4BE2j92tXs5GlN2InjR8wy0N/XR4Fz/SUadnDaFlFXVxdbgIuzvSwc5JIqK8oJjt5Qrbq6ShaiNTSQUugQYkN9PV08n0Tz5hicawAJjnirPgrFmOEBSEeval4SzAfPre3YtpWNVc6L1yeOHZFloQTQksUG8x84dxa1thgHGlpa/G9TAFq7ehVzW5AYxboAKKQYtA44p6F92pw+dULeTEQu97KzzG4+En+GRNUEOnXqOOurBVBUZDh9NJOGR3QmmyG7CbR5wzrGLHyLRQsMiT+oZziYWoaH+tvaAFLOBQ0ZzTPdehODRCbvM1wAZWVmyMDAhuGQmDrtx48Z8jJKAO3+bac8HgcO5SLOw+eeSgDBRMLXQva5vb2VlKYRftjzZ8+GRdfmxYtnqrwI/JrOzk7VbwligSjQrf5ppcw8zEtVVQX71VMtgACQ7KwMVS4Ji0OOIy5mv0wDavzC+XMsD4NQ/EB8tHwyIZyCAkPyTSkc8FNfX68yIfjcGgBCRPfGRAoC9OvragnZa27KUN/ifMERV17nCA1ZIOeXeB/UpdJSb8rjQQcaSXvtA+v7ZctGuZ8SQIgI+fxIJq5f+zPTwFoQQoO8fq1OpSgB5DbZgeWzMA7t3NlTBrr2toRABXvOeccPicL9QDEah4XPZ4Mq8tqfDZEYmNu9awczKxiMjqj0xsdHk5PCgd2wbjULv0G4qlJZC5P8qZneHlT8xFCqgIAvX7pIbgoz5TXNjWpqJAcYwoUzPNXdkPFG+AqHkzMLfrAIJMl8fbwoK+uuKtqzFECYBykC35meLDP86dNHmT4+Ky8v05sfaY2593NkAUOoocGGAGO6pzvV1b5jn3PBg0ZhQb5qo1BHU64Pr6urKlhExoGiBBASv0pNDZMTHx+jStq2t7fR/r27CWE5DzAgOyWApBuJ5TL/UBqQN59TOsB5Mm9wM44fS6RjRw5RdPQeQj0PNFkpA5Vn5ckCEaTi9+7+laL37aH5sv2XUvw+MzxVFXUtgNz1Wc3Jjj8QHO2dO34hhOuOiDD0ZQLMgYVDuGAEDacGTEpOqzQXTsq2rZtZ+v7Y0cMUHrqInB2kSGzm9Kn09GmVPN4SAGHjip88ZiG75J9MJDj48A2uXbvCyg1wqLmAvT3d2RUTzjvGr1FEl+gHEK1aEUUL5gVQ4uEEthlwUP15rc/elml/lGiQ0MNNiPNJZ432QgkgzJOdfVflR7H9mulN23/ZRFs2rWOpAM4n5NXe1spkZAwgw5VW0L19O10OGGAdlkdFyNotKyuTLl26SNu3b6Fbt9PoYHwMO1xyNT4nJ5tmek+VBcQZ0D7RJw/5AsU1Aa0JO5KYQEjwacdKf0vAWB61mNWY+AbwJ7QdrmIAfKbHS6cfhU1EjTUvX1oNQPfuZRNAySMkc/PjdF7987J8OiXeUSa5RpMn/SCXQuTxdsjwxzGB48AAMCjjsHoWi8YmsAiUh+5wDxYjR6MP5ZUAwlw4aBcu/K7OVymLqjwFYGfLDjCuxmDcUADC57iRgbIJ5uW8pNyUSkXp6SmUlnaTtv2ymQoe5bEKAsbI94GAwIryMlqzeiW5QYMoGAIxd1dHlr8BWNAXg3nTAujPK5dYlRvMKIEAOrh+APv6gS1KTQf0QBtFVeQltJEPFyi0Ja4yNDbUq3iJ3r+HbT7mwVWGOpOJRB2tWB4pbxjLROuLhpgbKQHQYVlxh4myIKW5J7J7SajHaWth4B0helzMPlUdC9oMWhS+HuijoYp/5tQJxiN4RWP0HWwJpZV79zLZ+vhnfr7ehDwZlzd8pr7+PsrOzpQ0ssK1kGXk6c6Kx7iIx+4E6XTsLhOnifxZZYVBA3HZP35cSG6uk2T5IHGMMkpjYz0dOhRPyX9cpISEOCosLGD8yADizMHuw7P/PeksxUbvo7jY/XThfBKVlZWonCreH08tgK5eucSIAwh5ebl08sRRSoiPpfNJ59i3FYYTIkLQUPdZmXfZHSSYUhQ3UQx9VfNCBRzOy+vXr6iwMJ8VF2GOcKL4Z4anjiUCCwseEVpZWanKjKIftERDQz0LBE6dPMaKkseOJNLd27fYRoI3Az3DQcJ78PUgK1TQUWW/9McFKi4GL/pbnfqDh4AC2vPypT8o4UAsyznduZ1GiPZAHw4witpoJSXFzN/Uzol+KA09zL1PJ44nMnfjQHws0441L1+o14XAo65OolnwiB4XFbLCsJYmDgbKKnxuPHHbAHO1tDQRMvXI/IN/jDUCECeIAcrG3zf1BIDkU2RvSxxA6KukwV+bomHuPT5G+TTX19rvK+fkr4c3hyQ7Fl0BbEMAjtPlT+UNwuHNBQCrrxOD1ufpDKeP+nCY4scsgEx1NvfeUAAyN0a8//nNGQsyEgBS+HJjYcNGG49WARByNcjpwLlFS7lhvhY22gQg+LFME1oFQHBWX9XUyA2JLLExlm3MWJGfVQA0VhYr+LQ+qAWAhA9kkbUQABIAEgASpsn6pmm4MhUaSGggoYGGe1pEP+trKqGBhAYSGkhoFutrluHKVGggoYGEBhruaRH9rK+phAYSGkhoIKFZrK9ZhitToYGEBhIaaLinRfSzvqYSGkhoIKGBhGaxvmYZrkyFBhIaSGig4Z4W0c/6mkpoIKGBLNJA/w/svKhfpL0I0QAAAABJRU5ErkJggg==;" vertex="1" parent="1">
          <mxGeometry x="-400.96" y="590" width="91.91" height="60" as="geometry" />
        </mxCell>
        <mxCell id="DLSMKTJHFx1a7OPu0qnC-13" value="" style="shape=image;verticalLabelPosition=bottom;labelBackgroundColor=default;verticalAlign=top;aspect=fixed;imageAspect=0;image=data:image/png,iVBORw0KGgoAAAANSUhEUgAAAJkAAABeCAYAAAAwsba2AAAeXklEQVR4Ae2diX9URbbH8zdBL6zKJqDjOOIy895TZ+Yzo6MJSzYIiILoc0Hx6TgCYREEAoFsCAHccEfIvpKFEAIBApKEQOgs3ffeqvt7n1/drqYJTZYmjSR0fz7nc5e+t2531bfPOXXqVHUC4q94DcS4BhJiXH68+HgNIA5ZHIKY10AcsphXcfwBccjiDMS8BuKQxbyK4w+IQxZnIOY1EIcs5lUcf8A9hcy2bVXj3Or9eBOM/xpIkFLiXokQIvSsOGTjHy79De+5JtNaLA6ZboLxv72nkI3/6ox/w0g1EIcsUq3Ez41qDcQhG9XqjBcWqQbuK8hsW0LaUvU82RkRtoCQYWILWDxnC9hSxHuokVr0Pjx3X0FGwIRtQUoDQlqwbOlIGGhSmAo8vhfvPNyHREX4SDGHLLw3qfYBBcfN84AlJQKmQK/fQHdvP6729qPD14tOXw86bvSgvdunth03fOjs6UVXTy98vX3o8xsImBYs4QCnoAvG4G6WH4zJBWN0EeogfirGNRBzyATNnhCwhICptJCJPr8fzZe7cKj8LNbmFWPF1m+Q+OlXeG7dITz9dgEef2Mf5q7cgzkrsjEzIwszlu7EzGW7MCsjC4+u3I0/rsrG02/l4vn39yPx4y+QsekI3t/3EwqO1aG+7Sp8ARNCmHC0nlSaTwEY48qMFx+5BmIOmSVMWJaBix3XcbikCWtzi/D3j7/GzIw9cKfsgCs1C67kXY6k7IQnZQfcyZ/Dk/w5vMk7lHiWbIOWSUu2wbv4M3gWbYV78WdKXAs3w7UwE+6FWzA99XO89NEX2Fp4AvXnO2BY1HQWZFyTRSbgHpyNCWSOqaJjLtHZ40fB8QY88WYeXKm74UrdBW/qDrhTdsKVouHaBXcyZWSQES7Poi3wcJu0GRMpC7fATeiSNmHe8u3I+q4S7dd9kJKjDfHhrHvA1G2PiAlk0rZgCBOdvj4sXF+IqUv3YGLqHrjSdinICJo7dRc8KbvgTbm59d5Rk22HZwllG0KajNosKO5FW0DRsHmTNsOdtAmuxE3wLNqMf36Yj7PtPgjLUKb7tlqIn4hpDcQGMilxracfL/7nG0xI34sJKdnwpGfDlZYFd6ojntQseG8TAhfJXH4OzxLK9hBkNJlaaDqVRlOgbYF34Ral2dyJmfAkbYA7cT2eWZWFC53XYUkR0wqNF357DcQGMmHhx4ZLmLwsW0E1KS0LE1Ky4ErbDW9aFmat3Ie5r+di5oq9IW3maLSd8CTvgFsBFe6TRQeZh9osaZMCbWLiRqRvKETA7L+ld3t7lcTPjHYNxAQyhiJe+vQruNL3wp2arUCakJqN2Sv3YfcvdTh3+Tf81tmJhvO/Ye3eHzE1bQc8ydvhCjn6DlQ3Hf9oIXN8NfprrsQNcCetx49VTY5/JiSkkKNdn/HyItRATCA7396N6ew9ptEPy1aO/qSle5D1fS0CVj8MYagenyUt9AYMrMs/DnfyduX4EyzHNI6GJrsJ2cTETLiSMpH4n4PwmwzoErK46YzAxKifug2y24KYUTyy8swVeNL2wpu2G6703Qq2Z9/Ogc8wYEkbUgYgpdPQwjJRe+4Spqd/Djc7AkNAdqsftjUUzojkk1GD3ZRMuF9Zj6lLNqP2TCtMBZkVxbeL3zLSGogJZMfqL0I79hPSdsOduhtrso8rMzXwAxLqK9d78cxbOcPSZHcDmTcpE97EDcg+WupAFu8EDGyOmBzHBLLva87Dlb5POfnsUdJk/uPjwzCEk34d/k0IWculq5i5Ils5/bHUZITMk7gRmwpLIOiTybhPFt4WsdpP0OZRP0Af660+P5Lt0epWuNL2wJNGvywLrtQ9mLZsD0pOt0NwEJymioPfHHKSAoVF9ZiYvBPuJTujN5cMWwRFhzBumkqazUwoyJIysbGwxEkDj48CjKRZo742ZpB50rJUbIzOP8WTsgfPrStEfVsnTDXUI+C3DHxd3oTH1uTAteRzuJKjg8y7aKuKjREuLbcCNhCy4lAYI+qai9847BqIOWSMjVGTuVN2w52ShUffyMFru47h/fxipGz9DlOX7lShC08KIXN6lIP1LiP5ZHHIht3ev8uFarYSTaN+aTOpt/r8SLY0l+GazJOWrSBzxi5pPhn1Z4cgGPVP2QmvGmaKa7KR1PNYuTbmkNEvU5BRmwXBIly693nL0FKUIYy4Jru/cYvYu2SvS2uyaLZHq1rhoWYiYKm74bkFsODguMrGYEaGM0jOYSUvfTIOKS3eroT7zrEzbulesn3AeKUTJxsxZAeLgmneTu9Sf8f7u6nG7qcbFmQjhe7bqvPwMKOCqT0pWcoXoz/GYCuzLxzZ6Wx5HVN8KEt2KKgUWCrrwsm+8C7ejsmLt2BCspNLRr/MGRSPDrLMIGQDv9fYbcb7+5PfBhkr3jSZaGgp4b7BSL1lqTQZZrkOJW2dN3C45DQOl54JSgsOl1LO4EhZUEqbcYTH3JaEiTrP906H5PUdP6m0HncwYfGuIEvciPVfHIdpmep76lnt93czje1Pdxtk2nQQNhXPYrIfM0vV7CCaUU72YJzLvrME41+c7OFc68TFwu9jOQPFmUhiQ9gU515ud39XDdfi7XAzVBFM8RmJJnMzrywxLE4W0mRMZBSQ1kD3gGZUArYjTp0EP69yJeJB3JFgfxtk4TezAZi6zNx8/vIDlsBVXx8udvhwsd2RCx0+3C7dKneL+VsXOq9Flo4uXBwgFzq6bl7bcQ0XgrKxsBRuQrY4OnN5G2SFTpzMkgEE+i/A6LsAq78V0n8hJLbaPw/TfwmW1a9mTTlzBpj46A+vpvj+EDUwBGQWLDOAkxe78GZeKR5fk4fprxVg6soCTF6Rjykr8jH1VS15mPpqUFbkYuqKPCVTludAy+Tl+xCSjL2YMlCWZWPqUkemLN0NLdNTPoN3EfP5o3P87wSZ9J+HVfNfkOVzIMtmQpbPDsosyPJZkGWzYJXOQ1/14zDPvQPRd0b96DgkFX8NvwYUZNpEavMlbaHSYUqbr2B51glMW5EH19IceJblwrN0H9xLc+Beyv08eNNy4UnLgSdtn8q8YPYFQxbeoDBUQbnp8OvUa+bzO6nXoS3zyUIO/zZ46YMt2YaJi7c5jj57m6NhLoOazPZfglH9JETZNMjS6bBLH1IiS6bDkWmQJVNgl06GLJ6EQOXjMC9shmV0OW4AXQh5M8Y4/Gp/sK4MQaadeZrFrh4fPj1yEpNfzYVnWZ4Sb0YetCjYFHC58BK29Bx40vfBs3SvI+nZ8KbvVULg7j5OdnO20mhDZlU/Bbv0Ydhl04DSgTIVKJ0ClDmgWSVeWCe8ME+/CmF0Q0gjYmbJg4XQ0N/2JmRSwJAC1/sCSNvxMyYvL4AnIwfejPw4ZAqySbBK3DBLJsMsmwTj3KcQZl8csqEZc9bxZ0/RlAK9RgD/m1MMz4p8uJbvh2dZfggyaq/xpMlUjIxO/Qg0GU2mLPZCnpgEs2wOjM5v47Ofhg2Z6kWa+K62Fe6MHHioxZQmC4fs7sylYzad8cqRDyuNprnciI0MYTAUMULI7JLJQMlk2EVeiJJJMBuTYQpjGNX8YF/imEspcNVv4E/vHYYrY/+4h2zDwSJYloDsbxuRJguHzCqZBKNkOqxrvzzYBA3j2yeopZmEiS3fnYRneT48GUEtNl41WeJGbDjgRPxF/wVYVU9DlrFnOdDp5/Gtjn84ZJKdgGI3xOnXYUquu2EAv2NPkxECamct+pjb3/uVwOGirr4A/vjOQUxYcQCejLxxr8kyD55QvpT0t8KqXgCpHPvpQ/YuNWQomqTMJoonQVT/GYZxXc18su3fz3QSLkYI2J43btxQW+US3A+QCctC9YVOTFt9WDn57vGuyZI2YuuRUmf8tf8szKo/QJZNVnGyoUIYESErnQ7Z0wzLtnA/QFZZWYnXXnsNV69edfzO+wEyzn38sqIV3hVfwLt8P9zsVY5Dx59LFnBKnCdxAwqO1UNyXYzuMpiV8yDKp0COwFyGazJZ5IV1uQCWbd5zyLRJ1IP8PP7555+RmJiIzs7OmELGZ4XLYCY5gfMP38kvh3f5F/DSXC7/YlxC5nllPSa8komHUrbiTFsnLCsA0X4Qonx60FwO3ycLh4w9TaNpKaTov+cxM2bI5OXlobi4WAHFhv7ll19CkGkIBgMg2vd02Xo7WDkJXNnw6Q+/UXANBVko0s9o/wgj/r93CMObuBGuxEys3PZtaMBfnPsYdulM2OUPw1ZO/kDQIjv+t0LmhlE+A7K/S61nO1hl8z3dKNwOPA5/L9L+wOt7e3uxePFi/PTTT6pcvh9Jk0Uqa7jnBj5T36d9wOH4fQmNbR2YvXo/PDSXQ2iysQwZzSQXXTl+slmtwmj5O2DV/wMof9iR0ugc/1BwtrtMpS6xUe70YgNp51x1uLq60NTUhPr6erS1tYXy23hNT08POjo6HN8xmMNHzXX58mX4fD4EAgG0tLRg0aJFOHDggDrPvD8C9/LLL6t72QG4ePEifvvtN/j9/lvK4rWtra2ora3FmTNn1PP4XG16ueVz9DX8nPxM4XmFd/qeA88n/FhHf6wAnhUHxjdkSRuR/OkBZx0MKwCrbSdk+YzRgey4B/62z4cFGRuJjffll1/i9ddfx5o1a/DGG28gNTVVAaITRrdu3YrNmzff0ujXr1/H8uXL8e233yqf69VXX8WLL76o7n377bfR1dWlyqBPduTIEbz77rvgNUuWLEFubm4IMmrAXbt2ISMjA6tWrcLSpUvx73//G1euXFHX9PX1obS0FGvXrlWf780338TChQvx0UcfgZ+Bn5EabLivhNzjpzGRfti40WSb4V3IRfAoXKcsUy2G9/y7+ejo8sG0DBg3qmFVz4Yoe+iuIRNFHoiiiTBOr4Jtm4PWu9ZkbPD09HSlYaiR+vv7FRz/+te/8Ouvv6pGXLdu3S2QsVHZwATjm2++URqFzj0B4jHB4TXUZAQvOztbaTfeU1hYqM6dO3dOlV1QUKDgO3/+vNJw1JgbNmwAQaW2KikpURqSmpLA8TOePn0aSUlJyM/PD4VHBv2yYW8mbDnaAM/yA8Ny/MeCuXTg4uJ37E1uhGvhRizNPIIzbR3ot/pgBn6D1bRYOfx0+u/WXNpFHshiF8yGJcOKxRKErKwspZG4T/C4JTDUQOvXr78FMu0Dcdvd3a0goybjMQEgZOE+GR1/mkuaSJZLs8eyX3nlFRQVFeHSpUvKj/vuu+9CWpLXlZWV4aWXXkJzc7PqPFBzEVw+R5tRhkaoAfVnCuNo0N2EDwtr4FpxcNxAxpnjExZyRvlm/PnNbOz6tgzXun2wTANG4DoCpzMgSqdDlM2BKL97TcbepVXsglX7d0imbA/xYoNGgow+E4GhNqFJ/fDDD5Um0w3K7Ugg0/4cn0ffjFroxIkTqKurU1rt1KlTCkK+T6HvRU36448/3gaZvoamNSrI3i6ohCvo8I+W4+9mwmK6k7zo4czxtL1KOLnXk7YLs1Zm44k1efjvtQfw3LoDeGHdQUc+OIAX3j+A59dS9uOF9x15/v18KFmbj+fX5jnyXh6efy8XL6zNxQvv5eGFd/Lxt/fyseiTQqzffwJ15zqCS7r7nWWq+i6hv+llWGUzISpnQFRMg9ROP7dROv4KsiIXrKqnhrXCNhuMkNHscV872jRJycnJWL16tYKM5nLTpk0hLcJrr127FlGTEQxCyGvCe5caUEJGzXT8+HHl6P/zn/9EOGT8DDSl1IDff//9LZDxN6M/Jz9bVJCtyStz0nqGEScbrrkkZDpZkVvOrXzug0N4L68IX5Y3o7WjGwHOflL/NMJJJlwCnZNVGDXnqtlCre1q2gJ3EsMWcETCsC2YNtc+s2BKlsu1zwIwZT9M8xqMqz/AakyCKJ8GUfEw7IoZjowSZLLIDVn1hJoAM4QiUw2mIdNmiFtqKYLwwQcfhMxlZmZmCDJeQ8eecA40l0NBxo6G1mQXLlxQMBHG8OdrDdfY2Ihjx46pz0JzyZeG9S4gK48ZZK6U3Zi3ugD/OVSBnoCh/ryBkzEoBEL9tU3wb2xu+Q8lBZ8JaRuDiq2GcgimBWmZsC0TwvTD778K0dcMq+MrmI0vQlTMUmJVzVC5/KMNmV3sgV3xh2H1LqkVqA3o+LPxaRopNTU1yidip4C9t40bNyqtpiP3vI/hC/YENWTsMKSkpODo0aODarJwyKgxCS97njzPcvn8gwcPKj+RHQX6ddonGxXI3t5fhYnLnUj/3ZhLmkSmX7vVKtdc6Xof/vbxV2i8eAWmCMASfgREAGbfORjtuyDPvgF5Jh2yZTHsllSgJRX2mWTYzUuA5iVqazfzOBn26UW3StMi2E0LHTm1EPapJNhNlETYjf+C3fA3yJNPQVbNhV05G3bFLKW5JDVYeVCLqf1gjOwuzCWHlSR7mOVPDKt3qSGjI84Qxr59+7B7924FyyeffBKKV509e1YBRT+IcTD2Fhm+oHNOyFgOYdy2bRtWrlypICVA1FA6TkYNRG1FmNipoLnkMUMVvIc9SvppfD6d+qqqKgWc1mTsafI5FN7Hz7Jjxw61z7KH+0r4v8IaTMzguOXdB2MJmIIsfS9e/uQQLl51sgGU2eo6Cqt1Dcym52CdXABZ9wRsLfV/Aur/BLvuj7BPPg4MlNpHgXCpmQ9QqucDVfMcqZkHUKrn3pSqOUDlbKBilhIHtpmjay6LvWAYQ1Y9A4mhlwdlg9FcLlu2TDnbX3/9tYKIoQs2qjZh1C70kwgUQxDsQVLb8T76Tfo6+mnUPDzH3iZ7jwSHWk7DQfgIGHucvI9lcwCdoQpCyV4ng7a6TGpMvseArT7HeyoqKpQvx3Mse7ivhK1H65W5HA3ItCZ78p0DuHStBwEuAMw5i115MBuegKh/BuLUAohTT4cAk4RrzEPmgqj9H1hD/Lq1b0PNQa2kIWAD6sbUDaiP9TXc0m8jZFojDbxP38trw0Wf5/PDywvfj/S88Ot1GeHlDhuynF/PYOLy/Sraf3fmklPl9mDSslx8XdmiBqCl8MO6vA1mw18g65+CrFsAm1LP7ZOw65/EeIBMnpgAUZ+k/KLBKl43mjZ9umE1fAO3+n0NA4d2OFbJWJZu7IH38PzAc7E6Huy7hr+XwPVdVWrPXQ4rcY1YQvZufikCBn2wfhhdhTCb/gui8U+QDU/BrnsKqHeEgNkNQRnLmiwYjLWa3xw2ZHv37lURdw0RIYj04vt0xJkjdujQITXEQ9PJmJqGKdJ999u5hMYL7Zi56tBdj11yyc6Zr+Xhiq9X/YeR1dcKo+klyIYFsBufhk3I6heMQ8jcsJjuc3GbWo5qsAYmTDRxDQ0Nyi/TkGlgBmocnmdI4a233gLHMjm0w/spfO9O9w0sZzSPB/t+d3ov4Vp/P55d981dQ+ZKz0Hipu9VAFTFqzr3wWx4FrIhCBhhG5eQeWAVT4bZXQE7wureAyteNzgB0/saGG55XvtaPOY+NRd7knxPn9PXaFD1VgOot7o83scywsvh8/Uzw8vmPq/je1r0+wO/z3COE0whsLag/K7zydzpe5F5pEz9tbNlXIX/7MsQDU9DNtIkPhXUZOPTXBp1L8Ayu9QiQMOp9IHXsLE5WM3eJP0uRujZw2Nvk71EAkOnn71D9iY5BMSwBLcMmOqBbKYLsQdKIHgde5knT55UaT8snz1P9iQZe2NPlGUynMHzfBZ7mOyJcsv7WA4DwLyeZpvgRfNKsCwTh0Lp18yKvXP69eAR/2z8VHveydViIPTUkxAn/wyp/K7xBpkXnEQCTvQtmgRxPhMBacAeQbc+vLGoLRiJZwPTJDJOxVQbhi2Ya8aYGUMZPCY4hIp+Gq/llvlgHOCmaWWYgTAQjOrqagUm7+UwEstlyIKD4+Xl5WqIiWOcPGaPldcQRoLOcgmZfhbL5+eL5pUghIHK1nZMXX0EahLJIBNJBoPMnZ6D05e6nL+1uVGMwKlnIRsX3NRiyicbH5qM45V2sRfMwBClD0H0NKofFxesieZFyKiVqFEIiY6JUSsRqh9++EGdZ4IhjwkVIaDm04AQIELC8wSWsBAcwsFhJ95L6BhwZVyNW0LJ+BzL4HXUaixbl0+4OdzEMvXoQDTfL4FDPFd9/XjsfwvhWvHFoPMuB4dsH1o7fGr8Tl4/BuvU006PUpvKcQfZJDWTXNY8p6bE8T+iuIhfNC9CRnPExqUJoxYidNQc3GfglI1M08V9mlOaQ4Yy9FbfQ5NJWFgeNRI1FU0jr6UJZhnt7e3KPNLU8hxhZbk0zfT/eEzTzHt5ns/gZ+HnjOaVwH8FoazZWwT3srxBZysNBzIGJGX3McjGpyAbnoFNh1+DFgxfMIwxlkMYjibjuhiTIM++pwbo+YdkQ8f7IzeRdsC5pYmisEH1lvvhMth5/Z7e0nTq8sPLGLivrx94PvyY5UTzCq3qc+bKdcxYVQD3svw7zlYaDDIuHdXaecNZ4vMGISNgf74ZvhhnmswsmgqrcgFE/8Vo6v2BukdBJsFfUD8yv62DS8+5jLBMQRyymwuumExUbFmrskkeKGKi+LJBTSYREBbOdV7Hw6v2wxt0/idlcLkoZ30yZzG84FS4O0yJG/earJgr+kwBMy+M0rkwrnG5g2iNZBStNUZvCUHGSb6m5ccPJ9swbWUB3Bn7MeGW9cm44uKDDZlVxlTrSRClbphteyCs6J3hMcpLVB875JMxadASAfgDBnb92IhH3jyo/LO4Jgsu51k2GVbJVKXFzKYVsAJdsAQTMeN/MT0UeQoy2E6KLbvgXHXRMv04VNaMv3z4JbwZuXBl5MMd1GLuZRwI5/qw++BhHn9QmNPf0tmtpupb3b+OquMva+dD1DwKq3YeZE1QqudBUqrmQVCqg1L1CETlnNtEVjCPbCaYuKhFlD+MkHDhlNJpEEqmQpZOhSidAlnCc1OcRe8qZsNoXg3D6FH15CzkHF2Pa6iGGU/vO5CFfSN2Uy2u22/6cdXXi29qL2PxZz/joZW58CrAuPJ1DjwhcTJiJ6fvxpkOn5NaPcqQ2TWPw6p9DLLqccjaPzhS8xhk9fygELa5jlQ+Alk5JyiPwK4MSgUzZLmE+iwQOCVcXqCcS6vPhCx7WIkKrpY+5Bwz0Fo8DYGqJ2CdWwvRU6/W9DdkfB3/MGSG3I0MmYqdOZM5LLMfftOP9t4+1F3sQkVLJypaOlBxtsPZtrSjoqUdpWeuoNcfUOZDdP8yqprMOP8uLF81RHcNZE9tmNTA7qmB9IVLNWyfI+p82Pu2rxa2rwa2r0qJ9FXhplRC+oJyg9sqiBtVEP3NEFaXmpxiqxgWEzGjG14ZsjXG6QW3QTYa39O+cXxUITPbNkNw+U3ZH8pcoMaNLMG/p4nwtzq8nsFF/hOJzb+6kdEN+I5GHT1IZYwNyM69CtF5GOLaEciuoFw9AhmSw5BXHRGdhxCSjsLQvtVxEKLzILg1e2th2tEPAz1IgIzGdx0TkMnaORBVj0HQL7vN+adfxk7AXCWCjr8WdgAqKLMhKmZCVMyAVTETZttnKohKrRZ/xb4GxgRkt8xU4qylu5qtNAuybauaQBztgHbsm2V8PSEO2fhqz/vy24xdyDjnMjjv0q6cB7tqHmyazKo5sKtnw656BHbVbNiVTmzMmXPJSb5xTXavSRz7kFXPh6ie4wRjTz6LQP3LCNQ9B6tqAWQFY2b0xzhz3AEsDtm9RgzOfyuN9mNHO4QR0SfTmqx6PqzaBbDac2D4r6hAsmX5VVzNPLsUsmKWcvahIv5xTTbabT2c8mKkyU6ohEXBfLIYJS3aukdZNRfGhY/VP4Kov7Dm3z1LrhIkIXyNMGufUMNIHFJSJpPR/batKrjK//WMv2JfAzGBTPqKIRqfhGh4NnaQ1cyHrJkNi2OZvXURa4qRebNldRCyoBYrnwlxmSGMka17GvEB8ZPDqoHYQNZbB4MTehuDs5RikH5tE7Kq+TA4MO7vivhlmVliXNqgxik5bqn8sYqZMH7LVeuXxTVZxGob9ZMxgUwE2hBo+itk/TPODPJYQFY9D1bVo8rhNzjWSBPJsUWVD0+TKSCsXhgtr6lArB4UF+VzEbheAkM4i+6Neo3GC7ytBmICmc1F7qhB6jh7XM8g5+SR0ZsSZ1fNh6glZLNhtH4AW9xQkDEnzlID2QH1tzZW9QyIcvYwH4Ysnw5xKglC9KkVHAli/BX7GogJZByuMfvPQjT9I6aaTOWWVc+BVf1HmOffgdl3Gpyaxr+0sa5+hUDDXyHLuMqis04s9/uvHQ9qO84AikMWe8RiFcIgZKLfGYw+9bxaD0NyFZ9RXNWHvUslajXFYCC24XnYp1MhG1Mgqpl/RriccUuToLV+BMNylg3XGRz3opLH2jM4/5LzMblcwWjI/wPwH5GwTQhpxgAAAABJRU5ErkJggg==;" vertex="1" parent="1">
          <mxGeometry x="-400.96" y="650" width="92.78" height="57" as="geometry" />
        </mxCell>
        <mxCell id="DLSMKTJHFx1a7OPu0qnC-14" value="JQ 1.6,&lt;div&gt;&amp;nbsp;Kuberctl&amp;nbsp; 1.26.8,&lt;/div&gt;&lt;div&gt;Helm 3.6.3 ...&amp;nbsp;&lt;br&gt;&lt;/div&gt;" style="text;html=1;align=center;verticalAlign=middle;whiteSpace=wrap;rounded=0;" vertex="1" parent="1">
          <mxGeometry x="-430.01" y="720" width="150" height="70" as="geometry" />
        </mxCell>
        <mxCell id="DLSMKTJHFx1a7OPu0qnC-15" value="User Device" style="text;html=1;align=center;verticalAlign=middle;whiteSpace=wrap;rounded=0;" vertex="1" parent="1">
          <mxGeometry x="-449.99999999999994" y="847.5" width="60" height="30" as="geometry" />
        </mxCell>
        <mxCell id="DLSMKTJHFx1a7OPu0qnC-17" value="User" style="text;html=1;align=center;verticalAlign=middle;whiteSpace=wrap;rounded=0;" vertex="1" parent="1">
          <mxGeometry x="-455" y="1020" width="60" height="30" as="geometry" />
        </mxCell>
        <mxCell id="DLSMKTJHFx1a7OPu0qnC-20" value="UniMelb Network Gateway" style="html=1;whiteSpace=wrap;strokeColor=none;fillColor=#0079D6;labelPosition=center;verticalLabelPosition=middle;verticalAlign=top;align=center;fontSize=12;outlineConnect=0;spacingTop=-6;fontColor=#FFFFFF;sketch=0;shape=mxgraph.sitemap.security;" vertex="1" parent="1">
          <mxGeometry x="-10" y="990" width="150" height="80" as="geometry" />
        </mxCell>
        <mxCell id="DLSMKTJHFx1a7OPu0qnC-23" value="" style="image;points=[];aspect=fixed;html=1;align=center;shadow=0;dashed=0;image=img/lib/allied_telesis/computer_and_terminals/Personal_Computer.svg;" vertex="1" parent="1">
          <mxGeometry x="-180" y="898.2" width="45.6" height="61.800000000000004" as="geometry" />
        </mxCell>
        <mxCell id="DLSMKTJHFx1a7OPu0qnC-26" value="Operate" style="text;html=1;align=center;verticalAlign=middle;whiteSpace=wrap;rounded=0;" vertex="1" parent="1">
          <mxGeometry x="-340.01" y="1005" width="60" height="30" as="geometry" />
        </mxCell>
        <mxCell id="DLSMKTJHFx1a7OPu0qnC-27" value="Request" style="text;html=1;align=center;verticalAlign=middle;whiteSpace=wrap;rounded=0;" vertex="1" parent="1">
          <mxGeometry x="-80" y="1005" width="60" height="30" as="geometry" />
        </mxCell>
        <mxCell id="DLSMKTJHFx1a7OPu0qnC-30" value="" style="image;aspect=fixed;perimeter=ellipsePerimeter;html=1;align=center;shadow=0;dashed=0;spacingTop=3;image=img/lib/active_directory/internet_cloud.svg;" vertex="1" parent="1">
          <mxGeometry x="1218.89" y="1310" width="111.11" height="70" as="geometry" />
        </mxCell>
        <mxCell id="DLSMKTJHFx1a7OPu0qnC-31" value="" style="rounded=0;whiteSpace=wrap;html=1;fontStyle=0;fillColor=#f5f5f5;fontColor=#333333;strokeColor=#666666;strokeWidth=4;" vertex="1" parent="1">
          <mxGeometry x="270" y="520" width="1080" height="770" as="geometry" />
        </mxCell>
        <mxCell id="DLSMKTJHFx1a7OPu0qnC-32" value="" style="shape=image;verticalLabelPosition=bottom;labelBackgroundColor=default;verticalAlign=top;aspect=fixed;imageAspect=0;image=data:image/png,iVBORw0KGgoAAAANSUhEUgAAAOEAAACpCAYAAADduFp7AAAgAElEQVR4Ae19dXxcx9V2bIeTBvo2Sdskb5s2pbeBUtoG26Rt0GFJlhliiilmZoyZpF0xsyVLsizbksVgMTNLliy2ZFtmyPN9z6xmdbVegVFWev+4v7t779CdOc+cM+ecOXPXqbYz+L5eWwPTcZeplXrdsX2gxV1mWixwjf3e0mBvsHVXbxL11zQqCO/0CUgFIbGlgvCO5RJ3OoBuRvtUEKogVAHYx6K6CkIVhCoIVRDeAToRVRxVgdiHQFQ5ocoJVQD2IQC5plRBqIJQBaEKQlUcvbU2StVEcTM0mLeyDJUTqpxQ5YQqJ1Q5ocoJ/7s9elROqHJClROqnFDlhConVDmh6juq2glVbtiH3FAVR1VxVAVgHwJQtRMSgCoI+xSEWp2xmgZrcRkzBch3yns78erzyXfG8hum7SpNXz1XOaEKwj4FoQbPTLDDvWaWGGCi6YIjWeIuUwvcM0SLH462xbMTHfD8NBc8M9EeT4yxwf3mzGeBu0y7yq8D4ROjbTCgS6D3FQB1bVP3E6pbmbog/ltNmBo8NtIGMXmV2OAXhxdmuuF/Rtvhh6Ns8cspznhzsRdGbA/GSu9YuMbmIDKvEunltSg+1ojq5haU1DYhp6IW8QVH4RGbizW+CRi1KxhvLfPCc1Oc8OBwDe42tcCTY2zx6boAxOaX48UZTgZgJRciyHl1B+Jb2RcqJ1Q54W3nhDrR8T5zLawOpaGu5QQqmo6j5ngLCqobxVXZ0Izm06dR1dyCIwXl2JOQj28DEjDfJRpTbMPxtV04ptiGYb5LJLYFp8A7Pg+xBRWoampFy5kzqGxsRnplHVLLalFQ3YCW022inoSio/jROOt2wFkKLvqXhR6Y7RiBZyfY9dFkpIJQBeFtBuGDw23ww1FWGLzWD9UtLRi1cz+emWiLj9b6Y4p1GCZbHcbHG/bhheku+Ml4Bzwywgp3D7HAXWbGRE6NeH6PqQaPjLDGTyba4eXZrjDZFIDF7jFY6ROHydah+PtCT7y5yBP1J05iluNhPDfZHtNsw3CksArHT52Cc1Q6HhnOyeFWcryuylZBqILwNhMegRWSWYoDqflYvycag9f649lJDrjbZLdCNNTiLhMSrVS4KO9KYlY+V4JIt04cYKoBr7u/1OKp0VaYZX8YgYm5aDjRhta2M0guqsCBlHxYHUzCL6c4qiDsQ6O9aie8jUB8YrQtploHIrGwEmcunMP5ixdw+vw55FbXY2dQIobvOIA3lvrg5bmeePorOzxgbo1Bon0aDDDR4smxtnh6vB0eGGKJgVzLmRB8Ggw01eB+cyv87yRH/GP5Hnz6rT/Gaw5hnU8MwjMK0HL6NNrOnUFSQRkOZ+QjqagcradP4XjbKYzccQgDu1QMKUF/K36rnFDlhLcLgCZaPD7KFnsT8mAfloTEonLsT85BbG4J6k6cRNu5c7h46RIaWlqQX3UMKUWVKKyuQ1nDcWzYG4+7TSzx6EhreEUmoaimFuUNTRi1Yz/uG6bFQ8MsscAlAvlH61HZ0IDYvGIcziyEf2IODiTn4FBaLnwTMhCamY/S+no0nTyJnMoaRGUVYv2eSDxIDasKwj6N9qZywlsORC0GDbHEMs8YNJ06gU/W+2GBayTazp5Dy+kziMsvRlByDrYHxiM8oxDFx+pQ13oCqcWV2BOTgpPnzuCXk+3xi8lOSCkuQ1JRGWJzC5FYVIa/LfLAclFuG4KScxGTVyIA3XDiBFJLKhGUlI24/BLE55XhUGo+NPtjkVZcgdqWEzjWchIjtu8TImvfrAfbRW415KEabe2WE6CJFq/MdxWKEZuQVNw3RIP7hmjxlWUICqsb0XSyDW3nzqKkrh6ZFdXIKq9GVE4xiqrrcOLsGRw/0YqxmoN4abYzWtpOo7yuEVHZBfjG9iAeG2EhNKEW+6KQVXEUhcfqEZRI7peH7PKjOHX2NOqOtyC5qBzW+6OQXFyO1NKjiMwuwua9UfjLfOc+5IIqCCmKquLoLeeCVmLdRpugS1Q2Co814pdTaK/TinXcErcIxOSVIyqnBP4JWdi5LwpH8oqRWV6NxhOnEJ2dj6zKGvgm5OPnkx2QkF+F02fPITavAo+MsMEfZ7mh9cxpnD5/Fj5H0uEUcQSVTcdRcqxOiLwhafnIrqgRXJOckYCsbm5GdG4Jdu8/gj/P9VBB2IcKGRWEtwOAog6d8uQPs91Qc7wVc50j9QqVR0aQIx5AVG4psirrEJFVhCOF5YjPLYH1gWiklFbhwuVLaG1rw4htQfj7fHeU1Naj/sQJmG7ywe4DiSg5VouzFy+g4cRJaINjcDizAJV1TTh59iyOt7Uhu6xCrBWj80rgHpGMuLxCbPOPwljLgxggjPVKzeqtUL50V6aqmFE54W0DohXuNdMgIKkQ+1KKca+5ThR7eKgFTDb5YbXHAWzxj0RaSSmSCouRXn4UB9Ny0Hb+HE6fO4ekolJEZBfBPzkPp86eQUxeEQ6k5aGqoRFlDQ2IzytBdsVRBCVnwT8hExmllUgtLhci6rHjLUgrKceBlBw4HE7C9sA4hGcV49mJNEvQnKGCUHKkvrqripnbBET6h67fcwSpJdV4dJStEEenWh/Aet8wbA6IwqerveEUloyMMoIpB/tTc1BWXye0na1nqMApQVhGLvxjUxGWXYTUonKEpBfgQEou0osr0Nx2SpgiKhuakF1ahZLaOtQ0NYurtqUFmgOJ+MscNzhFZCOmoEq4td3y9XCPfatyQpUT9kgk3YlS1/aOdr6Z9hHIqqzFD8fa4oVvXLDKMwxrvMLx9EQb/GSMDbbti8HWgChYH0oRYmd5XT3K6+pwMDUHPnGZuHDpIs6dP4uLly/gYEYhIjLz0NTWhurjLUgsKEVCYSks9h+BT3wW7EIShJg73iIQ/1ntj5997Yj7hlnhUHoR/JKLMEA4fl/bN9x80KogVEF4O0FoqsEM+3BkVdXhh2PtMNDECi/NdBQuY/eZWWDUjiAsdT+AYTv9cbeZBf6zag8WuYYjOrsIjSdOCo3o6bNnUVh5FFX19bAPTURJbSMuX7mMK1cu49LlS6htaob5tn0YOMRSGPkHmWkw0KzdA8dEiweGWSM6txw2hzP72DQhwa+CUAXhbQUhbYXxSK84hsfG0GGa6zENBplY4i9zPbB1bxi+1u7Dk1/xnVYPknG7gtF4sg0RWQVIyC8W3i5hmbkITskSoublK5dw+fJlYcD/xiEU95juat8ZcfVa7x5zawQlFyCAnLDPDPQSgLyrIFRBeBtBONDUAs7h2QjPLsUDQ61xt6kWj4/Q4qmxtvjl10748wJ34RWj8xttJ1BTLR4eaoXPNvjgQHImaluOo6imAXuik4TBfl9CBtJKjyLvWCNm2BzEANOd7eBWEnrHb+4ptA7NQGJxDe4d0lfblzrao4JQtRPeVqfl+4dpEJNfCbfoHAwytcSTY6ywJz4Hfkfy8Nf5bhhkYqF33B5kJjkhuZkWDwzVYpNvFEJSsxGbW4TGU224ePkSkour8Jd5bnh2oj0GdHL6VhK64jfXpY7hKDrWgKcEx1W8u40TUsfaUuWEKie8jYTH3RKltfVY6BYtnK/fXOop9hHSuXr49qB2J2qt2FUxWXsQ767egweH6jbcPjZCg6Jjjbh8+SIuXLqAM+fP49KVyzh17izeWuKtF107iLsrcGnx3hpfYVN8aY7HbZ2EjLdNBaEKwtsIQnqnnDxzBp+sDxDrsXvNLLDYJUzsnn9oGDmfpbhG7QhGy+mTyDtag59OsBXruz/NccH5S5dw5bsraD51CgU1tbh05RJoA9y4Nxb3mnOzblfAUzw30eK3U53RfPos3lm+p3d5elPudadRQaiC8LqJR0HYvSzj4w0BoL3v5Vnu7QZyrTDaU1ki1kamlhhkZonB6/yQUV4N79gc/OJrOwHYsRaHcOrcGZw6ew7VTS3IKD+KS5cv4tLly9jiG4NXF7vgLtNeANFEix+Ps0fRsXqM14aqILwDXNZUEPYSQL3iMj2UNdn6MMrrm/CziU7tbmuGQKYpgVuTrPHcJAf8fJIDBproxNE3FntgqXMokoorkVZaBe/YLBxMK8GFS5dQUd+I5e4h+PlkW9xrzh34zGNYdvt/Ew0eGmGFyJwKbPA70t6Oq7WoXebvqtzrfq5yQhWE1008XRB5N+Wt8klASukx/M8om3YFTG/L0GLI9n2oaW7BKs9wTLUKwLjdgdgeEIftAbpNu9xBEZSag70JOXh7mbfwxtFxV8M6tBhoZgGvIwVwj8nTr0NvH+iubo8abU2NttY11+gGUNdGtJztLWBxMA1RuRW4f6jOX3OgmQaDROwYQ05kabDTXYOP1vkIP1CKoy4RycLJOzSrDI6Hk7Hc5RDOnD+Hy1eu4MqVK2Kf4vagZGH6uHqzro7b7g5OxeGscgw03d0uChuC43b9VzmhyglvGtC6I1odCK3DMhCcUSbcxX46wR4z7A9jkvYQfvKVbSfOePcQLV6a7YYnxzqIkBbkaG8t80Rwag5qW07i8neX2j1kLiKlqFy4ue0MiINtaDqOFFTh2PFW1DQ3Y2tALB4camNkktFi674UhOeUt/uPGk4C3X3LzX6nglAF4W0G4YGMcgHCfyx2Q/PJUzhxug1/nMU1YgdxP/e1HeJyy7DYOQz3mOm45osznYSPqH9CtlDGkOOdOXcebWfPwjM6BZVNLSLcYWRWKdZ4hWGNbzS+3Li3C62pFuv8EnGkqBo/GNZR77Vx95uVTwWhCsLbDMKDGeVC2fJ/0x1wOKMEfvHZ+M10ajY7uNEDw6wwcsc+vLnEp921TCucvc9fvoDQjALE5VcIN7WTp08jo7xSaFxtD8Sh+vhxXLlySShrtAfS8Mhw3Ybiq8GlxY79aYjOO4oHBMhvFqCupxwVhCoIbxcITTXYEpSC+IIqPCzAoRE+ok+MpR2QxNsBwo7ffKa7nh1vgzMXLoj4MdwRT7GUDts5ldVIK6sSkdTic4tx4cIFsS48d+EC1vjE4z4RJl+3DpT1MEqbc1QuAlNKMEj4jyrrvh4g3UgeFYQqCG8LCHVEOtsxElWNx/GciPF5LYRP/1ELHEovEQb6/Oo6uEZmCI5H1zW70GQRd4bbnGg3vPLddwKIradPY8zOA8JHVaeg0QH6ByOsEJNXge37kvSc9mpueSPAupa8KghVEN5GEL67yhenL5zHl5v9DThfT0RL8FhgonUwqpspcl6BU3ga0kprBOAItmVuYcKYT48abms62XYabWfOoOlUG95fRc8Y2g91HPH5rx3QcPI0hm0L0nNaFYS39rBaAq27S91Zf5uA+L+TnFBa2wS3mBzcPcQY8Ag2De4dqsXfFnjiqXHWoCO3TiS1wJb9iUgrKsXFixfR3NaGLX7ROHHmDC5fvoTCmka4RaYJABKEFEeTi8tQXFePotomPDvJXr91aszuEDS0tuHl2fTcMdaO2/lM5YQqJ7xpRKgDkFzDddw7CJobbG1CM1DfegK/me7aSSMqwMBo2maW+OLbANS0nMChrGI8MpL5dZxwoXuMACA5IfcQVtQ3YYlrOM6evyCAyLAWfPdduzjK6N7c+Jt3tA6BKYWgwueh4dZCFI3IKRcRu68GIeuSbVb+ls9u9l0FoQpCPcHdKHFpRPj6f63aixdmu+N/Rmlw31BrhXsaCVqLVxd4igjYdqEZuE9wQwWhm1jhniFWmONwWOykP1JQgT/PdmjnYFq8utAd5y5exHffXRE7KCJzKvG1daiI3H3x0kWcPn9egJBAvHTlihBF13iGobSuCX+Y6SB2bny83l8Ejxqz6wDuMlG0z0SD+8y0eHiYNR4baY2fTbTHD0YyMveN9ktP+VUQqiC8SSDkDgiX6Cyx1Yi7G06eO4+o3DIsdY/BizPdQQM8/ULvNrOEbVi6CPb75caA9i1ICiCaavDUOAcMXrMHry/2xCBTCwGe+4da46fj7bE1MAHesXlwj8mC6aZAzHUMF9G0g5IKEJSUK863oGM3zRgbfWPB49DcorNw71ANHh9lI4z5Ue0xSyn63j/UCq/M88A85yj4JRagvPY4zly4KID6r1W+Cq7YE5iu970KQhWENxGEHnF5HeLgd9/h8neXcfnKRVBxssQ9RnA5csNfTXdCWUMzGAHtpRmOiuC77WA0sQSPO3tmgi2+3BSEHfuTEZpZjJzKWpTVNaCivhkF1fWIyiuHS1QWVnhF4P1V3jDZHIADaQVILa3B6J1BCEgtwiqfI/jJOHvca66BJjRVxCt9YxH3EbJ8e7hGZuLMhfMiTo2IVfOdTpyle9ybS726dwa/KX2nglAF4U0ipB+OtkZa2TGd/+Z33wmRkWKjbv12GVWNLXhuqs4oz50R3MTbeKINKaXV+P03ju2+ohqxbnt7uQ+0h9KRXVmL7MpjKKyph1t0OkIyiuEUnoqDaQWIzCmBR3SKOLMi72gtimrqEJBUgMUu4fj9DCdh/7vHxEK3b3GIFVZ4xODkubOY6xIujs3mKUyrvONx4fJF3cTRvpbkepIXD6cZuZPa01sdAkMFoQrCGwahbjOu6ZZ9aDt/VhjQpZ3u0uULOHXuHJJLjsIpLBVPcwtTu/F9kKkGU7WhOHH6NLIr6/DiLGe8NNMVjuEZaD3Nci4L8TIut0RoPqfb7oPd4RRs9o9DdmUN0surYbE/Dh5RmYjIKhbnV6SVHRWnLkUXVOGTDf7gacCPj7bBxr0JaD17Fpv9E3VucCZWAohjdwUhpYTnVZwVih0JQN7pDE5QM6xGh6LmekXO7vKpIFRBeBNAyJ0Q76zyw0TrMGzZl4zY/KPikJfgpGz4xGYjteQoSmsb8aIinMSAL61wj6klpmhD4Xg4DSs8I1BWfxyFNXXwickUUbcDEnMRmlGIWIavj07FofR87InJgkdMNg6m5cH6YBJcIjMQmV2CrIoqrPAMQVhWgdjOdLSpGVYh6RhnsR8ZFTVY7BYt1n86zqabOLirg2tGp8PJ8DuSjYqG4wKQKcU12HOkEJsDk/CcODejOxDd6DsVhCoIbxiESiLUYuCXlnhkuC1enOEkTliikoZ2O4YsfGmOp4KrUFGjwasLXBGdUyJAtX1fDKgR3eAXDZfwVHGWRHljM8objyMksxjO0dnYFpiIDQEJsA3LxP6UIuQfrUNZYwMSCkqxJyFbnH242PUg3KNSBIBL6o5jlUcUHh5GTWcHVxtgZgGHiGwhelIkrW1txQKXcPx5jiseG2WjO4C03Xlc5YTdG9oJohu9VGP9TQYij6j+02w37AqKR0pxJc5evoCGkyfx0lw3scYaaKLFsxNtsNY3Vqz5wtIL4HA4GSu9w+ASnojUkiqcPHMa0bmlmGS5Hz+fZIcHRuhOcdK5n+mOwaZm84nR1hi8JgD2h9NxrKUVaWWVcI1Mw5aAOHE6U0F1HaqbmuEVlydE3oEinqlWOJFT9L105QLazp8RnHDU9r16cVmKzbq7cqK52b9VTqhywpsKQEmgGozdfRCnz51FcnElvGIyYBOahOn2oVjhHY/ApCJxFuGBlDzsCIiFV3w6Khqb4BmditqWZrG7wmzTXrhFZ6O29SRco3Pw4iwXEEAddjudSPnCLBfYhKYjtewYVvvEiPPna1takVtVK3ZXaA4eEV41Zy6eQ2VDo/A/XewahS82BWKxWwQsghPhHJYqQvMzrg2P3b61nE/2kbyrIFRBeItAuGN/IsIoQoanoLCmFklFlTjW0oLI7GJxOpJXbDrsQ5NQf6IFKzzC4BeXgdrmVsx2jMBDw6wEGH481gYzHcJQWNOAM+fOwDEsHc9NcsQAMy2e+9oR1qGpOHH2LMrrm7HIPQrPTLATO+XfW+0rzBm5R2vAetrOnoFNSAIs9scjJrcMjW1tKKtrRHljExpPnkBQUh7yq2pw9sJ5PDaM8Wk6xNZbD0gVhCoIbwEIGWk7uqASW/1j4RWbga17o3EwLR8OYcnQHEyEdWgK6k6cEAA9cfoM6lpaEZhciD/OprhqCAANHh2uxRyncHHAKE/i/XZvHIqPNaC4thHzXKLww1FaDBABoTq4y4/H2WBTYJIIiUHFjmtkKjyjs2EbkoK9CXmwOJCMXcFxsAlJwha/WFQ3Ngln8NeXcN3aTaCom95fKghVEN50orLCvUN2I7HkKPwTc3Dh4jkcKazEnvhMeMRkIKeiGnahSTja1ILWs2eQUlKDETuCcL95VxxIglKDZybawSsmF61n2uAUkYX/nWSHAaL9hiIk83ANqcU7y71xKL0Yx5qPo7yhGRt9o6ENTkRgUi58E7LF6U22IcnYE5MqNLJmW/bdBtugnCx4V0GogvAWgJBmgN/PdMGWwCTEFFSj6FgTYvJKhVhZUN0gQuFbhqTCdGuQcCXTcR4JNiWBdv7NcyQYjuKD1Xvbw1IYgq9zep0oyRD6Fnh/jR927U9GZE45SuoaQAN/WGahOFIt5+gxROdXYoVXLB4byU3GPbfl5ompKghVEN4SEMoZ3gL3mVvi2QmO+M0MV/x6hguenmiPB2guuO0KECsRNOqhoVr8epoz/jLfQ/imvjLfE89Pc9a1yWjkN2PAvpnPVBCqILyVIBQchYCTnIV3CUD57GYSdG/KYr3KdijbI9/1ppyblUYFoQrCWwbCm0Wk3/dyVBCqIFRBeJvtgoaTigpCFYS9AiHFNGovr/ViPhJdT/mZhmJhd+X3Jg3zSyLvpk4zY/WwfublO/lbUZbehc1YufI7ZfpruasgVEGoJ9quCEeLR0fb4rVlnnhtqRdeW+KJvy3yxAuznPC3xR4YOMQCj462Es9/Mt4Gv5/tgteXeuHVpT5iAy8J+15zLV5d4olfTaeh3QI/n2qPvyxwwz3mu/HLaY5CYULN5y+mOeBP893wyBgrvLrEA7+c7oC/LnTHC7O5BUqDR0Zbi+e/memA15d54e+L3fHcNEc8N9Ve/P/DXFc8PJzRvLVgKI0/zXPHv1b7CaXLC7Od8cd5rvjZ1454dZEH3ljmLdr0yiIP/H2JJ54Yp9OK/m6mM377jXM7ELViM/Jvpjvj/XUBeHGWK+4bqsWjo6x09S/xxMvzdHsTO8DfVT929VwFoQrCHkGowfNT7PHhmgBoDiZjouYgzLcE4P2VXtCGpGGgiQUeH2kFj5hM/GKKM0btPCiM5F9s3IcHzXXnPBAQW4OS8OG6vRhgultoJhd5ROFus12Izi/Haws8BRD/ONsZmwITcL/5LgSlFePlWU4YsSsYFsFJIlraL6baY41PHH431Ql+cdn4zwofvLbYC7+d6ojgtEIM2RIoXNwGmezGG4vcscAlEp9sDMBTY61FuP1Z9ofxxkJPvLXER5xb//mmQJhv2YeFLuGY5xQGnpe4LSgBv57hrNtzaKbBRKsQDN8ZjN9Oc8QkqxBoD6Xi0REasXn4y43++GKDn4GjQFdg6+q5CkIVhD2CkKIWLw2WesXi7RU+Qmz701wXOIRl4aVZbvjzPHe4R2fi6QmO+HzTPqzaE4//m+GMe/Qqfw1WekfjzeXeQtyjDXG2UwQGmVhig1+c2DX/pzmu+NUURyz3ihHAdgjLwa+mOuGRYZY4nFWGB4ZYinAW5GKPjLKBbWgKXp7phidG2+An46zgEZeNJ8fawC4sU2zo/fNsV+yJz8Nzk+yEs/bwnfsxXnNAgOu+4dZwiszCL6e5ijMN6SbH0BxjdgRg8DqGtKA4qhXhNHYFJ+NeMwLIWuysOJhajBdmuGBvYi7eXemDn0/mHsmuANab5yoIVRBeAwEt9YrB2ysIJCu8PM8de+Lz8eF6f3yyMRC+R3Lw9AQnAUIe/EKC7/CC0WClTwz+KU7GpSHfFTPswwQIZ9mH4W/zPeAdl413lnljvOagiDtDMP1qqrPgkCs9ovDpej+s9IoRZT460gquURmYbBWCv813w0++skJkXhnWeMdgxPb94ux67nEcui0IvvF5eGqcHQQItQfAY8gkCJ8XINQB5a2lvghKzsc9AnC6iYcR4ezD0nF3Oyi5XtQGJ+Pvi7yFm910u8PivAvdJNUbwBlLo4JQBWGvQagFQfjuanIKLV6e6wbNwXTB2R4eaQOXKB0n/GLTPsywj8LD5hoRXlBsPTLRYLpDGMbtCsYAU2u8vcwPn30bAIafWO4ZhQFmlvjnMh9E5JZhum2I2JPol1iEX01xFlzs99+44khuGYZv3y/E0qfGO8D2cBp+MNwKPxptLUDoEZuDP8z2gG9iPv53gi3+d6INHhxmiTXe8fjrPA8hUo7XBreD0Epwwuenca1JYGjx5Dg7OEVmK7iaFo+MtIFTRAZenkWOqRU+rP5J+fjRKC18Ewrw2+nOuFsPWmMA680zFYQqCHsFQg3uGaIRm15H7tyHu800+OdSD2zbl4gHzEnA1tgdnIA/znWF+VZ/bA1MBDkcAzXpNtJy/6AD1vnFY8jmvZjjEI4fjbHF0+NssNYvHo+M0ILhLt5f7YeRO/fjByM0sAhJEQoUKmxI6Lv2J4pQhORGv5pqB6uQVHy1ez+GbgvEH75xgPZgAh4fxXMMfbHEIwpjdu3DBM1+0eYfjbbD+F37McfhAAaZ78Jjo3ggTDJeWdAe/NfEEr+b4YIdwSl4dCSPUuvQjnLNuTkgAUO3BmKeczjeXOSOR0dooQlJFe27MS6omwDUQ0LVQ0IVs39XM7dWbB96cLgNHhzOc+E1eGCoDX4wwgY86JPRtB8eaYv7h1nhgaHW+MEIWzw+2la3/0+sJ3VrygeH2eDxMXZg+EIS773m1nh4hDUGMRyicLjWgOfXDzKzFuU9MExXF7mV7reOaO8x1+LhETZ4bLSdeH6/KMcWg4ZocJeZRrTx4eHWeHwsXeSshXj7wDBbPDTSVqwJmY7c+75h8uxCLe7Tl9EODP3kxPJs8fgYR/D7+e1sb+f8XfVbb56rnFDlhHpi6w3BqGluTAljrP9UEKog7BUISSiWGDBEgwFDtOol+4AGfGH4J/Df6cUAACAASURBVCc3BrDePFNBqIKwN8RjosWfFnhirms45qmXvg/muIbjpXlunQJIXTsYVRCqIOwVCK2E7Y6GeQbuVS/ZB+yP3YoI4r3hfIZpVBCqIOwNCNU0NyBuGoLO8L8KQhWE1wCwQVwXXrUG0goNKU0J1BzyYBhxN2M0NBKYzvtkwP8PO8//4hLvLNsjp+mipunS6UIZMuIZ03eo/xlDhuEqLEUgJ1lH58hrOg0r8zCtyCvqYVm6Z7JumgTYxo7ydcCQHL4jPqlBOaJsptVpixnakeH0Dcu5NpFUBaEKwl6BUEeM5tv3449z3TutgUjY9FJ5bgqdnrV4arwtxmsPYntQCtbsicOGvXGYbBMiHKrfXumNb/2PYLF7NJ7nkdntYHltsRvW+sZjnW88VvhE44uNAXiA5ob29zxNaapNCDYFJMD6cLo44/DzDXvbzxfU4v21vtgcmIyFblEiDg1B9+vpTljkFom5TmF4+it7/HO5t4iozZD4bNdcpwj8+Cv7Tt8yZmcwfjnZqR3EVuKA0reXe+PbvUcwdGsA/jbPFcs8Y7ElMBmrfOKwLSgJr8z36FTGtQFQB2jVTqjaCXshanG2toT2UBrsQtPErggdsWnw4/G2SCurwetL6FOqi3pGEPFY7HdX7sEfZrtgrAU9XbT46QQ7MBivcPymX2k7l7x/mBbh2WXwjsvFB2v3ilCEPBSGIHx0lC2843OxyDUSz050xNPjHTHBMhSl9c1Y4xOD+4Za4YEhu8FI3Tv2Jei0le0cm36fNNwPNNslzh6sbGqBRXAyXp3riaSSY7ANzezweDHTimPXkoqr8fyUDk+ah4ZqcKSkGq/MdQRd4diWxKIq/HaaMz5Z54dXF+9RQahG4O4+BPnWQLqWGa5DrvW/Fneb7sbh7Aq0nD4DBtwVgDPVedGcvXgBX24J0qvrP1rvL2J4/nqavTCU399+qMqTX9ki72g9dhxIVYiDWtxtbok9R/KFi9gTY+2RXl6D91bvFWcTrvSKRWppNe43owLESlwD/7+YucorFqfOnRXHlw0ysUBpfQM2+R8R7WLbKG4u9ojDPNcIDOAZhyZacdYEORjfL/WMRXxhFR4a1i5ymmpgczgTx5qakFh8FM9McBDfM9B0JyIKj+LFmY6iH91jshGVW6p7N0TTPiFRJL3WPpXpVXFUFUd7RTw83cgahzOLRahCioUDzHjopi1i88uRV1mNBW4x7Rtitfhwg784849O3IO/DcTrS3jOnxWeHG+HvGoJQhI/CbEDhAzMy3MMvWKz8OgIK9xtuhNZVfXwjM1VgFZHvG8t24NT585gvms0OkCYoACDFgs94jDfNUJwXIY/TCurxso9cbjbVIstgYlY5hndHnGbbbGES0w+Pl/jhbL6JoRll+HpidyBsUMBQmvsCEpGZsUxDF7vD5PN+/DMRJ4kLAF1PXcVhCoIe0VAGnDHgWdMDuY78WTcVvx8ojUmaEIwwyYUXrG5cInM1ispCEKKowThiB37MXwHz/lTgDA4tV2E03EsckKfI/nwO5ILctGiugbs2JeMB8134GjLSeyJy9ZzWUnwL8x2Q8PJU1jmGSdAyDCGG/0TFYAgCGMxzyWinWtbIqGoSnBZ18gshGeVCZ9VHdckeCzhFlOAV+a64w8zXVFW1yRObPrZBCsczKkQvqU8XntrUDKyKo7h4/V7scw9Er+doXPulu269rsKQhWEvQThX+d7wvpQujiApbi2CVv843EgtQCPj9JiU0ASYvKqxFFnJOqPyAkvXgDF0YE8I3AUfUA7QLgzOFWn/BCKF0u9OOockYG7THdjmt1hnDp/Dr+b7oyQ9FLkVtXhniHUukruaYU3lnjh+OlT+HR9gNCaZlUew4793Pwr02jx7d4EsSmX9s1BppZIKj6Kdb5xeG+VDyobWzB8W1A7J6Q4qQPhX+Z5CPH1rcUegiMGJuWLvYO/mOIkNiRvC0oUx4CznvuHanC/+Y2IogS/CkIVhD2BkKYFE0t8viEAq33iMOhLS8xzicSpM21Y6hEtONREbSgKqxvw43H2Qmz8aP1eIY7+broDBpnswkuzPPDA0HYQHq2D5mAqGCqfwHhlnjvuNbdCYFIhnCMzxValTzf4ofFUG56f6ogPVvvi+KlTmGodgnvoLmaiEQd9rvSKw4G0Ejw2XOegzUNhEosq8fBwncmAa709Cfnt2lwa1zUoqWsWmtG7zbSYbhuGioZmvLdyj86UYqqBW3Su2NsoTBkmlvjrfBfkVtWjvvUknptKEGrgHJGJmLwKAR4ewf3SHFfFITWqOEpAXc+lHo3WDRBJ9Ny3t8E3Dqu8o/DIcC2eHGOFhNIaPDlWF5dl8FpfVDcfx9AtAXhilAbTrA6gte00rA6lYJZdGFyicnC/6W78cY6z0I5mVtZhkVs0VnrHYrrtYfxsgh0SCiuRUFSJrywOwCsuGwtdIoTSg7a7iZoQodAheEft2o9lnjFwDs/Er8idhJ1Og19Nc0JySQ1corLxlSYUO4JSQKXOfWLHhiV+PtEOlY2NcIlIx1NjuNPDShwimlpSjY/X+Yod+Fzzfm19AA8P13FdKnTeWkxNajWem+KIJ8ZoEZxcgKqG41joEina/419WPt69XoAqHJCCVgVhN2AkOLSo6PsxG7yvy/0xmOjuZ1Hi2cm2ood7PzNIEmvLvTA3xZ546fjbcGo1q8v9sZr7deL4qAXCzw/3Vk8e30xY8Po4sP8ZLwdfjbZAa8t8sbri7zx2iIf/HqqE+4RYqVOtCQHoh3yw7VUhgTibws82rdUtROxMI1Y4OkJ9mJPIo/u/tNcN9w7VEZOo93QRdT96mIvPDOZ9kENHhxmjVfmeeLvC33wf9+46t4v9MGjI+30a0uC/DfTnPHQcCs8PcEBry/UtV33fZ748Xg7lRNeJ/eTAORdBWEPINQpG3Qn63LtpPsv7wQKL50YqPdW0YNIvuN7XRpdeplPvm//b6Lba9iRpgNownjfbqa4WgGiK4eA1bdXXx/L0HE3ZVvFb+FN09GujvYzj84kovPM6UjT0TblN7Sn77YvjaVR14QqCK+ZaIwRkvrs6kmht32iglAFoQpCveh5/UDqLeCMpVNBqIJQBaEKwpuwpiOQbuRS14QqEPsQiConVDmhCsA+BCDFUxWEKghVEKogvEFR8kbEUJlXFUdVIPYhEFVOqHJCFYB9CEBVHFU5oQrAPgagCkIVhCoIVRDeAetBVRxVgdjHQFTXhCoIVRCqILwDuKGqHVWB2IdAVDmhyglVAPYhAFXFjKqYUQHYxwBUQaiCUAWhCsI7YD34vRdHC6oaEZhYql53bB+UIDCpBFlldTe0C0FylP56/14rZvrroKjtvrGtQf2t/1QQ3iEiSX8jHLW9N2+iUEGogvC/WhS8EyYTFYQqCFUQ9jEN3BEgPHnqNFpaT4qLv+Xs1HrilHh24mSb/pl8p95vnjik9uX19eXNok8BwuMtJ3Cstl5cDU3He0XwTc2t+jzNx1t7laerwSYAp85aiJnzlyEnt0Bf1tqN28Xz8Mg4/bOuylCfX01IynGV46u81zc2g2OnnPjUfry6H7vqk2+37BL0GRIWdUP0KUAYHBKOz4eMFtfKdZsE9+mqYvl8yw6NPs/ewAM31AiC8LW3P8Tb73+OxOQ0fVkjxk0Rz3389umfyfrVe8/EQuKQ42rsPmr8VEyZuQAkppj4RAFItV977lfZR2MnzRD06e7ld0P0KUDoFxgsCiMQ/v3Rlygpq+i20Jraenz0+TB9nhtthArC3g+8JIDe3AODQ8QYvfWfTzB87NcYMa7zNWTkBPxnsKlI88a/BmPhsjWob2judux7U+9/S5pbAsJ/ffiFGBBnN+9uRRRyPg7aB5+ai/QqCG8NiG6UmCUITYePA0XPpuOtna7augZkZufD0toB/3j3UzGWGhtHFYS9VNTcEhAuWrZWcLjxX88E1xPGiIBKkmmzF+GNdz7CynWbuwVhdU0dwiJjERB0EEEHQhGfkIKm5paryu0NJ2S96Zk52H/wMAL3H0LskSQ0Nl1dlmwzy5Tp/QKCEXwoHDl5hUYnl+KScqSkZaGk1LgEUFJWKd5XVFXr2159rE48KygqFWUWlZTjYGgkUjOyRZrS8qpOeWrrGxEZcwQExuGIGLDMrtZifF5cWoFDhyPBth8ICUdGVm6vlgny+3mXIBwycjyoRFC+U/5mfVt3WYmxpNhqrF3sT35b8KEwcBIODY9GeeVRo2lZNss4Wl2LuIRkHAiJQGh4FDKz87qkK+YhzXEcWIf/vgM4HB6Nsoqu62AeMc4ZOWJ8SWekt8KiUpxQKPjkt8oxKyuvEu3Lzi3AwdAIZOXkd+obtp20G3ckCeGRsaLvjSkHDUHIMT0UGol9wSFISslAb/UrncTRHRbWmLd4FV5/5yPk5BV1apj8EBLDfwabYMKU2bC0djQKQjaYQPly6Fi8+a/BIg1F3X++9xnY8LSMnE5l9wRCN09fLF+9Ef/5yKSjrHc/xfTZi1BaVtmpLLaTBDx30cpO6Vn/e5+YYcPmnWho7CxyWdu7gFLApu2WV5XF8tZs2CreO7p66d+zo5lnycr1YiAHfzFctG35mo0izW6tnXjv4OIpJh+Kfm/9+2ORhlLEJyYjBLHJfpX3xuYWWFg74KMvOsR9tp19vnDpGlQdPaZvg8zT1b23IGR+TpCsh9KNIfEUlZRh5rylYqnCNLxII/wGfp/hhM2JdoeFDT4xGYl/vqfjsEz/7mBTjPxqCiKirla0sY5v5i0Vfaas41PTkXBy8zI6iSSnZgp6+reCLoSE9pk5qNQzHGcyAo6ZhZUdvP0C8f4nQ8S3bNmp1fcppQPS9Wdmo/HPdz8V9Mu+J60RtMq+liD08QuEt2+gYGCvt/fPOx98ga+/mQ9Ozso8xn53AuFOSxsx677574/B38ZmRIou7CQ7Jw9QdOFvQ3HUxd1HiDfskMUr1sHOyR3O7j4YMfZrkX7wF8MEJ5MN6gmEnw8ZI4hw3cYd8AvYj+0WNvjUdJQoa/L0eULUkmUVl1Xgc/Mx4t3oCdNE3aFh0bCyddY/n/LNfChnNhsHV5F+3aYdRjts6swF4r2to5v+PWdqfvtXX8/E0NET8ZnZKCxd9S28fANFmm3tnIWDZzbiK8yevwwe3nvFYHECY14ST31Dk75MEvOi5WuFqP/ux6ZY++02sC8tbRz1ov+or6aCM7n83u7u1wJCKnHYpg8/M8fx1pP68guLy8RkyndcV27dqRXfsXLtJrz1n49BWtm83UIPRNKM/HZOmpu3W4pJit8xfc5iAd633/usE0HnFxbjCzlm46eJ/OyrZau+FX0h6tih6QTEqqM1+PCzoaLN1KzvCw5FeFScGGcJLk4EShomp+R3TPlmgVBYmY+aiGWrvxUSA/uRYzFnwXLRRo6rlZ0z9gYGY8HSNSIfxzgzJ0/fNxKEq9ZvAWl60zYLIfFx0vjCfKzIs3DZ2k7tNjZeV4GQC3POPpzFWg3sc5wl2HDOEBycbbt1IowShOWV1XpiZ0dKYmdn1DU0YeM2i/aOmK8XTXsCITsuPjFF36Esixz5g890a1Kyfn4c6yKnY3p2ELmGHATeKaaQuEk8FDNkh/QEQorpLNMYCDnDT54xD1RWsX5ZnyRE5uNvpTh4rK4BknMqNb8xcYn4x38+wb8//BKc5WVZvJPjT5gyS7RjpwFxye8wvPcGhCyb4J8xd4koe8acxfp+4bstOzXi+ZiJ01FX36hvE78nKuYIPvx8qODwcgyY52OTEXjjXx/BzctXn55t4zjPWbhCcERnd2/9mFE7y36aNG0u2Dcsg+lZR1hEDN772AzvfPA5klJ148x37t5+AixmI8aD5jL57cyr01l8BHIjJZeWICS3mr9kNerqm/RjxnxaGyfRjolT56DmWH2ndnw1+RvxjpKibJ8EIWkgNj5J/5zvKbr/68MvhfRHrMj2GbtfBUIm2rZLKypkwcpMXAeQu3G2YIcaA6HP3n0i77AxkzvN8rIcAsNk+DhQY5dXoBN5jYGQBD187GRR1rRZCzsRMcvih85esFy837Bll/hPmxcHjAPq6x/Uqe2y/vXtICUxyGe7NHYiT1eccOPW3eK9MRBSoREdl6AvS5YpQciJwpgIuWzVBlHmdgtrkZffs2DpavFsxZpN+gGV5fFOYP7j3U+ESFdb13hVncq0/C1ByHUeCYFrFuWVk1cAD5+9GDtRp2rnciHuSLK+3IrKaj2HioyO1z9X1kOxm/1NUZ7fwOujL4YKMY4TzImTHc4XzCfTyDLKKqoEaFkGJyH5XN6ZnhyN73fs1vUV31HU5Bo/r6D4qjycEAd/qVsecG0uy5Ig5JhxEpfPeWd/mgwbJ+phvynf8feRpFTstLQVUoCcUCUIZ81fdhV9EuAUvdluZZ8alsv/RkGYnJohQLJq/WZ9YwgKipYsNOjgYfHcGAi5fmIaNoxrM3aC8uKz0ROmizRyYI2BkOsKcl2WRRmdg2H4AQSFrItlcED5n+IIuZ5hev7f2y5GUvxhHj6TCqbrAeEnpiONgkyCkKKnsXbIfpJrSGov5aBa27t26jPZf0kp6fjgs6FCNM8vLDFarrIuCUL2SXcXJ0RKP1RSKPMnJKUJqYETL+23sh3Ku+ce/05jwHFav3mHeEbzh62Dm5gAGhqP66UiZR1UxLBt5BpUtinLlr+pE2Aaip2kQ5mfdXHipcKsoLBEKFioZEkU/aSTkpRgkyAkgyBQZTm8E8ysg+u/dAOAKtMpf8vx4tJN+Zy/m1tOiKUKy6RizfC98r9REPJDieL3PjHVczOChwRH4q08WiMKNQbCr2fMEx/Dynu6KG+zMT2BUCmyKRvvszdI1ME6KXakZWSL/7RhVlTp2qhMz980SrNd5A6N7d5BNwJC0+Ff4XhLxxpK1idBuHr9VqMDYAhCauPkpNNTv/F9RlbH2kTWaXiXIKQoN3/JKsFpyW15UdHy9vufib7g2p4zt+FEFxEdL973pj0Tps7WLy9IHxOnzRHrRebl8oUEu2rdZoQcjtLTFNsbHasbj97UQXFVipekmYCgQ8LZgGJnV/mNgZAKE8MxkyCkssmYss+wb/lfgpBKGcP3NwxCFkhFCmVd6Q3jv0+3qOWaSw5WdyAka2end3f1lhN2BULJ1QxB+PGXw4WK2bBj+J+zOwfsWkAo15nGxFFqPY3VI0Uo5jX23hCEnM2lcoKKo+76je/IJYyVq3wmQWjMRMGJVorm9Jw5VttwVXkhYZGir7hOpRTUXZvYNxIgbAMnOJpiqKyguCuVJex7Li+oX2A6LnH4jECiUqq7Oqjga2k3tbA+ru2otKHizNXTF/sOhIIKJirNqIllucZASBObFCllf1GyYHpKBL1VfEkQSjqWZfF+U0BYVX1MiCJcsHPW4RqKawayelmZMRDOmrdUfAxV90rRQeYxdu+JE3JCMJaPJgN2HDWQJAASJv9TzU7bn7E8VFMzDUEobZbdcUJ+wzftSotrASHNHqynJxBKEZiciGBgHjnxGWv/tTzrDoQsh/1FTs46uS42HC/qBPiO4mh5xVGj/dmb9pDrcP2mtXXWm420tk6ivMTkdFEHFTy9UeezPvaV1IwS5DTrKNtBjy/pSGIMhHTVa2ntbDflup30TXGU9kxleV39liA05jt6U0DIimcvXC4aFR2XKD5q4tTZnQzkxkBo5+guOnX8lFmd0nb1IXzeEwipAjYkEOajCp9Esmz1RvGeoKJanGuc8KgO7aey7l2WtiLP5Olz9RydfrCinFXfXlUPHZ6Hj9EpiG4FCEn8uj44BWom2Q4SlpQ2lG2/1t89gZDlUcKhtphmA0P7bX5BiV4DnaDw6e2pHWy7IadhHo6hlBA44fBZQWGpWA8S6EcSU3pF/BQdyTkpqRkTy0MORwoaYF8aA6ExcZRAHv/1LFGm4dqY7SQdcNIP3B+iX8ZIENIKYNgnShAaK0+Z3uiaUCbYfyhMEMVXk2eKu4ePf6fKjIGQamQaRNmp1HYZEhNnGXIWihbSmNoTCKnOp+patov36ppamI+aINq1N0C3tuQg00jLzqfNTikeMQ9FpCEjxouO9toToC+PXinMQ7siXbtkPWz7ocMR4lv4XglCadymitzYBCE5IVXhsjzlXYqjEoR8R1MP66E9ylAkYluoWOBOk/0HQ43WqSyfv3sDQva91DKPmTCtkxM331HK0PXnBr0iS9bDSY/mhdUbtuq5Bz1kxk3+BpzYDMee+Xz99+P1dz4Ua0b+p3mBoGAddMhgnbJ83fsWoThb++125OQXinfkdFTkEIT0QlKmp1cMbXwsj1d8Qoe2VypmjIGQbaXjAfPQh9ZwZxDbzXf0v5V2VAlCpYlOtkUJQi6B5HNj925BSLb/0ec6gyhVvob2DmMg5Ay4Yu0m0WCuzehZwo7hgCUmpUHujKBWUHY47/xA5S4KppeKChqQuU5KTc8SQKIGbEm7pvZTs1GoVLiTUex55/3PBXAISM6anOUIfiojWA9FMDkBsFP4jmsIDupurb1wx+JAc9Lh2la2QwlC2sVYFr2CjLnPSRCSiI11vDEQUiSi4Z/l0i5HbSH7gfY5KrHo8cM2evkGGCVww3p6A0Lmoeud9EaiyKgsJyo2QfQn115rvt0mzEqc3DhJbN2hEf3M8ZHaWn4D09JThmYLPuc6jnkiouOE4wK/j1pTWQ/XjhQFmY/mpvyCYpGedazftEN8M43hNOozD8uimYvlULSkhpUucqFhURg7cbrw+uJExvc091CUlpMYnxkDIculi9zHX9LGORgbNu8Sbo9cllFaYP/wuRJwvQUhTUvyW43duwUhZ3iplOCi2XBmMwZCVkK3J86EdNOijyntMhwUdjKJaM6iFcIYKhvUEwi50DYdNk6UR02bdP+iUZiEqmwXf3N2pCaXHU7RVNbN/xQ5JMHI+pln+25rfftoi5P53L33wsFZN0MaBeGwsZ2MxbLM6wEh21FaXqmfLOjyx7az/2Q/0lwjJy9ZV1f33oKQ9XLdzf7hLpoMxZpI9qckatkvVNZwLDk502jPdGwH7/z/wadDBMfTpf9MfAeJmHlmL1jW6Rvo5xkRFS/GjMoWwzo4zpQ8ZB2sh5pbTtpsM+mKfcT+olaWwOGaU9ZHF0CagLrjhLLtyWmZegWZLJdtZlm0FyvF7N6CsFeckD5x9s4ewivFcEBpb+M7Y4tVih58l57Z2fApy+AMRS+EFWs2ilmULm9U7Cg7k2kJdpbj7OYjuBCfkdD27A0Sz2k0JueiTYodQQ7HnR7dbbmqrKoRhEXFB+vfvMMSgUGHOnWibCfvbBOdjGlaICffpbUTHhp8zrUS20f7qczDNvEZ2yifKe/klHxPZ2Tlc/mbGjW+P5KYetV7DjQX+/RpZNs5K3MC6ErZJMs0vOfmF7W3kUbzDvuaYTr+53u6lrFN0bFXOx9Qe8q1DzkT+4dto4imdLtTlsuJmNprtn3eopVC87lLYyv60HD8ZT6aaWgTlGPGsfAN2K9fg8l08s7x19g4CXGY40uTBcVAvmcddIC3sHKAi8cewT0pJfH7qJxrPdF1f5Crkr5IZ5RYNLZOSEm7mpv5Bx0U5Rmjf44h28P6DCd92X55F5xQ/lHvd+aWJHVcvt/jooKwl3vHVCB8v4HQl+OrglAF4VXicF8S5H9j3SoIVRCqIOxjGlBB2McD8N8486vf3Fm0V0GoglDlhH1MAyoI+3gAVK7QmSv8N/aHCkIVhCon7GMaUEHYxwPw3zjzq9/cmfurIFRBqHLCPqaB/yoQ0oWMDuUMOHWnzcbcKsQwkYbbiXrTTrpIMUYn3bGUsVF7k7e/pGEMWfYPnfi7cnvrL99i2M5+CUISHfeR0c+Q22i4NYoO5gzEQ+dtw21P8qN1kdYYYOrq4EAyTV/dF69YL5yR6QN5rW2gDycdjBlSUPpy7j8YJsITMkRhVGyHg3V3ZXN3BtPzUgbE5a4FhsCQ7wzvDPZER3eGHGRoiJ5AwvfceULne5bLeKocQ4ZR5HYi+mmyTmVbuS+Qu97pjE1fzZ7qUOa903/3KxCy4wuLS0UcSBm+gF70youe74xvyq0/BKtyAO5kEK5at+W6QJiSniXCOHLLVXFpRzQBTk6yX7idqicHboa6ZCwamUcZnIhBmgyDEct0hncChVuYjEWY41hwDDkpcAcCd0sY5ud/7o5gyJIsRbBd5iOn5+ZjbvOis7dybPvz734DQg4CNwxz/x4HiuEpOGtyrxZ3eHDHBmPRKMP3ceMw88kBupNByK03/K5r4YTceMoNrNxqY7h7W4KQHJJXT+Ep2HdKQHQFQu435LYi5cXICwx2xM3BEljkboZbrjgW3FUgNuS+/SEY3YDHGpDLcQzjE1NhobUXgXTZFm5hUoZT4aQq96pyh0VPE4sc9zv93m9AeLT6mB6ADNTDEHdKgLGj+Z9bbhjhjIPI4ELKLVi9ASEHVkZhu5WDR3FL2X65//BaQEhuT4CRMxgSpAThzHlLBEhtFJtoDb+L7ZDR0ca1H/fVFQi5Pcgwv/xP0MkTvrhJ90hC53AVzCsjo3FbG/f4ybzyzrZwuWA2Uhc1YdL0uZ3ATDGZ48h9pdxOJvP153u/AeGWHbqAxNzF3d0+Qg4GN3UyDMH8xavATZpygLoCIWdYrqsYxoPBgynqMvDQkhXrxalFMr+8kxsw3o4M2Sify/um7RbifUJS572CzcdPwNHFS3Br1sNJYt3G7UJ0u1YQss0EHycbKptk3fIuQcgN0YzobTZyfCfQy3S8Z2blCTGPQGS8HpZ5PSBkWWwX+45lKKPkMUIAQ4HwOaNYG04ayvbwN/dZUrTdsl3TaQM4QcogYixnt8b+qu82LKc//O8XICTXeLc9sjZnUCUHMdbJfM9ZmQOtTGsMhAzgI85/eOcjvPnvwSKUBSPLMXI2xTzm4fkXynKWrtRFzyZwleo5LgAACOhJREFUjNXPkAskEiVIucl1aXvUbXKvoWMmCUUKyx836Rt9wNzeckJuMOYajtHBjHFuCUJqTRlNjnXKUPWGbZbBl7ipd/kaXWiS6wUh+2lMe3BnT0VMIoaw4Hqd/aJU+hi2Rf6XY6jsd/mOHJVlfTZkdI9glnnu5Hu/AGFaerYgIgarNTwZ51o61xCEHGAZAv/9T807nSfAGZ2763mmAg+YUcb5XLlWdyRcTyBk5DnZPqrXBagHmwotoiQuckceSkLi5NVbELp67hHp5y1eaZQQJQh5lkNMXIJISw4t2yPvjFjAOD2cgI7W1N4wCBkXhgDh2pBhLmQ9nDz5fWMmzrhK8ynT9PZeU9sgJkdOLHeipru33yHT9QsQ8sw5yZVu5CRZQxAqo14rRSfZOVyzyEhzzu579ATVW04oQUhAk7uSCBm6wVAUY/h+xna5FhBSVGZ6BqaSgJbt5l0JQtZHRRYVHYbHntF2StBQRGQ7e+KETE8pQ3kxrijPcqBpgVyd7aKGWmmPlQoVRsEz/H5lu3v7W4riPOKst3nu1HT9AoQMhsuBZbQxEsr1dqYhCNMzcsSMTQAUFBk/24FEzroZqU0ST08glCEEJQgZbXrkON3hIDww07D9FLcZlZr19IYTsh08T4Hpja0HWb4ShPzP72AgJKWYSfDyHEeWw8MtGXCpJxCO/GqqsOnRricvmkAIOnImlsUgWzxFS/mdktuzfGMHeCrT9uY3o/WxLsZ/6U36OzlNvwAhw+5JTkib1fV2qCEIqVrnQDIEIpU5xsrlepBpeLCLDG3YEwhl7FMJQhlKj+UYC6JLMCxarjtspzcgpJKD4fdZHoNtGWu3IQgptrEPlVHzGICIa19ySYZV5AQnQakEq9JOSCUP8ygvRl5jWxgflgGpGELRsE0y5L4M1Gz4/lr/79TogjgbE7Gvtay+Tt8vQFhUXCZEJioieopc1V2HGoJQnoPAaNAkQmN55WGgo8dPE+HXmYYHk5DouloTktD53hgIeWiNsXquxWPmekBI8XHStDlCcykDCzOuKttJDxhyV4JQBvvtCoRuXn5iDDgO8uJ3kgvyIJ6ujhx3cvMWdfEsR7bFWB9cyzOeZsy2U+l0LfnuxLT9AoQkkA8+YxzLj+DudXXIcWMdy/Ucgxcr3xmCUHJCcpWuPDAkJ+TaUHLhBUt05wh2BULatroCodL4LNtGTsgTXZmHx4rJ513drweErIPrJ/Yhz5BkQN6pMxeKyU3aUnsDQmN2Qq4zGZyZ7ScnZV2GbaeShsoaXoZBpA3T8j/L4GTRFWAlCGniMZa/Pz3rFyBkhzIyMwd5yIiuASM7nmHKKRLS4Kv0JDEEIT01KEoxunJXhCGPBOc5EXI92p04yjRUgChByFNfh42ZJJ4ZPTzkeKs4wpl5ZsxZ0iNRcQ0pI3VTaSW/W3k3FEf5jrFYaQNlBGpqmd//dIgAjwz5fr0gZNnSZMJvMBZrlROitBOu3bjNaJuV7ef5gUzPfjc2NlRwsS5qsJX5+uPvfgNCrmmknYkAMzyJR3Y+uSYP7qB4RPGVTsLynSEIqdGjUZ+DyYM+ZDp5J8eZNH2ODlBOHeYGim/Mw0C4Mq28xx1JEtGg+V6Ko+Q6s+brQvAzorkhp6DTszwrcPrsjuOqZZnG7lJspGuesffGQEiQ0dBN2yLXnmyjb0Cwvj03AkJ+kzxsh5OQsTU2XdZ4DgXHUSnuGraf3I+HzLJ9VEDVGlkqSEUWyzTM39/+9xsQcpBJcBSnODhUlNB5mUAhZ+BsTlW/POOBmkBGXyYo5aAYgpBlcucAy6NPKoHe2m7gZ5lc/xDMVFwo7YR7/HWHk/KcDjqUy/UUD1JlmH2pJZQgZP3ySDa2gQeVEpjMx4mAp1/J7+otCKXWlqp/5TfKbzUGQr7jeRD8Xl48K0T5XTcCQpYtDtxpVxhR0cTyZHt4p02UXjmsm33ESYw+rXzO/ubESp9UaRYi12ZfKcvQldMqvI3YZzxazfB9f/vfb0DIjuUMaWPvIhyAJSHRjY2iHu/yGU0OllYOVxGBIQhZZs2xOnFyLY3yFEu5puFRbHSMJqFQZPP17xzqnqHWvzAfLerjQSULlq4RpyVRY0jil+cdKkHI7VXy6DOedUEFxbwlq0S7eTos62T7ewtChuyngZ0HoxhbN3UFQorG5u1AMQTwjYKQ/UlNNvuNa7+gA7pj1ZWg4Nr7m3lL9OeJMC0nueFjJ+v9SgkualrpsK/MK3+nZeaInRbcUWHMW0im6y/3fgVCdiq5V3ZOgTiTwnz0RGGTolaOYCA3o7jHMweYznAQePQZT1gqKinr9I6gcnTxFGp/Dj7LoxcJ7WBdaTPZhq9nzBfpZN10/+J+PnJgmj2Ux6+xLfRIIUB5uIqow3SkqIP743iiEPOsXLulU9sMv0H+pyFcnuxLopTP5Z2eQCyPB33KZ7yzX6ztXMQ7Qy5DENIbiPl44IrMR9MMJyU+5zYk+dzYneWv27RdpOXBL8acK8i5qeDhsXH8Bh4qw/4gZ+aEynMgulKUsU7uG+WEtWTlhm7bYqx9d+KzfgdCZSeSaHjsGkUqijXy3Dhlmmv5TY5Cz3yWRzGxp7wkOKZj3ZyRjQHfsAymIVdkHVQ+9CaPYRnyvxRJyfXks/5057fzPMiKqhrRH9yDaEy0Vn4T++6LoWOF+G44wSjT9aff/RqE/amjb0VbuZvkw8+HibP9vg8+lL3pIx7hRhF22uyFVx153Zv8d2IaFYR9HOTnRomCx8VRNKNvKhUcN1renZyfEw23N3FtT/PSjUgRd9J3qiDs5yBsaT0FetuQO1jZOX9vCNMQJNyszTU4zRt79vZ83qJh/jv5vwrCfg5CEhftaNTQzlm4XCil7mSCu9620VGdtkHNNZxUfL113e58Kgi/ByCkWEYlFRVLPSk2bjeB3az6vs/fp4LwewDCm0XoajmdI2Pfrv5QQaiC8HutzLldQLqRelQQqiBUQdjHNKCCsI8H4EZmUDVv34iPN7vfVRCqIFQ5YR/TgArCPh6Amz2rquX1P+74/wDJtqBmr1RvZgAAAABJRU5ErkJggg==;" vertex="1" parent="1">
          <mxGeometry x="1149.45" y="1160" width="160.55" height="120.59" as="geometry" />
        </mxCell>
        <mxCell id="DLSMKTJHFx1a7OPu0qnC-33" value="" style="rounded=0;whiteSpace=wrap;html=1;fontStyle=0;fillColor=#fff2cc;strokeColor=#d6b656;dashed=1;strokeWidth=3;" vertex="1" parent="1">
          <mxGeometry x="290" y="560" width="1040" height="590" as="geometry" />
        </mxCell>
        <mxCell id="DLSMKTJHFx1a7OPu0qnC-34" value="" style="rounded=0;whiteSpace=wrap;html=1;fontStyle=0;fillColor=#d5e8d4;strokeColor=#82b366;strokeWidth=2;" vertex="1" parent="1">
          <mxGeometry x="330" y="620" width="980" height="500" as="geometry" />
        </mxCell>
        <mxCell id="DLSMKTJHFx1a7OPu0qnC-35" value="&lt;b&gt;&lt;font style=&quot;font-size: 14px;&quot;&gt;qh2-uom-internal&lt;/font&gt;&lt;/b&gt;" style="text;html=1;align=center;verticalAlign=middle;whiteSpace=wrap;rounded=0;" vertex="1" parent="1">
          <mxGeometry x="1080" y="1120" width="120" height="30" as="geometry" />
        </mxCell>
        <mxCell id="DLSMKTJHFx1a7OPu0qnC-37" value="" style="image;points=[];aspect=fixed;html=1;align=center;shadow=0;dashed=0;image=img/lib/allied_telesis/computer_and_terminals/Server_Desktop.svg;" vertex="1" parent="1">
          <mxGeometry x="500" y="972.96" width="90" height="114.09" as="geometry" />
        </mxCell>
        <mxCell id="DLSMKTJHFx1a7OPu0qnC-39" value="&lt;b&gt;&lt;font style=&quot;font-size: 14px;&quot;&gt;Bastion Node&lt;/font&gt;&lt;/b&gt;" style="text;html=1;align=center;verticalAlign=middle;whiteSpace=wrap;rounded=0;" vertex="1" parent="1">
          <mxGeometry x="500" y="940" width="100" height="40" as="geometry" />
        </mxCell>
        <mxCell id="DLSMKTJHFx1a7OPu0qnC-40" value="&lt;font style=&quot;font-size: 14px;&quot;&gt;SSH Tunnel&lt;/font&gt;" style="text;html=1;align=center;verticalAlign=middle;whiteSpace=wrap;rounded=0;" vertex="1" parent="1">
          <mxGeometry x="400" y="1000" width="90" height="30" as="geometry" />
        </mxCell>
        <mxCell id="DLSMKTJHFx1a7OPu0qnC-46" style="edgeStyle=orthogonalEdgeStyle;rounded=0;orthogonalLoop=1;jettySize=auto;html=1;" edge="1" parent="1" source="DLSMKTJHFx1a7OPu0qnC-43" target="DLSMKTJHFx1a7OPu0qnC-37">
          <mxGeometry relative="1" as="geometry" />
        </mxCell>
        <mxCell id="DLSMKTJHFx1a7OPu0qnC-43" value="" style="sketch=0;points=[[0.015,0.015,0],[0.985,0.015,0],[0.985,0.985,0],[0.015,0.985,0],[0.25,0,0],[0.5,0,0],[0.75,0,0],[1,0.25,0],[1,0.5,0],[1,0.75,0],[0.75,1,0],[0.5,1,0],[0.25,1,0],[0,0.75,0],[0,0.5,0],[0,0.25,0]];verticalLabelPosition=bottom;html=1;verticalAlign=top;aspect=fixed;align=center;pointerEvents=1;shape=mxgraph.cisco19.rect;prIcon=shield;fillColor=#FAFAFA;strokeColor=#005073;" vertex="1" parent="1">
          <mxGeometry x="330" y="1005" width="64" height="50" as="geometry" />
        </mxCell>
        <mxCell id="DLSMKTJHFx1a7OPu0qnC-44" style="edgeStyle=orthogonalEdgeStyle;rounded=0;orthogonalLoop=1;jettySize=auto;html=1;" edge="1" parent="1" source="DLSMKTJHFx1a7OPu0qnC-20" target="DLSMKTJHFx1a7OPu0qnC-43">
          <mxGeometry relative="1" as="geometry" />
        </mxCell>
        <mxCell id="DLSMKTJHFx1a7OPu0qnC-45" value="&lt;font style=&quot;font-size: 14px;&quot;&gt;Security Group&lt;/font&gt;" style="text;html=1;align=center;verticalAlign=middle;whiteSpace=wrap;rounded=0;" vertex="1" parent="1">
          <mxGeometry x="330" y="972.96" width="60" height="30" as="geometry" />
        </mxCell>
        <mxCell id="DLSMKTJHFx1a7OPu0qnC-47" value="" style="rounded=0;whiteSpace=wrap;html=1;fontStyle=0;fillColor=#ffe6cc;strokeColor=#d79b00;strokeWidth=2;" vertex="1" parent="1">
          <mxGeometry x="670" y="710" width="600" height="380" as="geometry" />
        </mxCell>
        <mxCell id="DLSMKTJHFx1a7OPu0qnC-48" value="&lt;font style=&quot;font-size: 16px;&quot;&gt;Server Group&lt;/font&gt;" style="text;html=1;align=center;verticalAlign=middle;whiteSpace=wrap;rounded=0;" vertex="1" parent="1">
          <mxGeometry x="330" y="637" width="135" height="70" as="geometry" />
        </mxCell>
        <mxCell id="DLSMKTJHFx1a7OPu0qnC-49" value="&lt;div style=&quot;font-size: 15px;&quot;&gt;&lt;font style=&quot;font-size: 15px;&quot;&gt;Availability Zone&lt;/font&gt;&lt;/div&gt;&lt;font style=&quot;font-size: 15px;&quot;&gt;Melbourne-qh2-uom&lt;/font&gt;" style="text;html=1;align=center;verticalAlign=middle;whiteSpace=wrap;rounded=0;" vertex="1" parent="1">
          <mxGeometry x="730" y="580" width="160" height="30" as="geometry" />
        </mxCell>
        <mxCell id="DLSMKTJHFx1a7OPu0qnC-50" value="" style="image;points=[];aspect=fixed;html=1;align=center;shadow=0;dashed=0;image=img/lib/allied_telesis/computer_and_terminals/Server_Desktop.svg;" vertex="1" parent="1">
          <mxGeometry x="820" y="972.05" width="90.72" height="115" as="geometry" />
        </mxCell>
        <mxCell id="DLSMKTJHFx1a7OPu0qnC-51" style="edgeStyle=orthogonalEdgeStyle;rounded=0;orthogonalLoop=1;jettySize=auto;html=1;" edge="1" parent="1" source="DLSMKTJHFx1a7OPu0qnC-37" target="DLSMKTJHFx1a7OPu0qnC-50">
          <mxGeometry relative="1" as="geometry" />
        </mxCell>
        <mxCell id="DLSMKTJHFx1a7OPu0qnC-52" value="" style="strokeWidth=2;html=1;shape=mxgraph.flowchart.annotation_2;align=left;labelPosition=right;pointerEvents=1;direction=north;" vertex="1" parent="1">
          <mxGeometry x="770" y="922.05" width="220" height="50" as="geometry" />
        </mxCell>
        <mxCell id="DLSMKTJHFx1a7OPu0qnC-56" value="" style="strokeWidth=2;html=1;shape=mxgraph.flowchart.annotation_1;align=left;pointerEvents=1;direction=north;" vertex="1" parent="1">
          <mxGeometry x="880" y="922.05" width="110" height="24.1" as="geometry" />
        </mxCell>
        <mxCell id="DLSMKTJHFx1a7OPu0qnC-58" value="" style="image;points=[];aspect=fixed;html=1;align=center;shadow=0;dashed=0;image=img/lib/allied_telesis/computer_and_terminals/Server_Desktop.svg;" vertex="1" parent="1">
          <mxGeometry x="710" y="825.9100000000001" width="90" height="114.09" as="geometry" />
        </mxCell>
        <mxCell id="DLSMKTJHFx1a7OPu0qnC-59" value="" style="image;points=[];aspect=fixed;html=1;align=center;shadow=0;dashed=0;image=img/lib/allied_telesis/computer_and_terminals/Server_Desktop.svg;" vertex="1" parent="1">
          <mxGeometry x="830" y="820" width="90" height="114.09" as="geometry" />
        </mxCell>
        <mxCell id="DLSMKTJHFx1a7OPu0qnC-60" value="" style="image;points=[];aspect=fixed;html=1;align=center;shadow=0;dashed=0;image=img/lib/allied_telesis/computer_and_terminals/Server_Desktop.svg;" vertex="1" parent="1">
          <mxGeometry x="950" y="820" width="90" height="114.09" as="geometry" />
        </mxCell>
        <mxCell id="DLSMKTJHFx1a7OPu0qnC-61" value="Master Node" style="text;html=1;align=center;verticalAlign=middle;whiteSpace=wrap;rounded=0;" vertex="1" parent="1">
          <mxGeometry x="890" y="1060" width="90" height="30" as="geometry" />
        </mxCell>
        <mxCell id="DLSMKTJHFx1a7OPu0qnC-62" value="Worker Node1" style="text;html=1;align=center;verticalAlign=middle;whiteSpace=wrap;rounded=0;" vertex="1" parent="1">
          <mxGeometry x="710" y="800" width="90" height="30" as="geometry" />
        </mxCell>
        <mxCell id="DLSMKTJHFx1a7OPu0qnC-63" value="Worker Node2" style="text;html=1;align=center;verticalAlign=middle;whiteSpace=wrap;rounded=0;" vertex="1" parent="1">
          <mxGeometry x="835" y="795.9100000000001" width="90" height="30" as="geometry" />
        </mxCell>
        <mxCell id="DLSMKTJHFx1a7OPu0qnC-64" value="Worker Node3" style="text;html=1;align=center;verticalAlign=middle;whiteSpace=wrap;rounded=0;" vertex="1" parent="1">
          <mxGeometry x="950" y="795.9100000000001" width="90" height="30" as="geometry" />
        </mxCell>
        <mxCell id="DLSMKTJHFx1a7OPu0qnC-65" value="" style="shape=image;verticalLabelPosition=bottom;labelBackgroundColor=default;verticalAlign=top;aspect=fixed;imageAspect=0;image=data:image/png,iVBORw0KGgoAAAANSUhEUgAAANwAAAD8CAYAAAAc9sq3AAAgAElEQVR4Ae2dh7sU1d3H3//nfd+8scS8xpJiYmIS02xpJiYm0cQCKEUFpQiCIhZQQYqINEFBARUQFQUsIIgoWBALIrfs3m13b2+/9/0cHLMuOztnZs7Mztx7zvPcZ+/utDPfc76n/Op/HD9+XOyfxcD2gXj6wH+ILRYBi0BsCFjCxQa1fZBFQMQSzvYCi0CMCFjCxQi2fZRFwBLO9gGLQIwIWMLFCLZ9lEXAEs72AYtAjAhYwsUItn2URcASzvYBi0CMCFjCxQi2fZRFwBLO9gGLQIwIWMLFCLZ9lEXAEs72AYtAjAhYwsUItn2URcASzvYBi0CMCFjCxQi2fZRFwBLO9gGLQIwIWMLFCLZ9lEXAEs72AYtAjAhYwsUItn2URcASzvYBi0CMCFjCxQi2fZRFwBLO9gGLQIwIWMLFCLZ9lEXAEs72AYtAjAhYwsUItn2URcASzvYBi0CMCFjCxQi2fZRFwBLO9gGLQIwIWMLFCLZ9lEXAEs72AYtAjAhYwsUItn2URcASLoV9oLdvSI5lB+TV93rkiV2dsuT5svpb/1qnvPF+jxzPDUhf/1AK32z4V9kSLkVtPDgk8sEXfXLzsoKcPa5FThvVLN+8rkn+58s//ue3cya0yNRVRfmkpV+GLO8S1cKWcIlqjtqV6egelB0Hu2X80rwi2jeubRKvv/+5tknOndAiNz2al12HeqSjxzKvNrrx/moJFy/evp7G0nHP4R7529ycnHK9N8ncSMi1f5+bk71HeqTXLjV9tYHpky3hTCNq4H7FjkHZ8EaXXP1ATv73xmbP2cyNaNW/c69/PpSTTbu7pNg5aKCm9hZ+EbCE84tYROezP4MEz77ZJZfNyqq9WTVhTH3/5vVN8vvZbbJ5b5eUOgeFZ9sSDwKWcPHg7PoU+npbaVAefaEsl87KyhljzM1oXgQ944ZmufTOrCx7sUOyJTvjuTaSwQOWcAbB9HOr/gGRptyA6uy/vD2jJI1eBInqOFLOX03PyPLtHapO/QN2yvPTln7OtYTzg5aBc+nK6NDufbokP7mtVU4dFd+M5kVY6kKd7ttQUnW0tDPQ4FW3sISrAiSqr0gH3/u8T+7fWJLzb20VxPZeBGjUcer241tbZe7Gdnn/8z6rRDfYKSzhDIJZ61Yonj863ieTlhfknPEtkQpDTBMURTp1nrisIIePWyV6rfb1+5slnF/ENM/v7h2S3R/2yq3LC/L9m1sSO5vpkpR3uG15Ub1Td59dbGp2g5NOs4Q7CZLwP+w70itXPRBOWa1LhLjPQ4n+zwdzsv/j3vBAjcA7WMIZanT0Wei1rluQl7PHp39G8yIy78i7btnXbZXoPvqQJZwPsKpPZX9W7h6S7e90y+Vz2uSb1ydH4uhFGFPHT7m+Wf54d1ZeOtAtHd1D1li6upNUfbeEqwJE92tb+6A8/kqH/HFOVlAgm+rAab0PGFw+J6swybVbJbpbP7KEc0Omxu+YQLXkB+TxHZ3ymxmZVEkc4yIySvTf3JGRNTs7paUwYM3GqvqRJVwVIG5fj2X75aFn2pVFBj5ncXXgtD4HjLBemf9su1Kiu+E60n63hKvT4nhNH2nqlwXPleXnUzOWZAGV9T+bkpGHN5flSHP/iFeiW8K5EO7Tln6Ztroo37s5XcrqpM6IeCigy3M80V1gH/Y/W8JVNDHK6reO9MrtjxflvFuSbX6VVGJ51QuzsfMmtsr0NUVBXwnmI6lYwomojT12jqMX5uXbMbrHeHVO3eP/fU2T/HfA5Z7uM6I4D6xHL8rL+8f6ZHCECDZHNOHKXYNKhzbukbycNS59ymqWaRfNyMjklQW5bUVBCSmQEkZBjijvCfZjl+Tl5Xe6pb1reDNvxBGOBQzLGELMXXl/W0P90MJ0YogFyRg0nFIsD8pNS/Opfqcr7m2Tne/1SFfvkAzHxeaIIlyuPChPvdYpV85tMxorJAxxglzL8pGZDQfW6vJ5pl8uTLlEldgrtNGTuzpluCnRhz3h2BvQaATl+d1d0cYKCUKeoNcs3Nxe04wK5fw969tTt6yshQPuQb+9M6vajjAUw2GfN6wJlykOyuLny3LxzIycnkJhSK1OyG8sJ1/Y31U9uX31feMbnaldVtZ659NHNyvLniVby6mPvTLsCEc8js9a+2Xptg65cNrwNL9i5Mdg2q0892bXsCKcQ0LeGyX6oq1lOdo6IGmMvTJsCMdSipj6s9eV5IcTWwUrdqehhtsnM9yG1zvd+KYMiJMcwiFse9C2P5rUKrOeLMmxtnTZa6aecD19Q3LoaJ8i2khSVs/dUHLdw81cWxy2g00lWRlUfnBLq8xeX5KDn/UJfSHpJbWEA9qPm/tlwtKCkjimUf9U2Xn8/I+i++9z22qGLUecjm8e5/i5Z5rPpe2RbN78aEHZviaZdKkkXL48KA89266WFWnuKEHrDpl+PSMjhY5/6+CcTtZWGpBf3J4ZUYSrxJGlJobStbBxMGrkZ+oIRzhwXPsrQR5p/0M44kc250/Ww+FGdN7ElhFLOKcv3LC4oLzxG0muWs9OFeHyHYPKBChMJhmnQdL+edb4FrWkrm7UD7/ok29bD3Q5dVST3LKsoHInVGPUyO+pIRxKzwc2lUf0zFY5SNCh3v7k5MhZez7skVNDpLaqfMZw+H/x1nKivM5TQzgcQYlYPBw6gYl3YJYnvXB12fFuz7BWifjFDr0dy+yklFQQbmBQZMaakSHq1u1Q6KJePXQy4bYf6LaEq3BVQoI5d1MpMbNcKgiHke73bkqf+4wueYKcd+r1zbL3o5OXlJBwOCv9g2CF5DIpRtCpIBx+UiNJz6bTqYgFiQqgumBtc9EdNv5KJYYMQG98cPJqoBq7OL6ngnALt1hhSWUH+sEtLfLe5701/cUITvvuZ70qFkvlNSP9/xXbO+Lgk+czUkG4G5eMXL0bOjf+MNxFMvmtMc1y+d1tUu5yN2MqlAdV2uJvjW5W10C2/0ppGAZTAwXZi5JQEk847OMumTnylkgQhH3aL6Zl5Lr5OVm8paxccsjXVuwYrGlH6XQoZjmWm+982ivP7umUe54qyd/n5uT8SSf2wRDYVEdOy31YgpN1ttEl8YT7PNufyngjQToigqG/3d+mMpC+sL9bDn/RJ4RUJ5lj2EJYidbCgBz4pFfWvdopU1cV5OKZWWWDOBIISLjDTLHxjEs84QiJMJwtS84Yc2IWe2BTu0rcOBBjn+jsGZI9h3tk+uMFFbqOGTXIQJGGa1iO1/MhDDug6V6faMKhfyOaUxoa1E8dmVHOn9SqdIu7P+xRhra8a6MKjpzYZW59q1tuXJSXM29sjt0WM45ZdsqqYt2leBz4J5pw2dJgpAFxiH9PNOCfTWk9kQ44YpMowtpdMOVE7my80tlrJa30DYi8ebhHDXTnTmiJPBf5qaOa5bxbWlQYDPKKE07Bz+Dl59xLZmYbnssu0YQjOCtLAT+g6p7LKL5ye4d8nh1Qa3uMfu/b0C5njjXf4IzeOMfOf65djmb6pZGzmS7B2fNhqzlxWV5Y9kYxA6HeWP5SWYg0hssVs+yaHZ1qhtVtRz/nIeHFRLCRJdGEezai2Bx0IPaGhGWoLBBh2/4u5fripyHrnfudsc0y8bGCQOjq51U+O6n/I7B58e1u+et9bcJsVO9d/Rwj3dfewycro8HoiZ0dkQR9wngC07dGlkQTjhnHTyPqnnvprIyrOz4NvufDXrXM0b1frfOYES6dmZFdh3ok7UnoWfri0MlshCQ1bFj1X96ekcPH+1yX1B09Q8qJthauYX/DObWRJdGEu/rBXCSEY7T20sls3dcl3w1ov8msNmVVYdjlRYN4+z7qlb/Pa5OgOfJ+cmur7P7wZBvQShIgxCEeZVhy1br+hsX5ykfF/n9iCdfeOSgX3BaNOw6RiTt66osF8b/btLvT956OPSBxIU0vH1n99vQPSaF9UNrrWJk4PYgY/SjI+yLYsjBjo0yv1aHr/caejdVD1UreqfJXn+gL2fPWu1fQYxgSmNBrflVZn/8klnCvv98TmefyaaOb5ZHny9I3UL/pId2GNzrl7PHNnssolllYM6BYNiEUwcLmk+Z+2bqvWwlzrpmfU5K8c8a3yOa97kFgnfZ/6vVOZU/JTHHdgpzKRMr+BQGF13s796j32dM7JM/s1tvvgg0W+zsOnrxnq34GQZBmrilGpnslcciBT/uqHxvb90QSjqXLgs3R7N+ckfHU0c3y9OudnuRgptr2VlddY2DsHLEQwVI/TIGo5MXetLtL/jG3Tc4a16xsIP/rX/+W1LI3fKVOEFjn+Vv2dknldfzPtYj60bVBPlxWwoQPZ7ja91GP/HxK/dnop5Nb1UDk1M3tk4yzcRiqL2+gIXMiCccoh+2fQ46oPs8e3yLEcGTUr1cYABid2exTFzquUyckX7c8WghlNtTVMyQ7DnbLpMcKcsHkVk9poI6ryc6DPXVnZQybycFNMFXE/3T2IIWrkMD++Z62r57HjAZGYMPvtUJBVD4LfFEBjX/khArCwTaqT3LSNSqGZSIJxyj//Zvrj5rGGuOaJvnltIxSEyCJq9ftmnMDcvvqopBSCZ8z9DrEQix11t8PVnYu53+eA9Fee79H/vlgTgkhKons9n4EPyVLq1fBZEsn+jJG0sR0RN9GQN2gxEOfSTxMMPnTPW1qFl3wbHtdbCAa+zUSk7C/03l/N1z8/I6CHRvVRpREEm7/J72R7d/cGgYLh7/c2ya7DnXXXWbSISFKpjAgLNtQ2PotdLS3Pu6Vfz2UEySafsTsp1zXJIeOehOOWYUZxu19a/2O1c2tywvKptPvO3H+seyAYHRNKENmkHp72d6+Idn4RpdcfEc2sv1arXfkNwYYBpdGlEQSDmv2Rhkss6m+7+mS2o9BDNOF2XvepnalcggyohOR66Pj9ZfA1Jk0vkEwhPw/ndIqT77aGYkZFHti6s/ymdnQjRRR/o4Cn4QnjSiJJNzU1UWt5VBUjYIQ5LI7sypmiCnO0dHePNyrJJlBiOC862mjm5R5mFdn+bi5L1S4PGZ8pJtHW73J7VUX5zgCGlYF2K76nX2d9zfxybPvXl9yqhXrZ+II58TGNwFsmHsw0qP4RpIZdqbDDeaJXZ3yffYpFRGlgtSPPHe1Ii5X9xqWd6eP9rekrK4Pdf319Ixyawm6t3PqxfISVQzLubAYVNczyPd/zGszoh5x3k/3M3GEw4oe6WEQEKO4BjeaMI6LDCDTHy8aM8JGD6ezb6TOppZs2J4+9mJH3T2ZV4djiUvdo2ijIPc8b2KrHG8Lp8bxeudaxxNHOJS6jVxuVDcenZY6BZnlyMCK4TKK9ur7Bv3+q9szUu7yFtRgZUKevKDPqb4OC5oHn2mXjm7/i2xmtxXby57qjupnRvmdZf0r78ZvyJwowrHPmbYqeQFfGQ2xIPFbiD+CVbzJjnP53VlhiepVyt1DcrHBcHmoGK68LyctNRKIeNWFjh2F21NYXOesr50n3et9whxPFOGw//vTnDajHTRso3D9GTc0CzH7gxSkkmzQEf+HrQt7n6vn5QRfNa+C6uIvFcroMM9mL7vk+eApoNSqJeTeNUz93a4lx57O4OWFtZ/jiSKck2rJDaBG/I6X9r1Plzy9C+qBjnTupQPd8vOpraGkr6gRxi7Oaxnfoge77qFcKGUyS3tHWsvqI2ihU9+wKB/q3aNoe1J+NQWYsYPiwHWJIhwGy3hiRwFu0HteOjOrJaTwagQ67CctJ/RPQR05IdyUFUUt8iNVvGlpITDhSHl197qSkogG2b9W44EwjA4etB2iuA6dq47VTvW7hPmeKMIte7FDmFGiADfIPRnhV7/SEUhg4tYoLAdXvtShggj5rROEm72+qOX6g6Bi+uqib8KxV8NmFMVwWFVAJQYMOHM3RmuQ7hdPBCdrdnZWVjPy/xNDOJZdNy5OToQu9ku4tkSRBAIyYFqEhwFKdt2Ogt0j9ok6hVkJixmu0b0/8WPGLymomdjErFZdz88y/YIDahL0cA4mt64oGB1Qq9+5+ntiCFfqHJILJpuV6DmgBvl01AHVgNX6HnR7g83h/RtK2npHZtw1O/Rj5C/Z2q49w6FCWPZCWdAbRlUg8aPbyqEsYIK0Zb1r8JiIU3CSGMLtPRK/wbJbQ6jZ7a5sXUv3yk753tE+IUJ0kEKoh/0f9yrvA6/Z6LRRTbL1LX0bwA2vd3ou0XnmFfdm5eOmvsC+cR8c65NPW/TeH7UCpl1u2Mf9+3fGkhglPkPmRBCOkW/5Sx2JaYRvXNOkxOA6zpm45lx5X5tcNCOjUiIFXYoRPm/qqqLSV7ktuRBkEDhWt7z8TpdrnEf2g4j7525ol2zAEODKNnJfl/z4tlaVT1tnz0e8krueLGnPvFETkFUDZndxlUQQjhgTNy8rJIZwdMTPM95mPwgCsKBwOsUPbm5RhAhKOjrws3u6lFe2c8/KTxTwuZK3lYnTeZCKnutiToUXNo6sQes6MDikEoU4Cm1sPMnjp1Pe+bRP6TYr362R/09bXYrNrjIRhEPhfdmsaKI0+W7I65pk2uqilt1gtnRy8sNzJrTIk7uwOwy2F4IALHFGL8yr2YmZiL9vXt8sc3xauFOFmWtL6lrnPhBkysqC8jgIVkNRekCy+Xy7QoXD/a96IFc3jZZDRnzh8ETw3TYRKc+JRYNlThwlEYTDBQSP3yQ0AFYlxJLUKYjOa4XmZumHACJMPEoU10+92ilYtSPNXPFSh3J81alX5TkIBB5/pUOuX5CXCY/kv3SwDd65GBzvWlfbGJv9UK00yJX1cf7fuLvTqI1pmL5z/q2tcjyntwd16h/0MxGEe+VgtzHL9jDAcy1h1HS8A+h4f73X3QwNIt69viidIUZOZihMtCBNwAlT9QtmTfR/zCzBqSbKAABj7Hr+fISc0AlDx571/FuTM8juOezfVjYI6RJBuHueLiXCQ4Bl0YSlBS2FL8nrvSxGUOJPXBYuwFCQRo3imi+y/XLNQ97LQKKCfXjMW+rHIPKPeeFMz8IOrs71tNPCmCIyN5xwjLxEQnZevtGfxKH0Kkja8HGDoF71ZTa4bkE+dps9r3fwc5yw5AROQqLn9b5gsmhL2XNGZsZ+ZFtZC0OvZ5o4TnwZMgdFXRpOOCRp37spGXoZpIzUx6sQ3cuv2w1eEISTC7Ok86qX6eOQgtDmft4VwjGAshT2KgQ6wgPcBGHC3oN93BcxOKQ2nHBkpdQJ5xYWUJ3rr7inTSteIYpqBAQ693TOcWwU9x3pDSyK9+rAJo9DNrLmnDfR33vyvkT/wljZq+Ake9GMbCJMvZi9MZ6PujSUcGzm8SJ2OmUjPyHErLVFT7wZt5c83661vKr1PlhZMMiwLE1qQeix6Y2uQGTjnREYPbNHzyJmwtLk2M/i8xdUL6nblg0lHJ1u1MPeG/FaHdf0bxgRr9WwOEBcz2Y/zPNRG5DwI+rG1e0EleehfF/6fFlOC+G1gaUM8S11dJFLtpYDD15h2qDWteOWFKRf366gEjbt/xtKOPKA/dpwCIJaQOr8hrGyTghxPLixRNG5Z71zUJA/uq1Dy3tbuzVDnoiZGh4GJvZVuPigOvEqL+zv8pT21sPR5DGML6I03gaLhhLuo+N9rmZMJoHUuddZ41vkwy+89x3s32opu3WeUX0O+4YnA/pjscci5VZ799f/+C3ozDlvo753QfW7VH/HgOBjjfS+mHmZIHj184N8J7w+UQeiLA0lHCmVosrh7RdwMnvqhE0js42OOkD3+ZcGGFUhFBl9uPaX0zNf+8OHb+fBbt/SUPz+sK/UrbfXeSzRd2pY7OBlwGzvdb84jjOQbt6nt/cMSsqGEY7926TlyTFYvnBaxjOUghKYbC3Lf1akjwrbEVBF+E1zRViAc11S/zIY/HBii+Ay5Kd8eNxs3EgwWqvhu8cSPSlmfbTlzCf0POr9YFt5bsMIx36B1ExhO6yJ6+mkf57T5hnvkZmFzJ+VedfCPp9Qdt293nsdp9EIAqsT2YyIVGWNTKnOfdlvkUUo7Ps410O4h5/zDkOnVAMGw/k5zw/6iUwhSkPmhhEOi3iSIgYFxuR1EA5LAy/PX/ZNU1cWfYUtqFdPdHmrXtb34IZsNy7JaUn12B/etiIvpG7WLdTl7HEtRvSiDEr4vXntJ8vdgyprkcllej3MvY6RN+9Ik7/VgS6+nNcwwm3c3ZUIstEAeD2PWZj3lBgiMr/p0eCRsHgORMDecMIjBdn9QY+Woa/ToAQ08uowlcd51sbX9fckOJBi/TF1ZUHIoYaNIXV2c4itfFb1/1xHUF8GqXqFQY78eEkhHO+x9S09v7567+V2rGGEIzhqdSM16judY9wS76yYEG7cI3ntzkEnQniAGuH3s7MyY01R5ew+3tavZSBd3WjkU6Ouujjx/Bfe9t95CPvQVhqUnYe6VaQtXISIeXLKqBMrEh0CUs/bVngTDhOwa+cni3CkE4uqNIxwYZXHup1O5zw6BwFWvfzXIBxpceuNxnRG7scsRp7u1S93yCfN/Uq/Q7SuMOXg0V5tsvHeJG9E9RKmMEPh1oNgZ+u+Lrnp0fxXOQvqkR+McOUBs3oFvdf1C5JFuGvn5+tVOdSxhhCOjfLPpiZDYELHpHOMXpjzVHrSeW557OtLSq5lFiMzzB9mZ+WOtUUV0xFxN1YpJktbaUDFD9EZRKgXaZGJDGayMPs15QZUTvIFz7XL1Q/k5Ae3kJf8xEDj1A0yTl5Z0FpSsn+mvs61jf4kkleQpCU6ODeEcAhM2Jw2Gljn+TT21Q/qCU3I8Y1AANtLlLukKca7G2Ndr9Fcp0HqnYONI3EjdTonHZ69WNhZtV59OIZQhCBEmKrduCiv1BXs/ZBSzlpb8iQcHftvc9u03slpr6g/Mb070hyNArwhhFu4JTn2czQeHfgPd2c9TZHoXE/u6lSz2JZ9XfJxc790dAe37PDqzLWO8/xTrq+f1JBlLSmyUI7HWZjRWXrueq9HGaVjwOwlpUQ9RP4CnUEkaqI590fYtNKH9NgPxrETDknYFfeGM/51gDH5+ZPJrdLW7r388upAfsAPci5ifoIJ/WjSCSliNQbMLkT3IsAstqpJLwRi+tGkZFiaVGJ51YP5SDw6YiccTn7YrFW+XBL+R8jxeSaaZYTpTo+VDnVduq2sYrCwvGVUJlkjaX0JypRk959KPIhtkqTMqE5fJPMtVjCmS+yEI6qT81JJ+cSWD0kZwoC0lWxxUIUqIFwB/6et0KkJPET+86T0B+rBAIZO0nSJnXB+lbdRNwKxFbft71ZWJo1eLgZtXIQ1UQtsgtbN6zowRx2Dmw7CCh0dX9R9wrn/+te849t4vV/18dgJF1dKYRqOjbjzB4iIrpEsnj2+RX5xe6tSuD7/Vldqll/VjTecvrME3n6gWyY8mpfLZmXUPhS3HfwUCcTktKPz6ZAiys9ZT5SMQxwr4RiFkQZGBZIimXLxbxJ0KSiexzycV6Hq5m4sydOvd8pr7/WoxBMY6yJmb5RYASwK5QF559NeNbq/+l6Pp/G08dYXUTm7SfrxxK4Oee29bhVIB8FWo2Z7iIe5V2thQA5+1isvvdOtAtnOXldUEaOxCCL2zFnjvrR6iVB/RzAk0yuHWAnXnEdgEs1anVGQUG4sAzA+RbmO2RCiapS1jSh03Nz/W/djaYI3OR0bsyHieFw+Jyvn3dKicn+fNurESI4vGw6ucRVmlJ9NySibSfYszP7fndAiF8/IqlDkM9cWlXE15+HuQ/tBhkaREasXMEV3h3kcli+EV/eKDxp0gMecra3dbOeJlXDP7e0SOldQANyuY2a7Zn5OKzRbVJ2ZkRB3GAKmvvR2tzy4qV2unpeTC6dmlEczimCU0SyJ3N6D36+a1xa5shoM0B9efIf3aoP6UnfUDT+c1Cq/uzMrKP/Xvdophz7vVQkrdSItR4V7T/+QysMQxd6P5SwBn0yW2AiHxcOMNdEYLLPZJn5inIXRHkt8oo5hM4iPGuRiqeOEAnf2G346AysAHc/zsO/6/rE+7USQzgChluxfDhiYs+EhjT7wkllZuf7hnHLHWf5ih3auuLDv4FxP258xxvxAznvPeard6LIyNsJhUUBIAKfxTH3SqS+bmRWCs/op7N3YL7DsLLOfI+7+0AlTJZ374HVNgkRn5jL1Puh/dBTwOnWsdw6xO/A2N1Vv2oEZHCK+9r7erMASkT/yLzCA4fip9tU+N9aEh8BxlDqYeh/nPpfjmNztr2/Vwz02wn3a2i9njTPXwA4gjLpEiMpq5k2DZEea+uWJnZ0qjwBuMz+f2qqWpDhgPvZih1Zeb0K0XxtByiWEAnTCqAsrjhsWmY8Jiac5y1WvAklYHSx4rqyMvjGGQNBFGiviQ777Wa+nMbnzDPSn+O85fcLkJwYRx9rMGUTERrjX3u8xFu2qGtBTRjUpSZ9bP+0bGFLSOBwLxy7JKyWrWu5V5Btzlkunj26Sbfv1bBCJTGxyKcPmf/NevWc7nS3MJ88yKXBgiUmQJZ3C3ggD9lqzEr99Z2yzXDUvp7KTMhu7eV4wOCEoq+4Tpr6zj3vzsLmIzLERbt1rGN2an/IdYH89PaNCVfd9ORgphWrvkOw93CMz1xRVXmnd8HZYPjATehWWsSw5anUap166nxCePSBLq7gKz+KZPFu3nm7ngcGlM7PKcdWr/gSIvW2FdwAp6oWhNstsshCRYRV3IwRUainaMySbdncKeQHc6hX2d/rss2/qDSJe783x2AiH6RHr+7AA1Lv+f29oVu76iLMnPpZXe0aUp+wt6l1XfQzFOIk3vAqkxiIey/zqe/j9jj3kA5v8bdBx3nz5QLcK0X7nkyXZebDHdSao9S50XJ7Js/3Wt/p8OibOtjrL4RMJXPxtL2hDVh+E8rtufk5uWpqX392VVTO0iQGj+n2c70hnsY4yVWIj3NJtHZETzgEp7CejNfoyHT9t60oAABBXSURBVF8yzJJQSYR9JtI+P9lbqNuizeWvLdNZ/jy6rexLqsYzeXbY+qMD1YkSBskf3pycNFVe7w3h1uxMIeEIGhTlktILOL/Hf3MHghi95d2eD3tDBTOF4JNXFHwplMnZVsut5fxJerOzM2IzS/PsMMti8oaz3NMpCEsSk89dY2bHHPB5g0GFYpvh3jzcm5i0wjrkA+inNI1XsX7AuzlMp93xrv7GHNH5uMXuEkbis6Dm0C08WweTWufwzjcvLWgvZd3yote6dxJ+w/qGcOymSmyEwzbuJ7eFX7rE2QgIYnRddohydWXATK4kPCTmpG556UD315aS1ZggHMLaRbfw7IsCJlXBHO0LTbE5udPTNLuBKyonZmVTJTbCsecgajE2e9UdJKnf2agvfb5De6n31se9ctZYfwIUltlrNEKCOw3OHog4jl6YEaOFc3ULYcn9LvkR6+vOzCxdV23vCLUK8Hpn08fpqw9v8Y4erYsx58VGOB6GGBq3GNPARHm/X0zLaHv+YiRNzBE/2WAYQXWtZOi0W/ae8BvzemeWQpvf1M9Bh7E3dfG6r3McAQ25vHXtKHPtA0JYd+f6NHxePDOjjM/9EMrr3FgJR2XW7oxWH2e6IRnlMNZ1U7xWAwwpHnimXUsiizgbcb5uYcAig6qOGJxzfjql1Zdej7ro3Bs1wh1ritozKIYH9z5V0sLEdPsFvR8GAQj6TJfYCUdgm6mrC8r6PCgYcV+Hng2rEt1CoJ8ZjxflVA9FP426x4cVAzFM/AhmOJcYJ7qFunhZnqBLHbMopy3B5dmvv9ejvLnjbregz6PdZq8veYa+18W18rzYCcfDUdjq7EOCAmb6Ojou/mu5sp6agHfE1nLqqoLrvoiZhBDiOnaH3K85N+BryedgQEacppyeLSB1uXpem+ssx2w/ZlFeMETXLRgk855+Bgqn7o36HPWwd9h73fevPq8hhKMS6JGiMjiNoqEY2Sc9VvA16uFVzjKt1qyBJHH7Ab0lC0uy6auLgQROLP8Ia4HqQqegT6sVpJf3J6+Crm6SZ7G/I4eEX2FMFO2ne0/yBBI1O6rSMMLxQq9/0PNVnHpdQBp5HksN9qB6XfdEk+H+Q0jwak8JXJV0cmBzF6JHVV/vB4fvjGuRtzU9yXFVqhbdY6CNuZyucMfprATLRbjip66NPBe1FZLmKEtDCYfdHRFuMZ9pJNB+nk22TuKQ+CmoRLBWIK0xSytCpWM6pmN3iGifmTWsvSPGvzpqAuqEfSV1ZNl75o3NSm3R63PQxx0LoY0fbBt5LkbSeLEj9IqyNJRwvBj7OTaoUYReiKIBIQwK8Q+O+bM+oLMzy+BD972bW4T8Cl6Ftt91qFu5qoR9F8yvVO5vjQ5F3c6d0Cx/vDsrO97t1vKcqHwX3Gn+NMe8s3FYDNyuZ3nPIOPHOqfyff3833DCUVmCwpCFxQ2QJP5OEg+y2fgtCFOIHNavMb2hG/vzPWbi7jNQcC+dZSF1wwQr70NI5OBAW95Qx+wsiW2JkMQr+63zfmE/E0E4XoLEGJfemZ5REYkdXgJR+q/h+mNyD3T6GH3dUpClFWQmvktahCQs05nFj2X9D5xBiZcYwvECBIOJKoxeFCMrDUbwHGwETRfs94iQZbreCERM2gY6742wBUlqWsgGroTB87sfd9436GeiCIdwgY0rUbhMd7So7sdMh92iyVESHJBsRuGwS33nP6vn66fbqVj6IpRJE9kI4YAnN1jHWRJFOF4c4cL9G9o9rTSiIlDQ+/5xdlYOHe0zIuViH0QIAtJOsaEPK6F03gmLGVYQNy8rGItExUBz4+JcJIODU2/Tn7heEbwoyLI5LDkTRzheCHeRa+a7+3uZbgBT9/v51IzsPNSjJX6v13B0BDbxRzMDgivOfU+X5M9z2hQBz7zxhGrhP/91XInuEd9X/xG6j3ciUcl5E1tUaPDZ60rywv5uFQUaQoftbAg7CUNx+d3ZQAp5U5j7vQ+D19glBV/WMvXayu+xRBKOlyCN0R/ntKVmaUnDo7fCPQf7RfY0JguWIgho2HMQ4vvxlztVqAISL+L2dPe6kszdUJKFm8uycnuHijyGwrw5bz5XHBYkSDEJ7qNj7OyXFFGeT74AfBcbVRJLOABB689aO8oGiOLe7GVQc5BTIKrCDIVmgSU4+xD++J/fws5e9eqcbx+U6auKqdpnO21M4sd3j3rrP+u9f9hjiSYcnYjYiUnMkOk0Yr1P/MsIOFvw4c0dtkGjup5gSSjO/xLQq70eTnEc++5NLWp5rqH+jApCdd9EE855c/zL4miUqJ4x/pG8DDa6pR0wA37etwEj7BPL5qhwivK+C7fouykFhEjrslQQjuCfdNo0iZ2dzoNoHzF82gthyVEpOO+Vlk/6DBJfnRB+cbRRKggHEFgxEOU4LQ3t1POU65rkyVfNp66No3NUPuPxHekyMnfwxwRP1yuj8n2j+j81hAMAkhX+OGWRv5gVZj5RdG0/VpomxPSuD9A84GQPcjsdD3ZT+kCHDFF/kmzyYIOFJNV4popwVJ4kEOdM8BcmO+qGrXd/ljSEAHcrZPIhajHW6sQ/ZCbH4VTDqN/tllq/I5CC6Dhbrt3ZofKdkznWrTDDpWlJjysUaZyTVlJHODojG2D8l+p19KQcw6nxaOZk9QDJQsgxR8oodFns9b4ztkWI+DxlZVE2vtGp1Aq6wYt0OhZqA3R5eHXf81S7cqGhY+KRjjcB4RNYRZBso7rwDmnx0Od9lr1Ybliq6WrsKr+njnBUHh+6ySuTbyjLoECuM2aT6oI3NElD6OjVgwO/sRTFDOu3s7Jy6/KCEECIQEakTsIX7/NsvzIOIC8exsj88X9rcUDlKGC2OvBJrxLlE/fyridLKrYIpMHEy+25Z49rEepWXXiHJVuTP9AhSZ2xRj/KWvV7Rv09lYQDFCz0/3SPeWv66s4f5jv+Z7WCBGHse8lMf3WHgDjpEm8SL2zIShKOC6e1ykV3ZNQfMT9/MrlVSCJ45tgWpZzGFhOPej/7r9/fla0p1eNdWP6GwSTqa6+8vy0SbwhTREwt4QCAPNV+gpdG3diV92cWwQ6yumAFwoxjKqwEM9XX/jQSVFTWs9b/7NXcwg2wHIXEta5r9G8MPPX2odVt0YjvqSYcgGEsnER3HtxVakUlJsTcnwwlcYyqg0PgK+6pLU7nnVjiRvXsoPcl2vUbHyRPSFJN6tQTjg6w9IVyokhHokCMr2uVg5/1hYrAFbRD+r2OKGHUtVZhOf+H2f6WxH6f7+d8ltirXulIpJCkGr/UE44XYpnGRjkJlhAsx3CDcSsIP0wtJ/10Sr/nIjVdss3dHAr1TBLUBLQ5AqG0lGFBOMBmRvnr/Y3d0NP4KIjdRPn4uOE/5rfzN+p86kpczVqFd5y1tthQx1MEQf960F/Y9VrvEudvw4ZwgNb0//5i5FprVAfFP6xePjnC5BGurlH18/tcXKNQLbiVlvxAQ3Vzl8zKKlWIW/2S+PuwIhwA7zjY0xAfOgQNhALvr6Fzo14onUnvxHl+O36jzqeui7e65wxHN8c7N+Kdzh7XrCJ3J5FU9eo07AjHfu6JnR2xzySEOcCNqIaRhsIfD3B8yRrROYMSlrpSZzfvdd517sZ2IXFl0GcEue6scc3y9OvRR0muR5ygx4Yd4QCCcAR3rSvF2gnonCTucCPcW0d6UiGdrCYA5mZ7P6otbmfWJnde3IPIfRvafUeDDkoQ09cNS8IBEnErrp2fi1Ui+Nu7sjW9uwmKNGpBTr6RQn8y6nzNQ7ma1hvZ4kDg3ODVxNb5jlSUqM5p9qAftoSDdC2FwViFKHSIycsLgumWU7D+xwHSj2mVTueL8xzqftPSgkpV5cRLaS0MyJiF+VhVMZfMzEi2+G9sHYzT9DmsCUfnII4/8R3j6qB0zovvyMrklQW5ZVlBJf6IIqBrXO/jPAeVB+mOiTQ9ZnFe2XA6x+L4xOgaw22H8GkiWWVdhzXhnBd95k29RPRxdBz7DP8CFsy2SPc1HMqIIBwZa4jdmATLCEs4f4TD3Qbpr5sxQdpIOCIIR6PQYGy4k2D+ZUmnRzraasLSvHa65DSQb8QQjsbAa5mNt+3weh2+0ThhBG4ySUoSCDmiCAfgBz7tlQtSFoio0R2/Ec9HQHNII0tsEkjkpw4jjnBIuUhTxN6gER3JPtMb99NGN8nWt04O8+CnYyf13BFHOBqC/dy8TeXEei6PZFKS8RWbU6yFhmMZkYSjIfsHRKXHHcmdO4nvPnlFMRWOpEEHgxFLOAAj8lWSPJeTSIC46oREktATx3O1PeWDdvCkXTeiCUdjHGvrT10057hIEOdziJJMzMzhXkY84RCikBIrTY6hcRIhjmfhbrNtf3fqzbZ0BosRTzhAwqXmkW1l+VZCw7/F0ekb9YwzxjSrjK1pt5HUIRvnWMJ9iRTxRgj/Zi1RvMX2psgJ1tNWFVUkbd0Om/bzLOEqWjBTOhGIyJIuetKB8T/m5SQ3DLLDVnQhz38t4aogOvxFv1w41Zp/mZrF3O5DxOwjEeZAr2rWxHy1hKtqCvZzL7zdreLzu3UW+3u4GZCMPS+/OzKEJFXdy+7hqgHhO6Rb/UqnyjJjyRWOXNX4kZdg7c5O19gvtdpjOP1mZziX1uzoGZKZa0uWdAaSgzikw2xrzvrSiBKSVHcvS7hqRCq+9/WLzF5Xamh0Yaezpv2TMBP3bSgNa7Otiq7j+q8lnCs0Jw6QlveJnZ3yq+kZqzIIMNshjSSN1PrXOkf0zOZ0M0s4BwmPz0xxUOZtapcLJrcqLwPCNTBq06Hs378xABOwYa+GtPfhLeURJ/qv15Us4eqhU3UMYQqpmvYd6ZVn9nTJshc7ZNHWsv37EgPCoq/Y3qFM5d7+pFfFshwpFiRVXcX1qyWcKzT2gEXAPAKWcOYxtXe0CLgiYAnnCo09YBEwj4AlnHlM7R0tAq4IWMK5QmMPWATMI2AJZx5Te0eLgCsClnCu0NgDFgHzCFjCmcfU3tEi4IqAJZwrNPaARcA8ApZw5jG1d7QIuCJgCecKjT1gETCPgCWceUztHS0CrghYwrlCYw9YBMwjYAlnHlN7R4uAKwKWcK7Q2AMWAfMIWMKZx9Te0SLgioAlnCs09oBFwDwClnDmMbV3tAi4ImAJ5wqNPWARMI+AJZx5TO0dLQKuCFjCuUJjD1gEzCNgCWceU3tHi4ArApZwrtDYAxYB8whYwpnH1N7RIuCKgCWcKzT2gEXAPAKWcOYxtXe0CLgiYAnnCo09YBEwj4AlnHlM7R0tAq4IWMK5QmMPWATMI2AJZx5Te0eLgCsClnCu0NgDFgHzCFjCmcfU3tEi4IqAJZwrNPaARcA8ApZw5jG1d7QIuCJgCecKjT1gETCPgCWceUztHS0CrghYwrlCYw9YBMwjYAlnHlN7R4uAKwKWcK7Q2AMWAfMIWMKZx9Te0SLgioAlnCs09oBFwDwClnDmMbV3tAi4ImAJ5wqNPWARMI+AJZx5TO0dLQKuCFjCuUJjD1gEzCNgCWceU3tHi4ArApZwrtDYAxYB8whYwpnH1N7RIuCKgCWcKzT2gEXAPAL/B8QMudXly4HMAAAAAElFTkSuQmCC;" vertex="1" parent="1">
          <mxGeometry x="1160" y="809.5" width="92.54" height="106" as="geometry" />
        </mxCell>
        <mxCell id="DLSMKTJHFx1a7OPu0qnC-66" value="" style="shape=image;verticalLabelPosition=bottom;labelBackgroundColor=default;verticalAlign=top;aspect=fixed;imageAspect=0;image=data:image/png,iVBORw0KGgoAAAANSUhEUgAAAUQAAAFoCAYAAAAvhIKLAAAgAElEQVR4Ae19h39URdju/Svud797v++SUBQrqHSk2BAFGyoqCiioqKiAogJWRFRQ6U3pvYXea0ILAUJIgPTee+9l97n3meTEZdlkS7aefc/vd36b7J4y88zMM++8bf4H5BAEBAFBQBBQCPwPwUEQEAQEAUGgGQEhROkJgoAgIAi0ICCEKF1BEBAEBIEWBIQQpSsIAoKAINCCgBCidAVBQBAQBFoQEEKUriAICAKCQAsCQojSFQQBQUAQaEFACFG6giAgCAgCLQgIIUpXEAQEAUGgBQEhROkKgoAgIAi0ICCEKF1BEBAEBIEWBIQQpSsIAoKAINCCgBCidAVBQBAQBFoQEEKUriAICAKCQAsCQojSFQQBQUAQaEFACFG6giAgCAgCLQgIIUpXEAQEAUGgBQEhROkKgoAgIAi0ICCEKF1BEBAEBIEWBIQQpSsIAoKAINCCgBCidAVBQBAQBFoQEEKUruA6BIxNMBrqYGyqhrGxHMaGEhjqC2Goy4OhNgeGmiwYajLQVJ2GpuoUNFUlo6kqqfmsTEST6VmV2PIbr0lBU3Wquo/3q+fU5sJQlw9DfRGMDaUwNlao98JQDxgNrqujPFlXCAgh6qo5vasyJCaSWkNxGOrzjqI2cxtqUlaiOn4eqqK/Q2XUNFREfIiKa2NRHvY6ykJfQtml51F24RmUXngSpeeHtpxPqP/LLg5D2aURKLv8MsqvjEZF+HhU3PgIlTe/RFXMj6hJ+BM1Kf+gNmsn6vNPoqEkHIbqVBgbK70LGCmN1yIghOi1TeP9BaP0R6mssfwWGgrOoi5rN2pTVqE67ldU3voKlZGTUXH9fZSHj0P51bdQHvYayi6T9Eag9OKzKL3wVDPhnRuE0pABKAnuj5Lgvig52wclZ3uj5Gwvk7M3SoL7NP8e0h+lIQNRem4wSs+TLJ9G2cXhKAsd2UKWr6P86hhUhL+LiogPUBn5Kapuz1BEXJu6BvXZ+9BQdAFNFXEw1BcDhgbvB1tK6BYEhBDdArPvv4RSFpemjWU30VB4DnU5B1CbvgE1iQuVdFYZNQUV4e+hPOxVlF54BiXB/UzIzJTYPPF3b0W4ZRefRfmV11FxfSIqb36B6tifUZO0FLUZW1CfexgNRZfQVBEDQ20ujE01vt9oUgO7ERBCtBsyP7iBuj8SYF1+s66uIlpJgLXpm5ulvxuTlSRGCe1OKc4TZNfxd1LK5BK8MmoqqhP+RF3mjhYJMhZN1elK70k9qOgi9d/3hRD138Z21tCoyLCx9Dpq0zeh8vYMlF1+US1R717GdpyMvJNQe6P0/BCUX3kDVTE/oS5rl5IcjY3VdmIpl/saAkKIvtZiTi8vCbBC6QHrcvahJmG+MlRQ51cW+qLSzzXr96jX0ysBWqhXcB+UnnscpTTkXH4F5VffBtUCNUlLlIGIxiIlNTq9PeSBnkRACNGT6Hvq3UZDszGk9Drqcw4oPVrV7ZmouD5BGSa8S/9ngaw8RMwkyPLLL6MiYhKqYn5ATcrfqM87piYTWtRlSe2pDu289wohOg9Lr36S0VCvLKr09WssuaL0ZNWxs5Xkw4HuV9Kfkwi19PyTahKhG1F9zn5QzUCfSmNDOWBs9Or+IIWzjIAQomVcdPKtUQ1Musc01WSgPu8kqmPnoCz0BS+zAnuPFOjoxFAa0h/lV99ETcICZa2mQYqTEIxNOulL/lENIUQdtzN1XA3Fl1GTvFz5BGo6wZKQ/hb8/HyflBwlM+fcR9eega06RzqL16atR2NZJACjjnuZvqomhKiv9lQSCcPfGBlSk7QYlZGfNfsGnh8iy2InLZVtIVBG2lBirLw5HTUpq1BfcAaGmkzRM3r5eBNC9PIGsq14zZbipsoENBSGoCZ5mQqJo47Lf1xlvFTCDe6nHNVpoa5NW9vs/M1wwqZakRxt69xuvUoI0a1wO/tlRjWwGH7WUHJFhaYxfK15SeylBOFGKc0WSc6t14QMbNYzJi9HY0U0DExCQT2jHF6DgBCi1zSFAwUxNKA+/zSqor9HGUPmzj/RYiwxjwMWcnQr8bVJ+r3VZMUYbjp9V8fPV4kvHGh5ucVFCAghughYVz7WUJutiLA68S+1NGZiA/Ed9DHSD+6vrP2VkZ+jJnmFWkob64tc2W3k2TYgIIRoA0jecAl1Tg0VKajJOY/qpNXgQKKk0ZwdxsfIoE0Jyg/rEdIfZZeeQ9Wtb1CXuRON5TdV3khx8vbMqBNC9Azutr/V2ARDfTnqim6i5PbfyD49FrnHh6DolB+Sh86JlP6hjIBpoEWaGXcMYnixfaA450ohROfg6LKnGOrLUJ64CxnHxyJu2xOI3fI4Erf3Q8a+PkKKeiNIxk+HDFThk9UJ85tDAg11Lutb8uC7ERBCvBsTr/iGRFiVfgT5YXOQengM4rcNRczGfuqM3dQPCdv6Ii2oL/KP9UbxaZEWvcNo4qR2CO6nSJFqETp3M0ejLKHdMyyFEN2Ds81vMTbWoK44BqWxm5F1ZjISdw1D7Kb+rWTYSoob+yFucz+kBvVF7pHeIi3qTVo820tJi8w6xFhpJuXlXjQSI23zUHLoQiFEh2BzwU3GJjTVFqImPxyF1/9E8p5nEWOBCDVC1D4pLabs6oucw0KKupISTQieuRkrb3yCuux9aqMtY2OVCzqgPJIICCF6ST/gErkicTPSj72DuK0DEbPxbqlQI0FLn4nb+yL7YB9ZPpsQia4IkvrFC0+rhLWNpeFe0mv1VwwhRE+3qdGA2sIbyA/7CSkHRzfrCjc16wotEV9b31FSTNzWVxlbCk6IY7auyFAj+eC+4L4w3LyLWby55aoczkVACNG5eNr+NC6Rq3NQkXoMuZd+QFLQcMRuGnCXrrAtArT0vWZsoQU6/7iQoi5JkbrFc0PUjoK1aevQWBalMp7b3vHkyvYQEEJsDx0X/ca9OerLElGWsBMZJyYibuvjHSJCc3KM39oP6Xv7IP9EbxSfcZLlU5NS5NNrsgYxnRu3fOWWqkZupyq5Fzs8YoUQOwyhnQ8wGlBfEoPC8F+QsOtpxDiwPDYnQEv/x23ph5TdfVFwspeQoo5JvDS4LyrCx6E+7ziMDWWSQcfO4Wh+uRCiOSKu/N9oRGX6SWSHTEPirucQu5nGE/v1hTbds6kfSIrJu/ogj76KIil6jWTn3KV8b5SeG6S2UeUSuqkqxZU9WPfPFkJ0RxNzU6eGapQl7kHW2c+RsPMZ1xGhGcE2+yr2Qe5RIUXnEpGXqSKC+4I+i8yFSb2iHI4hIIToGG4232VsqkNDRSbKUo4i7Shdaga7jQw1SVIjxTwhRZ1Kif+Sc1nYKFQn/InG8ttQ/opGg819VS4UP0SX9gGjoRENFekoidmMhO1DLEacaKTl6k+SIpfPBSdEp6hrSZFW6IvPoPLmF2hqtUALKdo60EVCtBUpB66rK7mN/Gt/IDFopEfJUCNbRYo7+yLvuCyfdU2KwX3BPV0qbnyE+vwTMDSUONB7/fMWIUQXtLuhoQq1BeHIC/sFyftGeQUZmpJialCzoUXXpKBjy7JN7cbIlvNDURn5KeqydoPbokqCCOuDXQjROkZ2XdFUV4rq3DDkXZ6NxN0jXOZWoxGcI5+0PqftEedtm4jFx4mVFuiKiA+bI1tqcwHZw6Xd8SyE2C489v3ITDXVuaHIC/0BsZvti0V2hNg6cg+dt0mKKtGsuOTo29gS3A/lYa+hPucguP2EZMxpe1wLIbaNjd2/ML1/zoWZiDPJXdgR0nL1vc0RLX1ReErC/HQvLbZsVVCXub2ZFO3u3f5xgxCiE9rZ0FiNmrww5Fz4tnmZbOYL6Gpic/T5KvZ5az9kHeyDwpNCironRUa1XHsHtekbhRTbGPdCiG0AY+vXhoYK1BZEIDf0ByQGjXC7j6GjZGh6X9KOvsg+JPkUdU+I1IeSFK9PQF3GtuZsOcYGW7u6X1wnhNiBZqbTdW1RFArC/0Tc1iE+SYYaMTLJLDNvS4jfv07OuiXI4P4ovzpGxT83W5+bOjAK9HWrEGIH2rOhIhmFN5YgfhujT7zbiKIRX1ufKvP27mZ9opCi/kmRm1mVX34Z9QWnW5JCdGAg6OhWIURHGlOl+y9C0Y2lSNk/yitda9oivva+j9/aV1meC2WLU31bnZUrUW+UhgxAZeRnqM8/Ce77LYeE7jnQB4xoqitDacwmpB5+2+vda9ojQPPfKCWSFMXIon8JUVMHlJ5/ElXR36Gh+JIDY0F/t4iEaGeb0vG6KjMEKQdGIW6LC9N3echSTVJM3MFNq2R/Fo009P5Zduk5VMXORlN1Oox+7rgthGgnIVZlnUfqgRddm8vQQ2RoKjFye1PmUdQ7GUj9mqVhRYpxc2GozbFzROjrciFEO9qzKvMMcs59gbitg2zaItSUYHzt7/gtzdsQiNO2nyyfleP286hNW+vXSWaFEG0hRGMT6ooiW+KTh/u0e409xMytTTMP9EHRaT8hBR+PW+6wtBvcB+VX30ZzNEuuLSNDd9cIIVppUqOhAY01eSi6sQDJ+1/1GzIkcWr6RLUFgZCi36gPNMuzP2bHEUK0QohNtUWoSj+GpH0v68a9xh4pUcu2Ldua+o+UzFyK1fG/AgZGsRitjBB9/SyE2F57GptQnXsVqYdGeyT1vz3E5cprSYpZB/pA/BP9gBSDe6Pq9kw0FIf5HRmSCoQQ2yHEmrxryAv9qdm9ZpNvR6J0lDCTdtIVR6zOHdbTebOeMrgvKqOmqizbxobSdkaGfn8SQmyjbRsqM1AYsQhJQf5jRGmPNGM390PqHu7JIqSoR1IsPTcEFeHjUZ93tDm7dhvjQu9fCyHe1cJG0JBSFrcZaUfH+ZURpT1C5G8J2/oic38fSQDhzVKeA2VjCF/5tXGoy9kPf5UMNRoQQtSQaPls3jY0HRmnPvZrvaElclRW5+19QQOLJIDQjz5RpQPL2gVjU5Xf77sihGhGiPUVaci7/BMSdz/nl1ZlS0Ro+h0NLNx6QJbOOiDE4N4quUNd9l5JGNvCA0KIJoTYWJ2HssQ9SNz1tO5D80xJzp6/VQKILX2RfVgctn1Wl8htSi8Oazag5B3x+3A9EwoQK7MGhtHYhMrMM8g6M1n0hjbEUqtY56NiYPE5UgwZgLLQkai8PQONZTdgbKzUhoB8itvNv32gqa4EhTdWIp5xyjYQgr9fw6VzhhhYfC56pfzK66hJXQNDTSagtg/wL8frf0e85b9kydyCS2nsVqQdEauyPUSfTN/EIyIler2UGNwXZReHoyrmJ+VjaKjJaIlCsUwK/vyt3xMircr1pfHICp6KeB/ZPtQe0nLltfFbmjNsF0ucs9dKiiTCyhufoCZlJRpLrsl2AVbY3u8JsbGmAMU3VyBp7yuyVHZAVcCMOJL8wcsszjSanB+K8rBXURXzY0vkSblfhuJZ4b+7fvZvQjQaUFsch6Q9I8Sq7AAZUvqM29IPNLDIvs7eQ4qlF55CZeRkNBSchaGu0O99C+9ivXa+8GtCrCuJQeF1bQtR/45VdnRpTTcckiJ1iZI30YOkGNwHKut19Leoz9mPpsr45qgTY2M7w19+MkfAbwnRaGhEecpRpB4cjdhNA2S57KCEqBEpnbUlRZj7CbH03GCUXxmtNoqqTd+ExpKrMNQVmI9z+d9GBPyWEOvLU5EfvlBXu+Zp5OSJT8Y5Zx+SOGeXW5yD+6D03CDlS8js1pU3p6M2dQ0ayyJhbKoWPaGNxNfWZX5KiEaURK9VeQ49QR56facK6TspbjjOJcXeKAnug5LgfigJ6Q/qByuujUV10mI0FF2Gob6orbEt3zuAgP8RotEAQ0MVci7+gLhtQ2Sp3MGlsim5J+3oi6xDfbzWBcW5ROWG5bEKsXsWFRHvozruV9Rm7kBDUSiaqpJgqMtrjjIRHaEDtNf2LX5HiIaGSpQn7UXq4bFChk4kQxJj83YDfVF0WqREq+QbMkBJe2WhL6D8yhuouP6esgxX3vpKOVBXJ8xXESVMvNBQeA6N5bdUzLEsi9smM2f84n+EWF+O0tgNyLn4PTLPTJPTyRjknp+G8oipqIycgsooOe/EYCoqb36BKpJe9Peojv8dNcnLUJu2AXXZQajPO46GootoLItSW4EaG8oBY5Mzxrk8w0YE/I4Q2cEMDaUw1BfK6TIMipRui/otOf/FgMlXjY3MOUhXGIkhtpGj3HqZ/xEi4eWsK6dg4JE+YBAydCvF2fcy/yRE+zCSqwUBQcBPEBBC9JOGlmoKAoKAdQSEEK1jJFcIAoKAnyAghOgnDS3VFAQEAesICCFax0iuEAQEAT9BQAjRTxpaqikICALWERBCtI6RXCEICAJ+goAQop80tFRTEBAErCMghGgdI7lCEBAE/AQBIUQ/aWippiAgCFhHQAjROkZyhSAgCPgJAkKIftLQUk1BQBCwjoAQonWM5ApBQBDwEwSEEP2koaWagoAgYB0BIUTrGMkVgoAg4CcI6JIQG5uaUFNbh4qqajk9jEFldQ2qautQ3WjQzVnTaERNkxG1TUbUNRnRYDCi0WBEkxEwSN5Xn6ZO3RGiwWjE9YRUzF+/HeO/mS2nhzF4f/YCTF29B3OvZOH3yCJdnPMii7HkdgnWx5dhT2oFTmdV41pBLeLL6pFX04RGg+TD9lVW1B0hUjpcsn0/Xhw/CQ/3GySnhzHoOXQ4+rzzKYbsuImhh9J1cz5zJAMjjmdi1MksjDmTjfdCcvDRhVxMu5yPnyOKsC6+DKezqhRJVjcaRXL0EYbUHSHWNzRg0re/oEe/wejSKUBOT2PQpRs693sKnZadR6ct8ei0LUnXZ+D2JNy3KwXDjmbgw/O5+O1GEbYlleN8bjVSKxqU2sBHuMEvi6krQuRymTqr18Z9gG73PSRk6Gky1N7/cC8E/LYfnTbc0jUZWiL7gG1J6LwjGa+dysLy6BLcKKpFaX0T6g1GGEXf6HWkqytCpPI+IiEFw58biS4BnYUQNULy9OcDPRHwxTJ0Whnmd4SokeQ9O5PRIygFzx/LxC8RRbhZXIcqKhvl8CoEdEWIWQXFWLHnGB4fNFTI0NMkaPr+7g8icNwMBCw647eEqBHjvTuTMehgOt4NycHy6FJEFNaiSURFryFFXRFibGoGPpi9EI/06ieEaEpInv67W3d0fn4sAn4/6PeEqBFj5+1JSs/43bUCHM2oRE51o1pGew0z+GlBdEWI12/H4YmxH+O+B3sKIXqaBE3f37nZsBIwe4cQoplR6f5dKRhxLBM7ksuRXNGgfBv9lIu8otq6IsTL4RF4cPCz6HZPdyFEU0Ly9N/U5977AAJmrkOnrYlCiiakSKNLlx3JeGRPivLRjCmt9wpi8NdC6IYQGxqbcCbkPLrd+wC6BIpBxetcjgK7IHDKInRaFyWEaEKI2hKa7jrULX5/rQBRRXUq+sVfScmT9dYNIeYUlWLDjj0iGXpaGmzn/YHv/4SA5ReFEC0QIomR0uLgg+mYfb0QCWX1KjzQk+Tgj+/WDSFei03GjPlLhBDbISRPS42Bb05FwB9HhRDbIERFituT0GtfGlbFlCqdYqNYoN3Ky7ohxCOXwvHWlJlCiF5MiJ1feBcBP4lhRVsmt/VJC3TPPanYkVyB0nrxVXQnI+qGELcfPYOnx0wUQvRmQnxqFAK/WS0SYjsSorZ0pqHlzTPZ2JNSIX6KbmRE3RDimp370GvYS0KI3kyI/Z9G4JSFQohWCFGTHB8OSsGU0HxcLaDzthtZwY9fpRtCXL5uE+7vM0gI0YsJsUuPvgj8cI4Qoo2ESGIccigdcyKKUFjLtGLCiq7mal0QotFoxKJlK9C1+4NCiN5MiPc8oEL4NAlIPq1n/qHl+YnD6QjJqVZJIVxNCP7+fF0QYmllNeb+Nl/8D72ZDFm2wM4IfONzdNocK1KiHVLig7tTMC44B1HFdRAZ0bWUrQtCjEnPwVezfhDp0NsJsVMAOo+ahE6rwyVixQ5C7Lw9GT32pKgM3VlVja5lBD9/ui4I8fT125j42RdCiL5AiHS9WRKCTlsTREq0gxSpXmDC2bPZ1ZJH0YWkrQtC3HbqIl5/b5IQoi8Q4nNjEDDvsF9kz3a2jrTHnlQsuVWCGsmj6DJK1AUhLg86iudGjxVC9AVCfOY1BMzeiU6b40RCtFNCpMP2JxfzcCW/xmWE4O8P1gUh/rZ+J4a+8LoQoi8Q4hMvIWDWeiFEO8lQkzaHH83AiuhSf+ctl9VfF4T43dK16DfsBSFEXyDEwc8j8Mvl6LRJLM0aydnzSWdtSolVDQZx1nYBLeqCEKfPW4pHhwwTQvQFQhwwDIGf/YVOm2JkyeyglDjyeCZiS+tR0yhOOM7mRF0Q4mez5+Ph/rKPiqez2djy/s79nkTgpLlCiA6SIaVJRq9sSSxHQW2Ts/nA75+nC0L8aNbPeKDXQJEQfUFC7D0EgRN/RKeN0SIhOkiKvfelYubVAqRVNvg9gTkbAF0Q4gfTv0X3nn2EEH2BEB97HIHjZwohOkiGlBAf2J2CV09lIU62G3A2H0IXhDhhyle496FHhRB9gBC7PNIfgW9PF0LsACF23ZGM3vvSEFkkoXzOZkRdEOK7k6fhngd6CCH6AiH27Atmzu604bYsmTtAigznC82vgdhVnEuJuiDE8R99hm73SaYbW4waHr+mRx8Ejv5MCLEDZMhlMzelOplZhSqJWnEqI+qCEMd9+Am6crc9X5CQ/L2MD/dG4OuThRCdQIgH0yolJZhT6RD60CGOe/9jdL3nfiFEXyDbh3sh8LVPhBCdQIh7UytQXCeuN87kRF1IiGMnTkKXbrI5vU9IyA/1QuCrHwshOoEQ96dWoEQI0Zl8qA8JUQgxwHekYyFEpxiTqEPcJxKiU8mQD9OFhDju/Y/Q9Z77fIcUfGFp66oykhBlydxhUhRCdDoXqgfqgxA/EKOKTyyXSbI0qrwmRhV7EjpYupaEKEYV55OiLghx/KRP0U02mPINCVncbjosHWpuNyeyxO3G2ZSoC0J8d/JUdLtfHLN9QkpUjtlTxKjSQaNKlx1JCM2rka1JncyIuiDECVO+ltA9V+n8nP1chu6N+RKdNkqkiqWlsC3fNYfupeJGUa3swieEeDcCH0z/Dt0fkeQOPiEhPjoQgWO/kVjmDkiITO4w6mSWyol492iQbzqCgC4kRJX+q7ek//IJQuw1GIHvfSeE2AFC7LU3FV9fyZf0Xx1hvjbu1QUhSoJY3/FD7Nz3CQR+MAedNkrGbFuWx5auYYLYzQllKKiRKJU2eM3hr3VBiF/KFgK+YWHmRvX9n0bg5HmSMdtBCTFgWxJeOJ6J6JI6VEtiB4eJr60bdUGIssmUD0mIjw9H4NTFssmUg4T40O4UfHwhVzaZaovROvi9Lgjxt3WyDalP6A8pIQ55AQFf/4NOm2XXPUvLYWvfPXs0A8uiSzo47OX2thDQBSEu2y0b1fsMIT41CgHfb5Z9mR2UED++kIerBbVtjWf5voMI6IIQt526iNfeneQzejRfIS9XlLPzsDcQMHcvOm2Jd0rEhjWJSk+/P7Y3FYtvlaCs3tDBYS+3t4WALgjxVPgtTPx0mhCis52oXfC8ziPGIuCvE+i0JUEI0U4pceK5XJzOqm5rLMv3TkBAF4R4Oy0b02d+L4ToAgJztpTY+aWJCFgRik5bhRBtlV47b08CjSnr48uQXdXohGEvj2gLAV0QYkVNHX7/fb4Qog8Qokr9tf4mOm1LFAnRRgmRkSlvnclBVHFdW+NYvncSArogxCaDAQuXrkBXyXjj3ZNC524IHPOFLJdtJEJKkJQOnz6cgROZVbJdgJNIr73H6IIQWcHlazfhvt6Pezch+IAE5+wl8h3Pu69Hc9ieHYRg67JSr9cNPpiOn68XoqC2STLbtMdkTvpNN4S4euc+PPbMi0KIXky6nZnY4ePfZKls44Tw4O4UfH4pD1cKatBkdNKIl8e0i4BuCHHbkdN46s2JQojeTIiMUpm2RAjRBkJkRuxXT2Vhd0pFuwNYfnQuArohxKOXwjFmykwhRG8mxGGjETBrvRCiFULssiMZ/fanYXNiOfIlgYNzGc/K03RDiNdikzBj3mIhRC8mxMCX30fAnCAhxHYIkWTYf3+acsBOKK+XpbIVAnP2z7ohxKzCEqzbHoQuAYFCil5KioFvf9nslN0OIejVOGJLvWhRHnQwHTOvFiCpvAF1ojh0Nt9ZfZ5uCJE1vXQpFF25YX1AZyFFLyTFwA/nIGDFZZEQLUwI1BkyNO/rsAIkljWIRdkqdbnmAl0R4uXwCDw4eBi63dNdCNHbCDEgEAHTlkqm7DbIkFmw/4gqRnRJPRoMRtkrxTV8Z/WpuiLE67fj8OTYj3H/gz2FEL2JEAM7o/MDPZsNKhKyd4eE/HBQCt44nY118WWIKa1HTaP411hlLRdeoCtCjE3NwAc/L8AjvfoJIXoTIXbphs4DhiHg5513kIEtejW9XtN9ZzKGHcnA9LB8BKVUIJ+O18KFLqQ62x6tK0LMLCjGsqAjGDhoqBCiNxFit/vQeeQ4BMw75NeEGLA9CffsTAaXx6+czMLy6BLEldbbNlLlKrcgoCtCrK6tx82kdAx/9jkhRG8ixO4PInD8DAQsOuPXhHjvzmQ8dywTS2+XqOVxRYNBjCduoTnbX6IrQmSSh9KKSrw67n3cc99DQoreQooP9ETgl8vQaVWY3xEiN5WnRDghJBfLbpfgXE612j60tkkMJ7bTlPuu1BUhErb6hgZ8OGsOevQbLIToFYQYiC49+iDg133opNJ+JemWFLkjXreWKJORxzMxISQHM64UKImQ2WrSKsSdxn3U5tibdEeIDY1N+HNTEEaOmYCevfrK6WEMHukzAI89+wr6bbiCfvtSVEgaw9J8+WQkycADaWAmmicOp+PpIxkYfjQDJMG3zmRj1tUClcz1Yl4NcqobxYXGMW7yyF26I0SD0YjYjBws2n4A4ysHIoAAACAASURBVH/4U04PYzBhzmJ8vmwrFl7PVrvFccc4Xz9pDGH26j2pFTiTXY3wwlowzC6/thE1jQblR9hkNMJghJChR2jN8ZfqjhAJRXVdPTLzCxGTkiGnhzGITc1EfFYeMirqkFXVqJszt7oRhbVNKK1vQmWDAdQJNopDteNM5CV36pIQvQRbKYYgIAj4GAJCiD7WYFJcQUAQcB0CQoiuw1aeLAgIAj6GgBCijzWYFFcQEARch4AQouuwlScLAoKAjyEghOhjDSbFFQQEAdchIIToOmzlyYKAIOBjCAgh+liDSXEFAUHAdQgIIboOW3myICAI+BgCQog+1mBSXEFAEHAdAkKIrsNWniwICAI+hoAQoo81mBRXEBAEXIeAEKLrsJUnCwKCgI8hIIToYw0mxRUEBAHXISCE6Dps5cmCgCDgYwgIIfpYg0lxBQFBwHUI+B0h1jQ24mJeFg6kJ2F3SrycLsAgKCUee1MTcC4vC+HFBXK2YHC9uACRJYWIKStGUkUZMqsrkV9bjbKGOtQ0NYJZtuXwLAJ+R4hl9XVYExuFSSHH8eqxvXK6AIPXju/FO2cOY/q1c/j55lU5WzCYc/Mq5t66hnnR4VgQE4GlcZFYlXATa5JuY2NyDLanxmNfRjJO5abjcmEuosuKkVVdicrGBtmKwE086XeEWF5fj60J0Xh6/zb8x5pF+J+rF8rpZAz+15pFuH/nWgw6uhPPntkvp40YPH/2AF47fwQfhp3BrBuhWBh7A9vT4hGSn4XbZcVIrSpHfm2NIkhKkyJPOp8l/Y4Q2YkaDQZ8HHIc/7V+qZChk8mQE8x/rl2Mvge34alTe4UMbSTD9iYOEuXoC8fwfdRlbE2Nw/XifFQ0NsgS2/l8CL8jRGJIUlwdE4lhB7YLITqZEEmGnTevxJBjuzDs9D4hRCcQ4vAz+zHi7EElPY69dAKTrpzFl+EXsCL+Js7mZSpdpFH0j06hR78kRCIXU1KE78LO4b/WiZToTLXBf29Yhp57NuCpk3uEDJ1Ahm1Jjs+dPYCxl07iq4iLWBwbib0ZSbhVWoTS+jpZSneAGv2WECkl7ktJwOA9W0CdlzNJwV+fRZ1sl62rlO7wGZEO3TYhvBB8COMuncSC2Bs4kZOO+IpSlNTXyZLaAWL0W0LUpMS54aH4v+uX4j+cvHT0R1L8P+uX4MFda91GBG1JT/78/egLR/FTVBiC87IUKTYYDDDIctpmavRrQqxtasSV/Bz0D9qI/xYDS4el5G5b/0a/Q9uEEF24VLZG9jTAjDp3BO+FnsLsm1dwOjdTWaZtZgQ/v9CvCZFtn19TjUVR19Bv14YOE4I/SoVanWlMeThoA54U3aFXTAjUMb5+/ii+CL+AVQm3cKEgB+UN9bKMtkL4fk+IdU1NSC4vxbunD6PLxhVCig6qDjpvWSnSoQclw/YkxzfpshN5GYeyUhFfXoqKhnortOC/P/s9IWpNv/J2hDhrO0iGNEo9smcjhh7f7RXSUXvk4K+/UWJ8JeSwskjTj7FKRb+Ia7c2/rVPIcQWJIpqa/Bb+CV02rBMpEQ7iJFk2Gnjcjx+dKf4HXqphKhNAsPPHMAr5w5jWvh5FQHDkECJn9aosPlTCLEFD1riTmemYvzpQ0KIdhAijVE992zEkyfE71AjHm//JCl+fOUslsVHqXjp6sbGO1nBj/8TQjRp/OzqSmyJv42Ht6/Gf61bIsRohRhpSOm69W8MObYb4nfoWzHbtEbT6EKn7iuFeSgTvaJiAiFEE0Lkn0nlJfjswkk8uPUfSf5ghRC5VGZUirdLRFK+tsmaTt2/3LqGK0V5qG1q8nufRSFEM0KkI2tBTTVGHQ3Cf4uU2KaUTEf2+3eswdBjYkjxZcJlnPSLIYfwTcQlRJUUqryMZkPCr/4VQjRrbtrdmowGbE64jZGHd0kESxtSYuDmFei1f7Mslb3ckGILWZMUXzt/FDMiLiG8KN+v3XKEEM0IUfs3rbIcv14PxWM71rUpJWlOyf72Scvyw0HrVUYbWwacXNP2ktVbsCEpcvk8P/o6rhblwV8NLUKIGgNa+LyQm4XPzp9qjnWWBBBqYiAZBmxagYFHdoibjQ6kQ3NC5vJ5UewNZX32R5ccIUQLRKh9xRxzF3IyMWDPJvy3pAlThMikulwqS4ie90t95mRn6/+vnj+CBbERKjO3vyWGEELU2K+NTzpsH01PxuNBm/C/1y726+Xz/1m3BPdu/wdPnAgS6VCH0qFGmKPPH1X7vdDq7G+JZ4UQ2yBC7WsuG0rqavHb9cuKFP11HxaV63DLKvQ9uBXDdEwGGin48yeNK2dyM/wyikUIUWO+dj5JitGlRfg69KzyT/Q3Iwrr+18blqHHng14WvZJ0a3fJUP73g09haD0RBTW1bQzIvT7kxCiHW17Njsdk0KO4T/90MDCXfQePyK76OlVcqSV+aWQQ9iWGo+M6go7RoW+LhVCtKM9mU/uSHoSXjoapCzP/iApquQNm1ag38FteOaUbBqlV0J8++IJLI2PQkplOeoNTXaMCn1dKoRoZ3vm1VQhKDlOpQoL0HlmHEaj0Kr86N5NypCiVzLw93qRDP+Mvo648hIVvmfnkNDV5UKIDjRneX0dlt4MV6So5yQQtCp3374aTxwXq7JeSZMRKr/dvoawwlwHRoL+bhFCdLBN6Z81L+Iyeu1ar8td+2hVZiabgYe3i4uNDq3q1Blyr+eZN0JxqSDHwVGgv9uEEDvQptlVlWo/lns2r9RdZhxGo3CpLGm99OmATQPK5KvBCCvMUw7YHRgGurpVCLEDzUl3nNvFhSrmufuWv8H8gHowtPzvdUvUhlFDZEsAXbrYcCsBbj51NjcTxfW1srG9CQcIIZqA4cif3Mo0pqQI0y6cxqM71vr88pmk3n3HauViIw7Y+pMOKRlOv34BezOS1L4q/haaZ22MCyFaQ8iG3+mmkFxehsnnTuD+LX/77PL5f61d3Jq4QRyw9UWGms7wk6vBigwlQ7blgS2EaBkXu75lDsVGowE3CvMx/eIZ5arii0tn6g37HNgi0Sg6NKKMDD6oNq8/mp2Gwtoav8+M3dYAF0JsCxkHvq9saMCl3CzMvByidu+jU7OvECO3A+jRstH8sNPigK0nN5uXzx3GlGvncCw7Ddk1VWg0GBzo3f5xixCik9uZm4Bfyc/B1Aun8Mj2tfjPNd5vaKHz9UO712HQ0V26NCLoidzsrcur545gxo1LOJCZjOL6OrWScXKX19XjhBBd0Jx1TU1IrSjD1POnlKHFW63PjETRjChM+GrvYJPrvVfPqPZgDjmsyJDL5OqmBrEm2zDWhRBtAMmRS2i9y6muwpxrl9Bt80qvXDqTDDtvXolBssm87iYDbgfwdcRFtR0AJ2jqueWwjoAQonWMHL6CO/gllpVg1a0I9NyxFgyF8xadIsmw65ZVGHB4uxhRdGZEeevicfx6+xoiSwrBhCRChrYPYSFE27Fy6EpKimkV5VhxOwIjDu1E100rPE6KNPZ03boKvfdvkUgUnZHhhNBTavP58OJ81Plx1hqHBisAIURHkbPzPkqLq2Oi8PrxvbhvyyqPbW/KGGVtC1HxNfReHaC9+tnnzh7A+NCTWBl/E7dKi+zsnXK5hoAQooaEmz5PZ6Xh/eCjYHjcf6x2r1sOyZDv7XNwK56SzNe60RsOP3sAr5w7gp1pCciqrnRTT9bna4QQ3dyuZfV1uFaQi79uXMVjO9e5beMqkiF9DXsf2CKbROlomcz0XbMiQ3E6NwM5NVV+ndzVGUNZCNEZKNr5jOrGBsSXlWB97E2MPr4P92xe5VK9IsmQ1mRmr3nq5B5J56UTQpx4+TSWxkUhtDAXpfV1frkplJ1Dz+rlQohWIXLNBbT8cZvHoOR4TDx7RPkrumKbU5IhQ/Ie2bsRT57Yo5tlor06Nj1dzwQNk66cxdqkaMSWlwgROnGICiE6EUxHH3WzuADfXj2PHtvX4L/WLXVacgiSYfPG8luUZKgnUvDHutBwQv/CT64Eg87WJfV1jnY5ua8NBIQQ2wDGnV8zhVhaZTkOpibhzZMH0NUJjtzNm0MtV/soPykby+tCMn7v8iksj7+J68UFYIgo83HK4VwEhBCdi6fDT2PnZhaSkOwM/HztIp7cv63FEr3Qbv2icrqmn+GBzaIz1IG+cNS5w/g2MhQHMlOQUFGq8hg63NHkxnYREEJsFx7P/BhXWozltyPw9smDeGTHWtizkVUzGf6tnK7Fz9C3/QxHnTuCD8POYl50OM7lZ8kS2Q3DUQjRDSA78oqaxkZEFhfiy9CzGBC0CdzylDrBtkL/tEQNXbasQr9D3EN5ry6Wif6oK3z+7AGQDKdfv4hd6YnIrK6U/IWODCIH7hFCdAA0d9xihFH5lBXV1uBQWhImBh/D/92wrM0tCuhwfc+2v1WiBpEMfVcyJBlyn+TVSbcRU1aslsdMPiyHexAQQnQPzh16C3WLYfk52BB3C6NP7MP9W/++I/SPRPnArrVgCi+RDH2XDN8PO4MFsTdwOjcTqZXlqGlq7FC/kZvtR0AI0X7MPHIHjS7MXLIvNQGzwkIw8tAulVaMDtcP7V6Px4/sEIdrHzSgvBhyCO+GnsJ3kZexPTVexSGTCMV+7JFhJskdPAN7x96aWVWBXclxePv0Qbx4Yi9eOHMA3DPDH/Vtvlpn+hO+ceGYSu3/T8It3CwtVK40HesZcndHERAJsaMIeuB+phRj0s+SulpcLsjBotgboI+ar5KDv5WbyRg+unIWa5KiEVVSCPqhUk8oUqEHBpPZK4UQzQDxpX85gLiMTq0qx/n8bKxKuIXProUoC6W/kYwv1JcSIbNYb0yOVZmsaT2uamzwpS6n+7IKIeqkiTmw6LR7Iicdy+Oj8FXERbxz6QQY7uULZKHXMlKVQR3hrBuhWJN4GyF5WUivqpCsNF467oQQvbRhOlIsbjV5Ni9TZUL59GoIxl46gVdCDoObleuVeLypXsSZu92NDz2FL69fwD+Jt3G5MBeFdTUdaVa51w0ICCG6AWRPvILLaWbTSaooU9bLaeHn8bwYXlw+IZAMRwQfVKF2BzNTlDRIna/oBz0xCux/pxCi/Zj5zB0ciFTY59fWIK68BMF5WViZcAskx9fPH3U5OXiT1Obqsoy5eFxt+bk+OUZJg0mVZSiqq1XGL5/pMFJQcbvxlz5Acqxs0TMyLnZrahzmRV9X5PjWhePitmOnOuHF4EMYd+mkMpLQmXp3eiJCC3KVQzU3dxKZ0DdHlkiIvtluHS41rdNMLnokK1XpGqn0pysIDTGvnDsMhpC5WqrypeePOHuwWS946SQmXw3GD1FhSjfI1P0pVeWolqiSDvdJb3iAEKI3tIIXlIH7cZzPz1KuO1PDz+PNC8fwQvBBkAhoqfY3gwzry0mB+kA6UXOimHHjEjYmxyiXmeL6Wi9oNSmCsxEQQnQ2oj76PG6TyiV1QW0NMqorwX19D2QmY0lcJKZfv6CiKvzFhYdESMs8N2+ib+ex7DRElRaprDPUC9LFSRIu+GhHt1JsIUQrAPnrz4ynzautVsaYsMJcHM9JV3rHxXGR+DEqTDmAv3PxBBiL60tLX9OyDj9zAC+HHFb7GdPQNOfWVeXDuSs9AadyM3CtOB+JFS3GEdn03S+GghCiXzSzcypJvWNiRana5Y3SIzc5+iP6ukpMQCly8tUQcCc4EiW3x6ThwdNSJd/PTZlGnz+KsZdO4oOwM4rM6bhOYl8QE6GWwdSlXi3KQ1qVZJlxTm/xzacIIfpmu3lNqbnULqirwc3SIiVVbUuNx6LYSHwfeRmfXA1WJMSQNbr5kCTpsMzkpzTcUDrjScKipEkCpb7u35P6O+3893tex+t5H++n0zmfx+fy+XwPCZDvpSX482vnMPvmFSyLv4ldaYkIyc9SBiXqAWl9l0MQ0BAQQtSQkE+HECCdMDUZXU2qGxtVbDV3g2NUBpfcGVUViny4/KS7D3eLC0pPwpbUOKxNvK02TVoYewPzo8Mx99ZV/HzzipLcvo+6rCRP7iXC1Fj8/8ebV9Tvv966piRTEu/K+JtYlxQNEvHejGQcz0nDhYJsRJQUIL6iFFnVlaochXW1KgU/N2eiRbje0CSbNDnU4vq+SQhR3+3r8dpRAiP50BDBzdQpTdKiTcMNk6Aykia+vFSRZnRZscoHSGkzqrRQZYKJLGn+5P/8/lZpEXgdXYYYu00HaC5zmSght6ZaEXFZQx2qGxtA6VXkP493AZ8qgBCiTzWXFFYQEARciYAQoivRlWcLAoKATyEghOhTzSWFFQQEAVciIIToSnTl2YKAIOBTCAgh+lRzSWEFAUHAlQgIIboSXXm2ICAI+BQCQog+1VxSWEFAEHAlAkKIrkRXni0ICAI+hYAQok81lxRWEBAEXImAEKIr0ZVnCwKCgE8hIIToU80lhRUEBAFXIiCE6Ep05dmCgCDgUwgIIfpUc0lhBQFBwJUICCG6El15tiAgCPgUAkKIPtVcUlhBQBBwJQJCiK5EV54tCAgCPoWAEKJPNZcUVhAQBFyJgBCiK9GVZwsCgoBPISCE6FPNJYUVBAQBVyIghOhKdOXZgoAg4FMICCH6VHNJYQUBQcCVCAghuhJdebYgIAj4FAJCiD7VXFJYQUAQcCUCQoiuRFeeLQgIAj6FgBCiTzWXFFYQEARciYAQoivRlWcLAoKATyEghOhTzSWFFQQEAVciIIToSnTl2YKAIOBTCAgh+lRzSWEFAUHAlQgIIboSXXm2ICAI+BQCQog+1VxSWEFAEHAlAkKIrkRXni0ICAI+hYAQok81lxRWEBAEXImAEKIr0ZVnCwKCgE8hIIToU80lhRUEBAFXIqBrQjQajTAYDK0n/5dDEBAEvAcBbxujuiVEo8GAutpalJSUqLOstBQ1NTXe0xOkJIKAnyPQ1NiImurq1jFaUV6Buro6j6KiW0IkAZ49fRqfTZ6szlkzZuDAvn0eBdvXXl5dXY30tDRcvXIFl0NDcTMqCtnZ2RBJ29da0jvLy761a8cOfDFlqhqjf87/A+fPnfNo/9ItIebl5mLNP/+gS6cAdfZ57DHM++037+wZXlqqnOxsHDxwADO/+QZfTJ2Gv/74A2fPnEFTU5OXlliK5UsIREVF4Ydvv8V999yrxuiol17C5o0bhRBd0Yj+TogkLaoIysrK1FlVVYWGhga7oI6NicGvv/yCh+67X3XYkc89h39WrUKjnc+x66Vysd8gIIToxqb2d0IsLCxE2OUw7NyxE9u3bkPw2WBkZmba1QJCiHbBJRfbiYAQop2AdeRyfydEktmCP//CSyNfwPPPDsd3s75FaGioXcsRIcSO9EC51xoCQojWEHLi7/5OiBHXr+PrL6fjvm73qOXuu2PH4eSJE3YRYl5enrrnt7m/YvaPP+Hvlatw6dIl0SE6sZ/686OEEN3Y+kKIHSdEWpPpGlFfX69O6iDFoOLGTqzzVwkhurGBhRA7TohubC55lR8iIIToxkYXQhRCdGN3k1c5gIAQogOgOXqLEKIQoqN9R+5zDwJCiG3gbDQY0VDfgIqKChQWFCAzIwOpKSkqSoLEVlpaitqaGhWT3MYj7vraXkKkvow6MkZn0HePbis5OTlIT09HUlISaHFlpAaNFeHXriEyMhIx0dFITk5GXm6e0rE5EsHB9+Xn5yMlJQXx8fG4feu2es+tmzfVOxMTE5GWmoqszCzQyFFUVARLIU6a32FxUZEqOx2oP//001ajypg330TQ7iAUFBSo31k/07O4uBjVVdV34Eg8ysvLkZuTAzpp897KykqbDTMsE+tXWFCoyp+clNyK461btxAXG4vkpCRkpKcrrFke+ku2p6ckxrW1taqfpKamIiE+HtG3mzG7GXUTMTExSExIQGpKqnIzYj8gZqwH77OnjXgtY+FZB4aAsj/wnXx2VlaWwo94ECdbn8vrWD+Whf2duLP/sM+nJCcjPi4Ot2/dwo2ICISHhyMiIkL9z3pmZWaqe1gmawffo3BiP87ORm7LOGJZzQ/VTlVVIFZJiYmqrubXmP7PZ7Ds+Xl5qu2It9YG/GRZ2Z/p5sU+yz7JMFpzjNojRNaR5edY5PhgH+F7iA/7DJ+t9cf2+otpuW352+ORKlqHy87KxpWwMOzZvRuLFizAzz/9hN9//RWbN21S0REJcfGoKC9HY2PjXcBaqqi9hMhGLsgvUIR0LiQE+/buxZrVqzH/99/xzVdf4f33JuCVF1/Ck0OGYmDffqCT8nvjxuG7WbOweeMmNUAYh2ne6JbKxu9YbxoroqOjsXP7Dvz0ww/49JNPMOaNN9V7Xn9llHrnV198iV9+noNlS5Ziy6bNOHzwEMJCL6vJwrQjkEjYEY8cPqzKTgzffP113Nulq7IyPzfsWcyZ/TP27tmjfmf9TM8Tx48j+nb0HcUtLipW71q/di1W//039gQFISoy0qaJifUrLytH9K3b2Bu0B8uXLMW3M2dh4vh3MerFl/DGa6/jow8+xKxvZuDP+fOxdvUa7NuzFyRK1sXSQWyJGQcEy/LLzz9jyqefYeyYMXj5hRfx6suvYML4d1VUzc8/zcaSRYuwaeNGFW1z6cJFkJB5vy2H9i4OSLbRyeMnsHbNGoUhn71i2XIVCnrt6lU16OkEzzpbO9hmJBPWgf396OEjqv8sXrgQP3z7HT79+GO8NXo0hj31FAYNGIhnnnwKb41+Q9Vz6ZIlCAsLUwRtrZ9xnJC8D+zfr9pu04YNYL8mAfPg/SwvrystKVGT8KYNG/H19K8QfPasxWrwHpafJEcf122bt6i2+2LqVLzz1hjVb/n5+eRP8eP3P2DxokVq/B45dBjpqWkwmEU4mRMix9fG9evVBMO+Q3Jmmbdv26aipL6cNg2TP/oYM7/+BksWLVYTPAUUthHLZQ0Ti5Uy+9JjhMjGIIEcP3ZcDYqXR76AZ59+Gk8MGqwIp1+v3ujfuw+GDHwczzzxJF54foQiCJIPG5oN2d5hLyFSsvhj3jyQONgJnxg8RHXI/n36ovejj+KRhx5WERv333Mvunfthge734eeDz2MPo/1whODB+PN0W/g0MGDSmpor1z8jRIHpaPZP/6I0aNexdBBg9G3Vy881qMnejzwoHrPw/c/oN7Z+5FHQSwe79dfYUFCfvapp1WnyM3JRWNDMw7ZWVnKAZt+hyw7SZvP6hoQqAjxge73qefwN0snyfOfv/++o+jskMuWLsWwJ5/CoP4D8N648di2ZYtV7Ek6Fy5cwPfffqf8IPk+lr/Po4+14vjwAw/i0Yd7qO8G9OmLwQMGqnItWrAQGRkZd5SD/7C9KSEs+msB3np9tMKcuDzW8xH0fPAhhdlDLZj1asFsYL9+LZgNwbCnnlb3MX7W2sDh4KL0v2rFSrzx6msYMfw5PD30CVVGvlNrjycHD8HwZ54BQ87mzvkFF86fV9FB7T2f0uDWLVswdszbqr8/NWSoKiPbq+9j//aBB+7trqT7++/trtqR9RzYr78ifYagUprmJN7WQenqfMg5fPzhJNV2I54djt/n/qpWOxx7XHVdvHgRxPvDie/j+WHPtpZj544ddz2W95BMg3bvxicffYzhzwzDkMcHgW3X65FH0OPB5n7b48GHVD9mXVgnjl/Wcd+ePWgwm4zMCfHpJ57E1M8/x9xfflH4EHeOxaGt73lUPZv9iFiQK14aMRLTpkzB5dDLihjvKridX3iEENnhKAIzDGziu+9hQN9+6BbYWZ0cxGqADBwIkhHDxu7p3EX9xkHEWYTSIztfex3CXkKMvHEDnIEY+0wSoWTFTsnBxs6oDQI2DhuiV89HFDFq15MoJ73/gfLbY+dp66irrUP4tXAVH8xn8T4t3prvJdE+2qMnSIQkRZKvRmradfwc9/Y7aimkYZCWlqb8BEmqptfZ+jcJj9Kw6eGIYzaXp/R3ZFKNQQMGqLbTysA2Zn0fIRE+1ksRIuvL9tWu+en7H5T0a1oODm6qLSiZcSCyXbTru/KZ93ZXzyJm7D/0veT32jX8JIYcSCT5tgiL35N4T508iR+++04RIfsB72W52eYc4I/3H6AG5n33NPt4sl7sE59M+khJOFwiso9bOrjsXb5sGUjWfC7rzmezrR/tQVweayUSPpNCgWl9eS1XJ5TauZRs66DESqn29VGvKhzYL2Z89TVOnzyFo0eO4Ldf5ioBg5Mr+7iGFZ+/ZdOmux5LFRaleK5gOB5M+yTrwHbkO4gxn8fnEBftuVzp0YXL9DAnRN5HkqWAwDbV7uUnn8W20FY82m/8n32JY+/8ufNtri5M39ve3x4hROpidu3cCc6wBI4zO2eRCe++i+Yl4s9qcHKp+NWXX6rBz2tJDgSCoHPgcInYVue2lxDZ4P+s+ht0YJ70wQf4bPKn+HLqNMz4+mt8/+23mPPTbDXDMiPHX3/8ie9nfas6FGe1e7s2L0vZoX+d84vS17QFekJ8s5TDxmcjs07s9KNeelk9j8uP72bOwo/ffYdvpn+l9IAsD6Wzt998E6+9Mgovjhihlp8lxcWtA4/LGCZi4GzPTstrSOJap+T7WNa33nhD/c5rTE8SGJcmpoe9hEgy4RJm8kcftQ4y1o8d9lXWb8IENZsz89BPP/yIb2fOxPRpX+DTjz/BhxMnKuw5cKgbMj04ea5dvbp54uzcRWHW+9HHlPT53vh3MfXzKepZP373vVJvTPnsc3z04SS8N56YvaVIgUtq/t1e+CKJl8vjaZ9PUdIaBxtJkJizjJR4uYqgKoeqko8nTVJLdWJLUnige3dVJk4I2tLUtB78u6iwEIcPHVLv+GDCBEz++GP19zfTp6s6EBfGj/M97Ge/zP5ZLUEphXKVQiIiefL/6+HhbaoAzAmR97Bvs9+yL7HMGqmwjThJcYKm2uHYkaN3FLu6qkqtfl547vlWQiIBDnn8cVA3TSmU7ch+S9UPl7TEkBMEPJRiJAAAHItJREFUVU3j3xmLM6dP3zVWzQmR5SHmFAi4YuDkx/KMG/O2Uq9wKc4lM5/HFeNjPXu29m/28wV//qkmvDsKb+c/bidESk/UV419a4xqEALAylF0p+JXk3hM60Hd1l/z/1AgadIExelVy1dYvJ732kuIXL5zGUKyZhnaIlrTcpFEly5ejH69+7Q2zLi338bxo0ct3s9nbt28GSOHP9faGbmUJPGePX1GKbMtqQI4UKnA5jLu4oULSi9EPQ+/18rJZSrLHxsbi9u3byMoKAgfvv9+6yRCqWLhggVKR8ffzU9OLnyH6WEvIdLwsGPbtmYJLSBQYcL6ffbJZKWXovSoldf0PewTNJrReFNSXHJHm1LSOnPqNJ4aOrS1LpxASHjUl9JgYAkz4kFipRL+8qVQpavbt3ef0kObvlv7m+ViajNOwpSWOcA48ZKomZKKeirzg3gfP3ZM6fhIVhzQlFCJO1ccllYKLGtpSakqNw09lq4xfw+vO3nyJF4fNarVSMbyMUadE6Glw5wQeb2pNM7/KYWRGKnSIMmQ6DmpmqssiOHcOXNa+ywJlKqlX+fOVUYsqoAsHawry87nUW9qfpgTIrmAY4l6YK4CN67fgJDgYGWgYX3YRhynlLKp/ybBE2+N2En0x48eM3+NXf+7nRAL8vNVjC1nLFbkxREjsXXzFmUJJICWBgxBSElOwZbNm1tnNjYulekkPkskai8h8r0cfG2VwRKqHHScpRknrC1rqGvi7G7e0fl8dg42NKVi1p2zPSXdiOsRrdZVS/XndywXcWDnY+ei4cH0Wv7N8vManmGXLysVgBa6RymHuit2LO0a00/Whe8wPewlROZMnP7FF63LKep5uMylftOq9bhFwc86mNaLk+Tqv/9B927NqgMOmk8++kgRe3lZWZvtZY5ZZUWFwt+8XbT6cnJh3kcuU4kZpWtK65Qo2yo7y0qipCWY0ihJhicH6e6dO5WxQnu+9qm1E7Fuqyzatdonr6M1e9mSJUrXp/UdSmSUyC0d5oTIe1g29jliyLaZ+tnn2LVjJ25E3FAkQw8P9i3z8bRj23YlJfMZPCnt0/jBCYd9qK16sK78jc+zdI05IZJkF/61oNmCnJ+v9JzEnn2TCZ958Jl8HsfSqRMnleSulYuT7z8rV1mCw+bv3E6IFJ0nvf++ahg2Di2MNDBYO+rr6pT7wWuvvKKWDLz3qaFP4OD+AygqLLrrdnsJ8a4H2PgFLdN79+xtnam4xKJimIPF9GBDcmYjYbABWX7OzpQY2dmdfXCgmMYyj371NZWMk+Ww9bCHEPlcGryGP/2Mqh/rSP0w9VX2vNO8bDSkcILROn3/Pn3U/5rEYH69o//TTYQrDuqs2TY0enBpa63s/J2TFHNFUv+llZMWYxKlM4+Qs8FKV6b1H0pIHE+WDnNCJBly0n7z9dFqSU5vA+qyOeFQr23pYN1ISJzEqTfU6kZvBboGdfQwJ0TaB2jptoa59l6O8WWLlyiiZ9koaLCsZaVlNj9De5b26VZCZEUX/vWX0mVxluKShA1K0G05qESmxEF3BALA+2d+M0O5MJjf7y5CZGe6dvWa0u+wTA/edz8mvvfeXYTIGZIKfc7KvI4dlDoQukXY2gHM69je/+4mRLpJUH9KyV2r37zfflfLnfbKae03qku4jOUzeVKCW7l8ubXb7P6dRjoSOPsldYHsZznZOTY/h+5QJCitnFzeknSceVBwoH6O7yBpk0Do0mLpMCdESr1cvVBPTn9XSl3WDkqxcXFxSi/N97HPcmW3e+cu5Qtr7X5rv5sTor0JYlm+PbuDlJ6XZSMuHF/xcfEWJVJr5eHvbiNEEgKXJTTZa7oLKrnjYuNsKae6hn6IB/YfUDpHVp6Db+RzzysnafOHuIsQKQneunlLWTlZJs7C1GVYkhC57J82ZWprh+a1lKp8XUIkodNtiT6B2mClpEUdl7mrhXk7Wfu/WUqdq57LZ3MpS7cTTqLOmkjYN3fv2qX0Vxz4NBZsWL/eWtHu+J0O9TTqsIw8OVkvX7rUaWXky+huRslTw5jqJur8LB3mhMhlPAmffqS2HtTr8vlUt/CdJFWuAKjHdsbRUUJkGShQ0YDIiYxlpP4xJCTkLp9HW8vrNkKkroGKe4rs7HR0rZn78xxkpN/tc9ZW4UmojBDhM1h5GljY0HRwNT/cRYicpW5FRbUSIkmaHc8SIVKZ/u2Mmar+WqemczJ1IZZ0LOZ1sud/d0qILPupU6fw7tixre3y7NPPKINDR0mLOrzlS5ep5xIzSgKcSKk8Z59yxkE9IB2tu7W4/4x9+2211Lfn2dSncfnGMmrlZP+mqsdZByNkaOnW+g59Tun7aulwBiFyoib2bEu+k2ON1vaoyChLr7T7O2cQIvXWtNZrLlD0p6XPo/n4s7VwbiNEKrVpGWUjElz6c1F8p3OxrQelDYaxUb+jdQqSYuilS3c9wlmEyMHOzkVjEK3KDE2i8p3WL1o5d27fjnm//ta6VKRk9L4FQmQBqQymgYAuRiw/T0o8JHh29L9XrlQdnLonlp+N6iihuJsQuYyinpJ1ohWSEQv0C+voQewPHTykLL+aFEA9Lf3rqC7hgN2/bx8YMUIPAUdIkuGXplZUDvpzIefsKjolVroGae3KT0pz3OzM1oPkSUs9JwFadtmGF89fUF4Z1FMzOoMRPnw2hQpXEyINF3Q3o8TMd9LPkPpDLrmdcTiDEIkR/Yc1oybd16iXp6DiyOE2QqRnPMPyaEkiuHS6pp7m2NGjKjyM4WjWTorqhw8eBKNa+AztDL3oHEIk+bBT0pWBxMewIYaIkcQYCkf/MPok0ueK/lATxo9X4XH0l9LcgdojRDYQpVnqgdiA7NSsAwf6Iw8/jOeeGab0UHSgpa6V1ne6dXCwc7mthSjZ0tDuJkQqw1954UVVHy6tKPnS0u2MIyY6RjlKmzoEU1JkVASjaDhB0n+VrlkMUWM4HHGmzpYEw4movYMuMtxIS+tPdHonuVnrj6a/MyqEPoTaM/jJvsL3Wzo42TFkjmUkTtRBsuy0JM/7/XfM/uFHfPPV18oH8YMJE9UEQz9A+l/y2e4gRPY34sKIE76Tju+LFizssF5Yw8MZhMj8AvRn1XTXL7/wgrKAez0h0lGVTrf0jCe4JI4Xnn9eOW6SXGw5P/lwEiaMG68cfbVOQTIJvRSqYdz6aa+ESDJkhEFkRIRyGqcinwODpnyNuPhO7SQBcuCzIXhq11gjREoSjBagNEXn04cfeKCVTLVn85MDns968fkRSu/IJR0dfulnSCytNbi7CXHDuvWtExWXL3Q4piTtjIOY3bhxQ+lmacmldV6bgEwx499U+nPSpe8jY5lp5WZ8NBNMEDNLEvfVsCtqktOexQgbhgfa0ie1azgBmPqX8ll0UjbXD6tJt75eESEnO0p9lEifefJJ1d5aGbRP9gNK3JxAeWpSsrsIkXH8A/r2bSbERx9TMfVcpTnjcAYhMgkKJ55/CfFFbNywwer4aKv8bpMQzQmRDcpOzQZmg9ty8lqeGvnwfnq1X7Ew8OwlRC616JNFJ3HG/ZLs+C52SK1zap/8joOSnv1UbDMKgtfyd2uEyAHBzbmZaGDdmrVq5mdMr/Zs008NI2KjInruu18R6bYtW1UiirYald+7mxCZeIJJG1h+YsfoBUu63fbK3NZvxIxSHsMTWXdG42hRG6Z48W9ippEIMeNAYbQD1RHsg5Z0S9euXMX0L75sbQPez75lS5/UrmH7m5I0y/HrL3Pv0g2znzGD0gcTJ6owPZaRz+A7tX6t1YnfkeA5KdN4yJOOy1o9Xb5k/v9+nt/OmKHez3dSQuQkQ9WRMw5nEGKzhDirlRC5ZN6y2Xq8fVvldy8hbtyoguy1BmUH4uBx9CQpMWifqZLMD3sJkdYqSjUkNJaPnZGdj0pahjutXL4C27ZuVVY3XsvlOwc8l7N7g4Ja/RCtESLLSb0kBwYjI2j1o1GFs9pvc+cqyYZWPboWcaCYDxIqtjnAmXiAy3tLEg/f4W5CZFQBJwZix/ak8/SVMOdIiKyPJlnRb44SH9ObUVfE+Gu6WlC3Rl2XqbTOsvBkDPxLI0cq/0UaP8wxoyRLNYh2PdueBOdov+R91LctXrjIvFuq5SZ95RgPzf7PdzF0leTGMnBJSs8DRmJwRcAoGS6pGQBAPS2tqCwn+4WrCZFLZqpvmGuA7+RyfeniJcrafVfFHPjCaYQ4498lc7MO0QcJkfofGhPmzJ6NxQsWOnQyJRZ1Vwz5Mj9sJUTNaMJUUlzCap2NWWh+//U3RYAkF2ZJYegZl2+mUgaXYaZWZlsI0byszBWn6S05APbv3aekRzqtc5Aw5phGKG3AUoKla8/1a+Goqa4xf5z6392EqHSIJhIiJSBaAF1xaBIjIyuoQuDkRAd9usownpUx4IxiUlEnLVFBJEruPkh8GeFiepgTIhMvUMJ1tF/yPvpKmutQuXzm5MfsSCRNkiF9A9n3uDohXtQp0oCnRYyYkndkxA18YeK25Q5CpL5b0yEyixB3cqQRyhmHXxOiinPdvl0FbHNgM3Ro/u/z2g227wjothIiHVTp30XSYQdVM/Z99yulOknQ2uEMQrT0Dk0iojPu/r17lZTKjtm9ZRc9xp/S8EKJx9JhmRB33iUdWbpX+87WSBVOKszpqGVWoWT75ujRyiilPctdn5S8mRmHUSZcstLoomVO4WTF0DBGv5gexIokqk04dHim1O/sgwlgaTTR3kPHfCYvaSse2/z97iZEWplpKBrcMhlTtcNQU3t8h83rYPq/XxMiwaWCm3oQdggG6DMfoC2kYwqirX/bSohcFtB9hskiWC5NkqCV2ZbDVYRo/m7qz+jyQNxYTurQ3hkzRumjzK/l/+4mRHoLaO5QXArStYjt7cmDbUMpn5mSiBmlMsYccytV04NSJgc6r+HJvkCCd/Zx6eIllZlHew9XSIx5tvVwNyFSomX+SeYkZJmpz6TxiFZ5Zxx+TYj0JyMADGkiuJxtqA9xlk+TeQPZSojMrsLgdS0Gl8sCWv2Y0diWw12EyCUUdZZ08SF+lHboftSWgpvbHDBxJkmA11PvyOQOpkswa/WzVULkM5mgghZXvov6LU4szKtXW1Nr7TUu+52SK31fqV5guSi50rpPH1LTg0tUulXxGp7UlXEPanuwMn1eW39T78lMONp7iBfddWw93E2INP4xWaymGyZ+nOic4V/KOvs1IZI4qINT8aJdu6mBSsMBB7k1PzFbO4zpdbYSIi2P9PfT3IGYu496u7aIxvQd/NtdhMilIPMC0qrNAUXCobRN/0RLB5Xw06dNayVE+rDREZ4kYethDyEyzpzGp3tarO0kRS5ZuSeMpw7WlWGVnOCI2b1du+G1l1+5K0U+sd28caPyHGC5qZag4cM8HVpH63Hm1CnlZqYRIvM2MjWZrYe7CZHqJBoNmRqMZaY6ibH6FCDoV9zRw68JkeBxxmWqLJJOF7pH/H+3GyYldXbH47tsJUSG0wXt+tdhnJIrSdtcz9RW47uLEGnMiboRqQwD7JxcvtAaTf2npYPuCMz6TLcOXs+tBxgD7ApC5PtpaGLsbt9evdX7+M53x41TkTf2vNNSXRz9ju/lMvX9CRNVmSjhMMkuDSvmB30C6XKluc4wma25JGl+j73/nwsOUUlTiQ1Pug8xO7eth7sJkfhRR80MTVo/YrnpX+mM8D2/J0Q2PJ2zuXzTOgVnSWvbAdjaYUyvs5UQuRQNDg5uDSnkEpMWXergTK3Jps/W/maHYQD89WvXVKQJ60TJjaoAlcPNQqotTgq8j6etB6/lrmyU8DRLOH3CmCS1rQzQtFYuWbxY+VSyXNz3Ytrnnytp3NaloK0SolYPRlswZE9rW+6r0ZyOqdSm97JclsrG79gWxMHS79r7TT95LdU0XPpqemsOajpsU+oxP6gXY8SDpmKg0YqRSYyft6etzJ9r+j/faxoRQ5UHHdqtPZ915sR79crV1mxJlGRZrwP7LGdLYt1NtxBwJLmDVnb6Hg4e2OyBwbZlQAU379KwsdYm/N3SNUKIgMqjZmrRYzjWF1OnqWWMtY6hNZAtn7YSIjsal3tM3UTpgB2Ng4Lk055HPhuYS1hKFsxyosVSclnBZS2zW1vKJExXEVobGXfbFmma1o/voeGJfop0I9Fmam5uxE7ZVmgYo25oaaUkyU5MvzpaTznwKW3acthLiEy79Me8+a2EyHeyzF9Pn67izdtbZrHtqcQnZmwT04MGOZaF1lgOdGsHk4ly1cHd/lhnTlLEgKRAf0lLkwhT+x/Yt0/5BPJa9gHufEejQmpyyl1lslYGS79z61Lu3Mfna+Vhqn21WZhZnbX7uQ8J25K7BjK9GjeD0u7naob+qJzUzQ9nEuLp06eVG5L2XvZ1hsjRy4G6dgoFlg72XbYlDZckT3NSFEIEVB61dWvXtibTJAHRSZWKby7pGFFAHQXzBDKonw6q3H+Fej76ma3+5x+sWL4c3LaRnZv7ipgPIDaOrYTIRqIOkwk+mXBWa3QqkikxsAPv37df5V1jNAYlDvpi0eJLowUzr9CKqS21eD+lN3b0DevWKcdrKqe1g4p1+l5yEmBCByYV4D4tdHjlVp/056Pxg2THejKnILcY4MAmwRAvJjfg8+leQlK1dPB7On0rt5OWZTPv4z4g9G+kZML0XHQCZh0Zu8uymR72EiIJjZZlLs81SYufzGxEqZl40tWK22kyPpzhiHSDoUM6t61ksgZaXUkcpgfrQQdhLt24lSnDKkm83L6BExf7ATFj+zDJ6x+/zwP3KKEBhSRIzEgeDMWMvBFpkVTZB5jCi+5X3E2R7ciBT8d/4k//xvVr16l+wHh6+j0yFx/7KjFk1BH7Bt1quBcKpUGmqzM9SFJMGkEDHp/NyZPRTvT1o+M/687+znZZ889q5dhNKZUCBMcH25L+u1ofZX9g4AAdwOnEzdhoTahwJiGyPehXaRodxImWE8bnkyeruGvWmZtncXxyy1nGlTPbDxNcsO2ofjCfzIQQW3oHM/VSv8VML9TrsIFJKNzKkDtuMUkAiYYdmHvUconNmF5KRdxbg8YYLsdGv/a6chLl7GN+2EqI2n2XLl5UHZ8DiOXhIOr50EMqxpSDhNtRconC8tESzYHOa/hJohk6aNAdUS7s8NRJcacylkU7OHC0bDccEPSR42AlaZBI6DzM/G4jhg9Xu9axPJqhguVip+TGPdzDWOv82rPNP+mwzn2PNcdaTW9L3DkouWTTtnrkVq8katNZ3F5C5PvptEvCZWSIhmXrAO7aTRkuGBvLurIdOXlQgiOWvI5+edR/mh50ZibGSoIP7KwwJw5MEMKlLWOXKZWzfaju4G+mExQjmt556y1lMaW00tbRbGDbrPoc79HKzT7K3fC4TS5Jlv2SqgH2CU5UxJBkxT7AujFKhRMOJVrzg2F7JA9KztoEx9hv3kudMPdgZrtwcqY+lkYM9hOt7ZkxnGXRysYVA+vMyCAasDThwJmESHUFjZ+MCKJPorZKMS0D60zBhn2b/Y19mtdp7UrCJ2GbHkKILWhQemH4FXdLY4fmwCF4WgfRgOYnAWWH4G8kHxINO0mzUeEVtf2A+czD13DJxE7Ja3kyrIuzfFsHy0QHaHZ4Sgh8DwcC380ycIDxf5aTA5gDhoOZxELlOGdySpWMrebvLCvvoVRkamldv26dGsActKw33Wf4Ll7POmrvM68zr2XSUQ5E6o1sWfbyGupnqQ5gBzWvk/YO1ou/MQrClGSZguqP+fPVe4kht2+gdK8NOktYcvCQWCgpUHohRqwr20t7P+tp2p7EgPXjdZQAzRX2p0+dUhMG62ARsxZVh2k78V18JycvTq6UItnGpoRvXn7WnZMr60hi4vvYllo/MO2XWt807xcMw2MZ16xerbaMMH8Hy0B98JTPPlP6YNZd6yvcOlVrE62vM+yQZMNJjBuYUUom+RFX1k8bN9w1jyGsmscGxwRDTEneLA8nXFrbOe4cOYgL+wMTKXACYpk4Blh+loEYceI2HSMsHyValo0rguKi4jtezbJwEuaz2L+I+fatW9ttozseAIDJHaiy4rhjOejbSam9qfHOLTzM72vrf7fFMpsWgJ2SHYMWLGbkJSjchY8zHTuC1vHYwQkwG58zD2fjd98Zq7bmZMNwmceQN60TmL6DkgCXgJ9/+qk6OdCYbbutg2WiropZVRb89ZeSwkh2fDeBZlwzJVQOcm6vyBRNLDv3lqAfG3V5NMRwr2luG8qwKs6UdD2hVKAdlLqYnZlLRVrruPTlcpJSMMO4+D5FEC3JI0iytHrTOMF08ZTAqiqrYDRY3xtFDXAafcKvKwswnZIpeZJY2Vk54CmZUCKlBEUrMV1QNNLg5lBcwlFqI46sMweZVWNTU5PCki4vzFVIXRONCawH38XJidldWGd+R/UB67dk4SK1+yD3qTE9uGsbOzmV+7yOS1hKyYyMoWTG1QIHFOtEqZOSOSeBWTNmqjT+xJx6Nq1eps82/1vrB/Tj/HvVKtXWlDxNU4+xf5II+T4mXqBUz8FMp+Wvp3+llvTM0WlJZ8rnc0Jhn2AuTW5kxRURCYvExYH95JAhqq9zW16upLgk56qKRMqd/qiD5g6CXIqSANSqqf8AxMbEtk5oHBN0OF+3Zo0KgOCOeozFZ5s6crDczEdKUmOIIX1M+UxOopyk6R/LTEQkS0YpEQuWj/1/xbJlamyYCy7EgGqCL6dOVf1rwR9/4sK58za1k1YHjgeuwjiGWA6SIydQa31Uu9/80yOEaFoIkiI7LEHm0oi6GQ5C7aQukXopVrI50D1Mbd7DbTRp9OAANpVqtGezQ9BYwmSrPDmTZGfdvYTRrucnG51KfVpoadEjofLdJD4aT/g/l9b08WP2b5ad79cOSmSMKLl27ZrSFXG7VRKmqTTHv2lQSUpMUoYXEjCXI5TkuN0m38csyDSI0CWDdWasLTGi4t8S+Wvvb+uTuj1uosT3hJw9q3JQ0iLMCB2+g3kfiX9CQsIdHYkdmPoj6vCIIQcYJW/iZMvB+zlZEE/iz3rwXXwniZV15nfU67F+zADEAc/J0vSgdML9Tdj5eR2v532MYeb2rYySUZgdPKR0aXRvCbscpnwQ2QdM28j0ue39TczYluHh4QgJDlE5FrmC0PoliZ66RLYxnb/p3kMS5TKQ4ZYkjvbaiqTIfkAjF9v4xLFjqs2PHP63rzOLEyOmsjKzVL80NDV7JvC5rNfNqJuqP3JssByc0LW24ZjgJEC3LG7vwL1ROLGYk1J7GLT1G59LYqXEyPKz75w9c1a1azMWFxUWLB/fS59eCijmJMWxRpLnM9i/+DymabPnYDuxX7BvsxzsZ3m5tvdR83d5nBDNCyT/CwKCgCDgKQSEED2FvLxXEBAEvA4BIUSvaxIpkCAgCHgKASFETyEv7xUEBAGvQ0AI0euaRAokCAgCnkJACNFTyMt7BQFBwOsQEEL0uiaRAgkCgoCnEBBC9BTy8l5BQBDwOgSEEL2uSaRAgoAg4CkEhBA9hby8VxAQBLwOASFEr2sSKZAgIAh4CgEhRE8hL+8VBAQBr0NACNHrmkQKJAgIAp5CQAjRU8jLewUBQcDrEBBC9LomkQIJAoKApxAQQvQU8vJeQUAQ8DoEhBC9rkmkQIKAIOApBIQQPYW8vFcQEAS8DgEhRK9rEimQICAIeAoBIURPIS/vFQQEAa9DQAjR65pECiQICAKeQkAI0VPIy3sFAUHA6xD4fzHpGwjo6zHWAAAAAElFTkSuQmCC;" vertex="1" parent="1">
          <mxGeometry x="1056.75" y="811" width="92.7" height="103" as="geometry" />
        </mxCell>
        <mxCell id="DLSMKTJHFx1a7OPu0qnC-67" value="" style="shape=image;verticalLabelPosition=bottom;labelBackgroundColor=default;verticalAlign=top;aspect=fixed;imageAspect=0;image=data:image/png,iVBORw0KGgoAAAANSUhEUgAAAMYAAABICAYAAACtIYr1AAAYsklEQVR4Ae2dhb9URf/Hn//k9xiPPgaIhd000goISBl0h9KNSkgpFo0IIhJKSXe3SKiEgHRLh9/f857Ld52de3b3nHt3rxeZeb3unbNn50yd72e+ObP/+r97XxL/5+fA00A8DfzLT0j8hPj58PMBDXhgeI7pJYYAGvDACJgUzzU81/DA8MDwHCOABjwwAibFcwzPMTwwPDA8xwigAQ+MgEnxHMNzDA8MDwzPMQJoIM+Acdv9RaVWvXbyyuvNE76If99XRJq/8548V6JmwjJ+NfereV7QQJ4Bo9CTFWTL1p1y+MjxhERfqUYzIY36corcUbBYwnJ5MTG+jVsbgHkGjNsLFJVK1ZtJ2SoNYwTftE0vad9tgPzngRLm3n8fKiUNW3SXl16uI3APT5y3NnH+ne8/bcC4s2BxIwa9WLp2jKDve7SMPFW0uvynUBbh2wMtWfFtwx3+/PNPqVi9aewZLYPo9VzJmvLoc6/GfVf+tcbCs1rO5x48maCBtAHjiReryrXr12XwJ2MN0d5eoJh8P2uh7Nl7QFp36JONkCH4DZu2yY6fd8szxWtk+752/fZy6PAxWb/pp7jvfj94RFau2RR3LxMT4+u8tQGXNmBASBWqNRF0Ca7vfqiUnD7zh+EKI8Z8a+499kIV+WHeMpk2Y0E2TvDES6/J+G9myKChY+WuQiWlfdcB5tmzf5yLE6tqvv1uUgXeE/StTdDpev9pBYbbKUSkPgOGGXEK0WjoF+MF0elPEenZ55O4VX/0V1MNEK5cvSrvdu5vlO+W7T7wIAgwJbrz7D+nfzHINTBuu7+IPPzMK3Gr+tPFakivvp/GmV1RpvsMHC7Xr1+Xa9euS9uO/eKAMWz0pCxgXLkqrTv0jfvuwacqSpnKDeWOgsXN/bseLCmIWo8+VzmunCeQ9BPIrTqnkYFxf+Gycs8jpWME2bZTP7l69ZrMmb88RrSHjxwzRH7u/AV56OlKZvUHPIWfryLd3x9qLFFwkwWLV8u2Hb9Kt/eHyrPFX5dPho2X9/p/Lo+/WFXufbSMqe/5krXkzNlzpr7hoyeZe8PHfGs+z1u4Uu595OVYX7BqwZlu1Zfpx52+hSESMAo+Xt7oAdNnLRLMr7yIQZ+MNUS678AhwzUKPl5OLl26bO4hNpV5tYFRyDds3iYLl6w2JtsHnqggy1dtMGX4R7kW774vcIJPhk2QNet/lPmLVsorNZpJk9Y9Y+X2/Pa7aeOjz8aZezPnLJF7bgCjaNk3ZNacJVK/Wdc47pUuYmExwPFYvPybUqRMXQP4dNXt60kfQadrLiMBg9V/3catsnvPfvn3fVmDuefh0oZ4VemmYw1adJNtO3ZJ6/Z95I1GHeXS5SygQM0nT50xfopde/bHCJ6LEWMnS7sbCrd+gUUKcy9c5cqVq9KsbW8DRtp+oVQtAySdiMatepjH4Cbp5Bq167czljHtk+ZHj53IxpkA9puNO0mjVj3iOJn28WbK//twaanXtIu83bSLMaTcTH1PR18jAYMG4QhYnLRx5PwiZesKugb3II6yVRpJ6VfqCybbNh37Go6gBAV3eKZYDZny/Ty9JViearzZVj4b8XXsHhc7f9ljygLIanVbG11G2yW3veNcV6ndUgo9WTHWN7ts1Oti5d6QRUvXxPU9rnMigu6j9dZp0F72HzgUK3L+/AXp1GOw3HnDeanl8nvOPPLOVHxlQCwCOF5vJadrZGDYLxb/A8SLb6F3v88F7jFh0kwzkYR+ENoBSPBHaJo9d6lZ0SH2jj0GGUtVhdeaGNHs1debG+Vcy343c6G8/GoD08aRYyfk51/3SvmqjQ0xoqts/nGHdO45JEacdt9yc13oqYqyeNla7UbCnNgvbeen7b9mK7dv/yFBxNMyN0OOP8rl5gxs+87dcRz6ZhhLbvoYCRisfk8VrRYTE9p1+TBGDAcPHZXKtVoYUSl2U0TKVm4oEDw+ivc//CLQC24PoHLNFvLNlB+MXlLgsbIy+bu5dnWyYPEqwbuuCSsXK/d9hcsYyxX+kNyubIgP1JsowfVIGAroOxw0KGGUgNPZ48vv18XKvRk4dsZc4LFyN9VYcjPXkYCBBQr9AjGIRgnZYKU8dfqsdHvvY0ME6tRTQkGBzmkHYeuz5y3Vqky+YvUmgfjV8vXbvoNGAf9gwDBjBmalf+CJ8jluk77igHQTQFm5epN0fe9jY2qG2+FspDz9PH3mrPuInD17TipWyx7uktP5yIvnXihd24i27mB4x2royIt+/N1tRALGuK+/N/OF/KzKtz0A9I/V67bE5pTroHL2M6musTLZSf0fBR4vZ2KzVOknFIW0dsPWXOsZgM1NiBe2TuH2+4tR37iPyLKV6wWu55bNz58hfqx7bvpq4nSjM+bnvqezb0mBge8BpUsdaazU/QePFHQC7cQzxV83esWmLduNvoDfodk77xnL1N0PloyV0/I5yfF5dOn1kVSt3UoQtb6bsUAWLFktROcSvEid6Df1mnWV50vVMp8Rp9CB8I9EbfPEydMuXcj4STOS1gNA4VrzF68yZml8LsxX1LbzQ3n8SJ8On2DGgYl90NAx8siz8cGc+aGfmexDUmB06jlYLl66bHQD7QTWJyw2yPTcQ6xSmZtwjo7dB2WMGDDD7tv/12oOASci/EeefcWAZ9fufcaSpv0Pk586dSYbMLCYpXoWMBJRjBM0nSbjVO1m4nvGwjh4z7nV2TLRv0zXmRQYOLNm/LDYmF7pCKszDjiAgJUCH8Mvv+6NIyL1Tmei43Cw6zcUXxrlEi5CP3H2TZwyWx5+ppIhYF4q7H/eopWxUJKwfQoCxqchgBG2fl8u/zn03HeSFBhuYZTaFas2GiBgcWHjEZYmrklnzv4hdeq3T7myuvWG/cwqvGrtZtMW/3bv3W/CR77+dpa5h4KMcqz13flA8Thfh95Plf8dwGBVRkfDVEx+Wy43ahGZgB6GWfzeR/8Km0k19nR+jx+LsTzwZIWM6ycshIiztJmOMUQCBmIUOgYc48effhbCyCG+pm16y7fT5ki1um0yznYRkUZ+OVmmz14kJSpkbVgiapd09do1ISI36sQwDuoYOizr78LFS6Y++5/RoW58Tzl0L7sdPN76vOZECePwtMvZ18wnHA9lFwuWnS5fuSJbt/0iKPVszgojmhFk+VaTzrJ0xXq5cOGiXZ1cvHjJRC0MHDpGipd/K+F7or8EceoYNEd/UyeuPQb3+o4CxYyuh3Xw/Pm/+sCiRVhQ+24DU5rsqRMHsbZN/vHnX5l+2+0RooT+Yy9kxOdBi4Wfz12AaUpgQPgDPhptImOx17OyEY7xdNHqRp8YO+E7eadz/zz38CI+9Rs0QvoPGWUAiU+FkBECCQEv+8sJE7EnMtE1TkRLQosjqEQfMN3a9TEPboK7BlmlmEM8/XC/ZP4SrY+F6Lf9B2XIZ+MC9SUAAVABkup7+mxQzoYynKV9Bw7PRqT3P1bWePzd5zA+JFuN0a3e7fyhbN+5K2UfCAsCoIWTREezwLmpxwdZWxWefOk14+c6GWAk0WeI16N8Tg1AKYFRrmoj8/J4gTjqlBh69vlUWNVIdAK7vn6X6RwLyYHfD8dewMYt2+XpYtVN+wDjl12/mX7hVAzTl5wA49jxk3F1RwFGo5bd41Y5fZmpcmLG3K2+gAwfksshUtXF9/ig3JCVnAADEWbq9Hly+XIWPYRpG+5OPB2+sKB3FASMcROnG7124+ZtxmeVqp1z5y7I62+9E1h/UJv2vZTAAHFsJeWPVUEfnjU33vHG6qffZTp/q3GnuDlBt7E9zOg5vCj2cITpS06AQQcwBmj9YYGBwWLHz3vi+s8HVnHik1hNiR0jaNJNq9Zsjh0coe0Sp0boiZsgvNOnz8bqUz3QLofZW+vRPCowEPHYoRmGU9lt6zWLWpBZOwgYbJMOMqVrXUE5IrCOLUqeEhhURqQlsieyKTFKeEcHfDw6TgzQ8Igojee0LKeI2KsTwXuEMhR8orwgd0atl3gmHHh49fm7di3LmGBPNJ5t/V5zwl20rbDAaNK6Vzaih/vgA2F1w0+DR50wfHwJm7fujPXnmymzY+1pu3Bulyh/P3TEcJHX6rSWyrVamvO80BtGj5sqO3bujpVHFNV6NI8KjJbt3o97FzpncDD26Hz40Sjzx1YFAO8m5ho9StvXPAgY7rNILFhHiZn749x592vzGUlH64ySJwRG30EjpEvvj2KV4hHVxvF8P1mkmmANYpX7fOQ3SeXPKB0KWxbiYfWgT/WbdzNExap79NhJs19C60EuJgw+imXGVuZ0tlOZa8MCY8TYrE1WWi85iqX2180RlThyCGNH0OKDOdpN6FtuPfZn9BtW37oNO2YrFwUYWLzO3NjX7/YBZd1uk2uMCMTUuenq1avCrk+7fCpgoNxDg/oMC6MdrGq3oWWi5AmBgSmUgD1eDBU+/kLV2Mpw5coVQQHCmsNLY4KiNJqOsvQLL/fzJWuaPrKaakL51jZQyFlRg4hAy7h5JoExaeoP2s1Y/uGQUbH+un3Rz4gscET9rPm6jT/F6tEL3beiZYJyDClBsU9RgIHRxRXR4OSt2mc/FUb78GajTtk4Jv3W+DstlwgYABGdigMztKzmWLyCkn4fJU8IDKxOhAZoZRAi5selK9YZ6w/BgaxixOqzociWt/WZTObs4sMLjnwNYRFDRcLsiTiibWNHJ1qWXYN6L1WeSWAgzrhp994DgtiTql9B3y9Zvs6tzliGwupXbp1hgQFhTpo6J1vby1asN+E5br36GYC7EdNUAve3w04SAYONb7r3X+vUnCiIoKTfR8kTAsOuBEuPvTmJ7yZ8OzOuDwQY2s9k8hqWbCfYM3ZvLFNPFalmjATESaEb5aQfmQQGITOuTsBYuMd2X3QLts4SsJjMPKrjUh+OPR9co7zPnrdMGjTvZsL0cc6G8YWEBQaWKM4FsxNjgFurlKF9dHP21LhmanxH6ENaNhEw6J+WcXP6FJTccmE+pwQG6MRhgvJkR5d+P3NhXB/YgBSmwXSUca1SrDZqSublcxQPe9B79/ssR33KJDBwSmJqTpTY6XH8xCmz7/3LCd/J2006J9WPKlVvmtRSc/36n3Lk6HETscBJLOhmQSdD6nsJCwwOtmCDmp0uXroUyncEAbv6AEAGDNqPfA8MLDaa6jXrEut449Y9Y4ceIFfm5bGZcDBetiZWLiabScUhyemGJFdu1UlPlWcSGLTN0UJRElYwwm+C+g1X0VNTwtaJFQfLXlB9YYEBZ3atTHwOIxISvoED1k5Yp2xjT74HBiswEz/u6+nG61r9jbYmJAMFr26DDsZ8W6VWS6NjhGHVQS8j6r27CpUQwt3xbPIHeLG0lKxYz7BxQMoZVogkUeumfKaBgajRqv0HsnHz9mwihU0s9jWEg9hE/JM7JuR95gFTLJa5MOncufOCqZdFxq4vLDDQQV2nIhZKW7+z67Wv8Yehl9qJfjMGLZfvgUFH2aHGH3FKOExI2MpZdTCZEbP/6+59MmrclMAQCB1sOvJXa7aQ1Wu3mPAHuBZg5IQRrBX7DxwO7dRL1pdMA4O2AQfKJrFNHLqgRw7ZxOJec9pKh24DY8Rjj4ENYRhLICiOH8IEmirhGXZjvsICg/eOY9VOmM7DeJppg/AVOwH8zj0Hx8aWr4GBUw+WiXjCS8Asy6STkOHZe41uoYnBNW7VMzY4+8Wl4xrZ+NCNw9xo8+Dho8ZrunV71iRjOrRNlWxe0p8YiNJ+XgDD7Q8g4XQOIgoQnVjRgxKxSKmUW76HcDmlBJP73n2/myDCoPrmLlgRFxwYFhgE6e13dCWAyw//uGNzPwfpGDjrOENMy+ZrYPCidu3ZZ84XosOszvy4y5BPvzRiFIBxFTCiHXVw6c6DzHEos7wMZFb2amtUJZOPEj5m/LRQ1hi7r38HMLR9iBr/EGc6rVidFeJvEzTHm9pmTX0uUY4OgtjDrkpXrqfeI0dPxA7Po46wwMD8vd7xoWCVwlmZSqQm/o5F1E6IZfbPQeRrYNA5Bss5sYkm3lb8CG0mjDpR2XTcJ8pUEyuhbrt168YBSZAaXAUx0P0+2ee/Exh2v3DoaaCmjpnc3lpsl091XbpSfbsac83GL9ssHBYYBB9OnJy1D8auFN3BPjY1qE8YRdxEyI0dnZCvgcGgbNMeqzAnhaDo6oDZ+shmJSaJlbtqnVYmpJjwhUTbTvXZMDnKIeHj/QaPlPrNu5qfGsBnggkZQ4DuEcBvgfMMOfXuB7MUSvwabPwJ045dJpPAwAfDPIU9imbPbwdcGortqKTPdRp0MCbdIE+wPSauCYF3E+JnToBBfW06Zp1bbNeJfwKl/vaAM4TZfFW3YYds3ILnR345Je495Xtg2JPbpdcQEwKA0gU7x9uN93Pk2MnGmUa8CnH+JFain3/Zm9QLated6BrQqWIKuyWIkc0weHbZHKQEQTkSoh3cIlF9Ye5nEhj9h4yU8/8TGxBrWGSS7RcoValeNiUaEUT32zMWFgjMpGvX/2icefZC5o6V+XLTgYNHciRKUTc6p20217o5J4DgQdfByokvrl7CM6dOnzGGHbu/NxUwOIYSwiMUBIK045MwtSEXE0dlJ+RJZE5WyGS72XRSkLFhqewvR3lmN5qdkLuxlavnFFGOZznxkFMRx0+aGRcer/VGyTMJjGkz5tvDMedRESKBPscP7wAGuArOSSx/bgIA9lh4F3YiCoC97njQmRPq45dyOV4Ix6GbaNtW5sOKUtoH25/l1k2oCxuc2BfjWqG0LI49FjWtT/ObChh4wfENqDNN9Qv0EMKaOVyMEGpNHNJFkB8h1UuWrzVASiZeARzinjje/+vJs+TF0nWyybFsVnnXOgFxzbotsUnFcRQGfDr5ifJMAiPoKE+dL3L2USRKRDVD8NpvOCfcJ1miPt5PUILzI9pofeRRgcEznKAStH8kqE33HgfqBQWh3lTAsCeQaxQwVrY2/4v1V0sEIc+IPJhzS1R4Sxq06B43aYgQPIvYxWqHVYTzobiH59NOi5atNRYadmyRlq/cYI50Qe/AbMwKqKEgbt9y8zmTwHBt//Z4U10jNtmiEodj5yYRiOnOU06AQRwdx6pGTctXbUy4kN1UwECpZYWBPbsTan9mQxPcgxUN4NgJEQhHlO35ZEVDkZ44+a/QcZ4BOOwLpjzx+go+bcsWAYiixSiQ2+M5qTuTwOA3NtjkRcAgwE60muucYZ5lMSHU2gaFzgF739nQtG7D1sBjQrUezXH8sagkCg3PCTDoC9IE4iCiXjLugbLPe+Wn5pJx95sKGFh+kGFXWb+ayi8foV8QDswEYYtGD0GkQlEmaM0+AYMTMQCOfWQ+Lw05EzHBTlOnzzfcBFmV+B7d142dn1NCsH6oAw/CYStnOg58I9QFRdH+g/spMQblLBZ2ea7hZkEh0gAaU+yLL9cxehmEPXfhCkMwGC8Y65wFy2Xgx2METz/7vO1FwG2fBQNxBJDAfQkWXLhkjTFXUx/A4twtwmTQ+SibqD76y5YCdyxELyd6RvvD99RNXBc/MkpEBA5JzOZsV/hsxERzcAW+JneR0zo0Z7ur2wc+2xY0Las5tBD0jH4fJU8ZXWtXxq8KQYDERul9RCVNeFvRJzQRPgLXIC6I/cqjxk2NWbMWLVujxcyvu6IgsiIiThHygcJGNK+9t1yjZbUNfBSAhL7AoWgjN4dI65h8nv8PRMv0O4oEjKDOlKncQLC1c1gClieO1uEwZ07qIDxcnwHpcAS2YsIdOIAAkx77fYmvYaPRtOnzTW6vTHAATJTHjp+KnRzOrkHaQ/lP5UzS9n3uiT0KDeQaGGEbg8ViTiUhW9sHCaBMa9Ab4hDgsuuF+D0APGHbNJHp67QCw17p6TimXRRNjrZRpQ7LIXKvTfw4udTxA/dBPILDwFmwv9vH9mR6Qnz9HoDQQNqAwZ4ITm7QYzOpXPWDzT/uNIobliXCITDVQvjsLSC2CoWPOB6iQakHgHFEDyIUVpvaN37SC4WNwMAwoc2ewD2B54YG0gYMHHyISBw8oB3CJMhpIxwtqffsHGsJqVff7FtQAcH8RauMaVFPx8CKw74LN67GrtNfe0CkgwbSBgxCRDDVuroAe4OD7O90Hl8Gfo2uvf86odweFCIWYSF6D7Dgq8BsrPd87oGQCRpIGzBSdY7At7Hjp8XtCUaE4scuNUIW8YlYopxuSU3VB/+9B1FYGsgzYKBQczIEJ/El6hy/4MQuMGKhEpXx9z1x5wUN5BkwULaxRGkAYtDgCALkIAPyoO/9PQ+KvKKBPANGXg3It+PBkw4a8MC41xNSOgjpn1aHB4YHhhdbA2jAAyNgUv5pq58fT3SpwAPDA8NzjAAa8MAImBS/wkZfYf9pc+aB4YHhOUYADXhgBEzKP2318+OJzgE9MDwwPMcIoAEPjIBJ8Sts9BX2nzZn/w+62fmT+DdYEAAAAABJRU5ErkJggg==;" vertex="1" parent="1">
          <mxGeometry x="1056.29" y="934.09" width="203.71" height="74.08" as="geometry" />
        </mxCell>
      </root>
    </mxGraphModel>
  </diagram>
</mxfile>
